<?xml version="1.0" standalone="no"?>
<!DOCTYPE svg PUBLIC "-//W3C//DTD SVG 20010904//EN"
 "http://www.w3.org/TR/2001/REC-SVG-20010904/DTD/svg10.dtd">
<svg version="1.0" xmlns="http://www.w3.org/2000/svg"
 width="600.000000pt" height="600.000000pt" viewBox="0 0 600.000000 600.000000"
 preserveAspectRatio="xMidYMid meet">

<g transform="translate(0.000000,600.000000) scale(0.100000,-0.100000)"
fill="#000000" stroke="none">
<path d="M1294 5299 c-28 -46 -6 -269 42 -418 68 -207 202 -412 348 -529 22
-17 38 -33 35 -35 -2 -2 -31 -22 -65 -45 -136 -91 -300 -275 -371 -417 -14
-27 -27 -52 -29 -54 -2 -2 -26 11 -54 29 -96 62 -244 92 -335 68 -30 -8 -51
-19 -53 -29 -1 -9 26 -60 62 -113 64 -95 117 -213 131 -289 6 -32 4 -42 -15
-59 -82 -76 -84 -256 -3 -340 l25 -27 -75 -153 c-80 -162 -124 -284 -157 -435
-153 -703 217 -1322 954 -1598 290 -108 603 -155 1032 -155 510 0 875 71 1205
235 656 325 938 935 748 1623 l-20 73 31 36 c55 62 86 152 100 291 9 80 1 221
-16 300 -6 31 -6 32 29 32 250 0 444 219 407 459 -12 76 -72 211 -94 211 -8 0
-32 -33 -54 -72 -39 -71 -119 -176 -135 -177 -4 -1 -4 18 0 42 5 23 8 107 7
187 -1 173 -20 258 -88 395 -49 99 -126 195 -157 195 -22 0 -23 -1 -37 -94
-14 -92 -62 -185 -138 -266 -121 -130 -194 -241 -194 -296 0 -28 -81 -82 -93
-62 -106 182 -150 240 -264 349 -44 42 -108 95 -143 119 l-63 43 29 21 c230
165 414 545 414 854 0 119 -5 123 -105 83 -301 -121 -579 -409 -690 -716 -10
-27 -21 -53 -25 -58 -3 -4 -33 2 -66 13 -98 34 -290 68 -447 80 -235 17 -522
-12 -722 -74 -43 -14 -80 -24 -81 -23 -1 1 -16 39 -33 83 -116 302 -394 582
-692 699 -72 28 -75 29 -85 14z m152 -93 c206 -100 412 -300 524 -509 37 -69
90 -196 90 -217 0 -6 -19 -18 -42 -27 -24 -9 -87 -39 -142 -65 l-98 -49 -52
39 c-208 158 -371 465 -395 746 -8 91 -4 126 13 126 7 0 53 -20 102 -44z
m2754 -10 c0 -279 -186 -657 -400 -813 l-56 -41 -44 24 c-25 13 -89 42 -142
65 -54 22 -98 42 -98 44 0 14 46 127 78 190 115 230 313 428 541 542 114 58
121 57 121 -11z m-1110 -660 c140 -24 355 -90 491 -151 254 -113 468 -295 592
-504 26 -43 47 -81 47 -84 0 -3 -28 4 -62 16 -49 15 -91 20 -185 21 -111 1
-123 -1 -145 -20 -35 -32 -58 -42 -131 -54 -61 -11 -70 -16 -117 -66 l-51 -54
-47 41 c-188 166 -492 151 -667 -32 -52 -54 -59 -59 -68 -42 -20 37 -99 104
-158 134 -187 94 -435 61 -561 -73 l-27 -29 -54 54 c-50 51 -57 55 -125 67
-49 8 -84 21 -111 41 -30 21 -56 30 -103 35 -68 7 -195 -9 -261 -32 -22 -8
-42 -13 -43 -11 -6 6 48 101 95 167 215 304 620 518 1111 586 124 17 451 11
580 -10z m1696 -120 c48 -65 91 -155 115 -242 29 -109 37 -307 16 -429 -15
-83 -19 -92 -54 -123 -21 -19 -63 -47 -94 -63 l-57 -28 -48 48 c-74 73 -134
86 -226 47 -23 -10 -33 41 -33 169 0 92 3 104 30 154 16 29 70 97 119 149 69
75 99 117 132 186 24 49 44 99 44 110 0 29 11 66 19 66 3 -1 20 -20 37 -44z
m419 -721 c0 -82 -3 -96 -33 -157 -57 -116 -165 -186 -301 -195 l-77 -6 -29
74 c-17 41 -31 77 -33 81 -2 5 3 8 11 8 16 0 96 52 197 129 72 56 148 142 191
219 l24 42 25 -52 c20 -44 25 -68 25 -143z m-719 -115 c-54 -48 -103 -158
-112 -255 -9 -101 -9 -178 0 -285 8 -92 18 -132 47 -197 10 -24 19 -46 19 -51
0 -5 21 -39 46 -78 44 -66 35 -67 -23 -4 -36 40 -85 140 -80 161 3 10 2 17 -2
15 -4 -3 -18 34 -31 82 -21 75 -25 108 -25 232 1 113 4 153 17 180 9 19 19 51
22 71 9 55 60 124 108 148 23 11 44 19 46 16 2 -2 -12 -18 -32 -35z m134 -159
c0 -41 -13 -114 -25 -149 -10 -28 -95 104 -95 147 0 31 17 34 36 6 20 -31 44
-33 44 -2 0 12 3 32 6 45 11 39 34 6 34 -47z m107 -137 c3 -9 -2 -41 -12 -70
-17 -50 -17 -55 -2 -72 18 -20 23 -87 8 -97 -6 -3 -26 22 -45 55 -35 59 -35
60 -21 105 24 80 57 116 72 79z m-3423 -54 c40 -39 12 -120 -41 -120 -13 0
-35 11 -48 25 -34 33 -33 77 2 104 29 24 56 21 87 -9z m2981 -60 l0 -65 -31
-3 c-61 -6 -90 72 -43 119 13 13 30 19 47 17 26 -3 27 -5 27 -68z m250 22 c15
-20 20 -42 19 -87 -1 -65 -22 -136 -41 -143 -16 -5 -17 48 -2 81 9 19 7 32
-10 65 -27 52 -28 112 -3 112 9 0 26 -13 37 -28z m-1720 -72 c44 -48 10 -120
-56 -120 -44 0 -69 27 -69 72 0 60 85 93 125 48z m1863 -185 c23 -48 34 -99
26 -120 -10 -25 -35 -17 -47 15 -13 33 -37 41 -37 11 0 -30 -11 -51 -26 -51
-28 0 -18 114 17 209 l10 26 19 -25 c11 -14 28 -43 38 -65z m-1378 -970 c179
-22 366 -58 513 -101 131 -38 329 -117 347 -139 6 -8 25 -17 41 -20 26 -6 37
0 87 47 100 92 253 158 367 158 42 0 46 -2 43 -22 -2 -19 -11 -24 -53 -29
-107 -14 -268 -85 -374 -165 l-55 -41 -30 18 c-51 29 -254 106 -366 138 -621
179 -1476 167 -2163 -30 -77 -22 -186 -57 -241 -79 -56 -22 -108 -40 -114 -40
-7 0 -37 18 -65 40 -97 73 -309 160 -390 160 -18 0 -26 6 -29 25 -3 14 -1 28
4 31 18 11 134 -9 208 -36 90 -32 146 -66 213 -128 l49 -46 61 23 c34 12 94
34 132 48 274 99 640 173 1005 203 165 13 654 5 810 -15z m-989 -216 c160 -41
288 -115 389 -227 l60 -66 67 70 c110 114 233 185 393 225 118 30 312 24 411
-13 194 -72 304 -198 316 -362 11 -140 -36 -262 -144 -376 -76 -82 -172 -146
-245 -166 -79 -21 -249 -51 -368 -66 -67 -8 -232 -13 -460 -13 -292 0 -376 3
-475 18 -199 30 -325 64 -395 105 -75 44 -200 172 -234 239 -68 135 -74 272
-18 386 58 117 190 215 338 251 93 23 264 20 365 -5z"/>
<path d="M2060 4069 c-31 -11 -73 -33 -94 -51 -37 -31 -72 -91 -62 -107 3 -5
28 -11 55 -15 64 -8 115 -43 119 -80 3 -27 5 -28 50 -21 72 10 113 24 165 58
54 37 92 100 82 140 -8 32 -51 71 -94 86 -51 17 -158 12 -221 -10z"/>
<path d="M3223 4071 c-56 -26 -77 -60 -70 -112 10 -73 91 -134 210 -159 67
-14 88 -9 80 18 -3 13 4 26 22 41 25 19 48 27 128 45 26 6 28 10 22 34 -9 39
-70 97 -129 123 -73 32 -205 37 -263 10z"/>
<path d="M2713 3848 c-18 -11 -33 -24 -33 -29 0 -14 28 -11 55 7 22 14 27 14
64 -5 52 -27 63 -10 14 23 -44 31 -57 31 -100 4z"/>
</g>
</svg>
