<?xml version="1.0" standalone="no"?>
<!DOCTYPE svg PUBLIC "-//W3C//DTD SVG 20010904//EN"
 "http://www.w3.org/TR/2001/REC-SVG-20010904/DTD/svg10.dtd">
<svg version="1.0" xmlns="http://www.w3.org/2000/svg"
 width="691.000000pt" height="691.000000pt" viewBox="0 0 691.000000 691.000000"
 preserveAspectRatio="xMidYMid meet">

<g transform="translate(0.000000,691.000000) scale(0.100000,-0.100000)"
fill="#000000" stroke="none">
<path d="M2 6873 c2 -31 7 -39 28 -43 17 -4 24 -11 22 -23 -3 -20 39 -41 49
-25 4 6 17 3 32 -7 14 -9 28 -16 31 -16 21 3 27 -1 21 -18 -6 -19 18 -36 36
-25 5 3 17 -2 26 -11 14 -14 14 -18 2 -26 -12 -8 -12 -10 1 -8 52 5 70 -1 70
-26 0 -18 4 -23 16 -18 10 4 17 -1 21 -15 3 -12 15 -23 27 -25 21 -4 21 -4 -1
-6 -13 0 -23 -5 -23 -10 0 -12 27 -21 44 -15 9 3 21 -5 31 -20 10 -14 24 -26
31 -26 8 0 14 -7 14 -15 0 -8 4 -15 10 -15 5 0 12 -11 16 -25 3 -14 12 -25 20
-25 8 0 14 -4 14 -10 0 -5 6 -10 13 -10 7 0 18 -9 25 -21 7 -12 16 -19 19 -16
9 10 74 -83 67 -95 -4 -7 -3 -8 4 -4 11 6 17 -12 13 -36 0 -5 4 -7 11 -5 7 1
17 -8 23 -20 5 -13 15 -23 21 -23 15 0 46 -35 37 -43 -3 -4 -1 -7 6 -7 8 0 11
-7 7 -15 -3 -8 -1 -15 5 -15 6 0 8 -4 5 -8 -6 -10 3 -22 28 -42 19 -15 19 -15
1 15 l-19 30 37 -34 c20 -19 37 -41 37 -48 0 -7 5 -13 10 -13 6 0 10 -7 10
-15 0 -8 4 -15 8 -15 18 0 53 -39 52 -57 -4 -36 0 -53 14 -53 16 0 46 -42 46
-64 0 -8 -15 -24 -32 -36 -28 -18 -29 -20 -8 -14 13 4 30 13 38 20 7 8 18 12
23 9 5 -4 9 -1 9 4 0 6 5 11 11 11 8 0 8 -5 -1 -15 -7 -8 -18 -15 -25 -15 -12
0 -75 -55 -75 -65 0 -3 42 24 93 60 50 35 91 68 90 72 -1 5 6 10 15 11 9 1 46
6 82 11 36 5 122 15 190 21 l125 11 182 -61 c204 -68 260 -101 401 -235 97
-92 110 -116 45 -80 -26 15 -53 31 -58 35 -6 5 -67 32 -135 60 -117 47 -135
52 -276 66 l-150 16 -115 -31 c-148 -41 -146 -40 -250 -118 -85 -64 -90 -70
-123 -147 -19 -45 -37 -94 -41 -111 -4 -23 -1 -19 13 13 10 23 21 40 25 36 4
-4 7 -1 7 6 0 24 32 100 42 100 5 0 6 -5 2 -12 -8 -13 -7 -68 1 -76 3 -3 11 1
19 7 8 7 32 14 53 16 32 2 43 -3 70 -31 17 -19 36 -34 42 -34 13 0 71 -56 71
-69 0 -5 9 -12 19 -16 23 -7 54 -52 46 -65 -3 -6 3 -10 15 -10 12 0 18 -5 15
-10 -10 -17 5 -52 21 -46 8 3 13 0 11 -7 -1 -7 4 -11 11 -9 10 2 12 -5 7 -27
-5 -23 -2 -32 13 -40 11 -6 26 -31 33 -56 7 -25 19 -45 25 -45 14 0 8 -37 -9
-58 -13 -16 5 -31 32 -27 9 1 11 0 4 -2 -6 -2 -13 -22 -15 -43 -3 -31 -1 -36
10 -28 10 8 11 7 6 -7 -4 -9 -2 -20 3 -24 14 -8 24 -81 12 -81 -5 0 -9 -7 -9
-15 0 -10 -11 -16 -32 -17 -48 -2 -51 -2 -78 6 -23 6 -23 5 4 -10 25 -14 42
-15 145 -4 99 10 124 16 171 43 61 35 62 38 -20 -71 -25 -33 -49 -67 -55 -76
-5 -9 -36 -23 -68 -31 -83 -21 -95 -29 -91 -62 1 -15 -1 -30 -5 -33 -4 -3 -15
-36 -26 -75 -23 -89 -23 -90 -43 -68 -26 29 -79 64 -92 61 -7 -2 -17 6 -23 17
-7 11 -18 24 -24 28 -7 4 -13 17 -13 28 0 11 -13 33 -30 49 -16 16 -30 38 -30
50 0 11 -4 20 -10 20 -5 0 -10 7 -10 15 0 9 -7 18 -15 21 -8 4 -12 10 -9 15 3
5 15 3 27 -5 25 -16 127 -39 135 -31 3 3 0 5 -7 5 -24 0 -175 70 -197 91 -23
21 -47 19 -39 -4 6 -16 -12 -44 -22 -34 -4 5 -1 12 7 17 8 5 11 12 7 16 -3 4
-13 1 -22 -6 -11 -9 -15 -9 -15 -1 0 8 -8 10 -23 6 -17 -5 -19 -4 -7 4 8 6 24
8 35 4 17 -5 18 -4 6 10 -7 9 -18 14 -24 10 -6 -3 -7 -1 -3 5 4 7 2 12 -3 12
-6 0 -11 -4 -11 -10 0 -18 -29 -10 -57 16 -23 21 -25 27 -13 35 13 9 13 10 0
8 -28 -3 -40 1 -40 12 0 6 7 8 16 5 11 -4 15 -2 11 8 -10 25 21 12 69 -30 25
-21 53 -43 60 -47 8 -5 11 -13 8 -19 -4 -6 -1 -9 5 -7 26 9 11 26 -86 104 -87
69 -106 90 -142 155 -23 41 -61 111 -85 154 -42 76 -44 83 -51 191 -5 75 -11
112 -19 112 -8 0 -9 -19 -4 -71 4 -39 10 -95 13 -125 l6 -54 -25 30 c-14 17
-26 36 -26 41 0 6 -16 16 -36 22 -20 7 -40 22 -46 36 -6 13 -15 21 -19 18 -5
-3 -9 0 -9 5 0 6 -17 11 -39 11 -34 0 -38 2 -36 23 2 20 -4 25 -42 35 -24 7
-48 10 -52 7 -5 -2 -11 9 -15 26 -4 23 -10 30 -21 25 -9 -3 -14 -2 -10 3 3 5
-1 15 -8 23 -7 7 -13 15 -13 18 0 14 -38 60 -51 60 -8 0 -19 14 -25 31 -7 20
-13 27 -18 19 -5 -9 -10 -6 -15 9 -4 14 -12 20 -21 17 -8 -3 -14 -1 -14 5 0 6
-4 8 -9 5 -12 -8 -32 18 -34 43 -1 12 -5 21 -9 21 -4 0 -5 10 -3 23 4 22 4 22
-12 2 -11 -15 -14 -15 -10 -3 6 16 -25 53 -35 42 -4 -3 -9 4 -13 15 -4 13 -18
23 -40 27 -33 6 -53 28 -35 39 6 4 10 1 10 -4 0 -6 7 -11 15 -11 25 0 17 19
-15 35 -17 9 -28 20 -25 24 3 5 -9 14 -25 20 l-30 10 0 -1195 c0 -1071 2
-1194 15 -1194 9 0 27 -12 40 -26 14 -15 31 -24 38 -21 22 8 38 -7 47 -47 9
-43 -2 -52 -51 -42 -26 5 -36 1 -59 -24 -26 -28 -26 -29 -6 -32 12 -2 22 -13
26 -28 7 -32 36 -37 63 -12 34 30 47 35 47 18 0 -9 -7 -16 -16 -16 -10 0 -14
-6 -11 -14 4 -10 0 -12 -14 -9 -10 3 -19 0 -19 -6 0 -6 5 -11 11 -11 6 0 3 -7
-5 -16 -9 -8 -20 -13 -25 -10 -5 4 -18 -5 -29 -19 -11 -14 -24 -25 -30 -25 -5
0 -13 -7 -16 -16 -11 -28 -7 -414 4 -414 6 0 10 -10 10 -22 0 -12 3 -18 7 -15
3 4 12 -5 20 -20 12 -24 11 -28 -8 -46 -17 -16 -18 -21 -7 -29 9 -6 6 -7 -10
-3 -19 5 -22 3 -22 -19 0 -27 7 -31 35 -20 13 5 14 8 3 15 -9 6 -8 9 8 9 48 0
59 -46 14 -61 -16 -6 -28 -14 -25 -19 2 -4 -4 -15 -15 -25 -19 -18 -20 -33
-20 -591 0 -476 2 -572 13 -568 8 3 29 -9 46 -26 18 -16 36 -30 40 -30 4 0 17
-10 29 -23 21 -23 29 -66 15 -81 -4 -4 -6 -27 -4 -51 3 -51 -5 -58 -20 -16 -9
24 -14 28 -41 25 -18 -2 -36 -10 -40 -17 -13 -18 -4 -145 15 -207 32 -108 32
-100 0 -100 -52 0 -53 -4 -53 -282 0 -142 1 -258 3 -258 1 0 36 9 77 20 41 11
86 20 100 20 27 -1 60 -21 60 -37 0 -17 66 -68 90 -70 13 -1 40 -20 61 -41 41
-44 75 -54 125 -40 19 5 39 6 46 2 6 -4 8 -3 5 3 -4 6 10 13 33 17 27 4 40 11
40 22 0 9 6 14 13 11 8 -3 43 -8 79 -12 59 -6 73 -4 123 19 32 14 69 26 84 27
23 1 24 2 5 7 -33 11 -191 164 -207 202 -9 19 -31 77 -51 128 l-36 93 7 127
c5 106 10 135 29 174 34 67 113 188 124 188 4 0 80 34 167 76 155 74 213 95
213 78 0 -5 -23 -34 -50 -64 -144 -158 -153 -174 -214 -352 l-58 -166 7 -152
8 -151 58 -89 c62 -94 71 -116 42 -106 -15 5 -15 4 1 -9 11 -8 30 -15 43 -15
13 0 23 -5 23 -11 0 -5 4 -8 10 -4 14 9 60 -6 57 -19 -1 -6 7 -10 18 -8 11 2
40 3 65 2 31 0 83 14 163 44 l119 45 39 -24 c21 -14 54 -25 73 -25 43 0 62
-22 65 -77 1 -10 130 -13 610 -13 l608 0 7 31 c10 50 7 78 -10 112 -21 42 -53
67 -87 67 -32 0 -55 -21 -92 -84 -75 -129 -152 -116 -243 41 -29 50 -52 95
-52 101 0 6 -10 27 -22 47 -20 34 -20 41 -8 89 21 85 68 199 98 235 50 63 82
92 93 85 7 -4 3 -13 -10 -25 -30 -28 -26 -34 8 -10 25 18 30 19 47 6 18 -14
18 -16 2 -26 -10 -5 -18 -15 -18 -20 0 -6 7 -3 16 5 20 21 32 20 78 -5 49 -26
330 -91 374 -87 28 4 31 2 27 -17 -3 -11 10 9 29 45 31 58 51 112 25 68 -8
-15 -25 -18 -99 -18 -81 0 -95 3 -146 31 -31 16 -79 42 -105 56 -62 32 -206
157 -240 209 -76 112 -102 162 -103 191 -1 17 -4 29 -7 27 -3 -2 -6 9 -6 24 0
15 -10 61 -24 102 -31 99 -29 215 4 242 18 15 20 19 8 27 -15 9 -7 28 120 284
16 32 29 64 29 70 0 12 -15 -11 -47 -73 -10 -19 -25 -42 -34 -51 -15 -15 -17
-15 -27 0 -8 11 -13 13 -19 5 -4 -6 -34 -11 -66 -10 -55 1 -73 -6 -77 -29 -1
-5 -11 -15 -22 -21 -18 -10 -19 -12 -3 -18 9 -3 21 -4 26 -1 5 4 6 -1 3 -10
-5 -11 -2 -14 10 -9 10 4 16 1 16 -9 0 -9 7 -23 16 -32 9 -8 13 -22 10 -30 -3
-10 0 -12 12 -8 13 5 14 3 6 -6 -19 -21 -46 -8 -68 31 -12 20 -30 47 -40 61
-18 24 -21 24 -33 9 -11 -15 -14 -15 -23 -2 -8 12 -10 11 -10 -7 0 -14 6 -23
15 -23 8 0 15 -4 15 -9 0 -20 -40 3 -49 28 -9 25 -9 25 -10 -11 -1 -40 26
-108 43 -109 13 -1 -24 -17 -41 -18 -18 -1 -41 49 -49 108 -9 70 -45 106 -59
61 -3 -11 -10 -20 -15 -20 -11 0 -19 -60 -8 -66 4 -3 8 7 9 23 0 15 3 22 6 15
7 -17 -6 -64 -15 -58 -5 3 -8 -13 -8 -35 1 -21 6 -39 11 -39 11 0 -16 -20 -27
-20 -5 0 -8 16 -8 35 0 24 -5 35 -15 35 -8 0 -15 4 -15 9 0 4 -13 37 -29 71
l-28 64 -18 -37 c-13 -28 -17 -58 -15 -124 4 -121 4 -123 -23 -123 -41 0 -47
17 -47 142 0 136 -16 296 -36 365 -8 26 -12 35 -9 18 12 -78 17 -156 11 -186
-5 -31 -9 -34 -43 -36 -29 -1 -44 -9 -64 -34 -15 -18 -31 -29 -37 -25 -13 8
-53 -11 -65 -30 -4 -8 -19 -14 -33 -14 -16 0 -28 -8 -34 -22 -6 -17 -8 -10 -5
27 3 34 1 45 -5 35 -6 -9 -10 -10 -10 -3 0 6 5 15 10 18 6 4 8 10 5 15 -5 7 8
40 57 150 108 241 192 406 197 385 2 -13 8 -2 16 30 27 104 139 340 174 363
22 15 25 15 45 -11 66 -83 64 -76 51 -149 -6 -37 -8 -69 -5 -70 8 -4 50 -65
50 -73 0 -3 -6 -3 -12 2 -7 4 -22 9 -33 10 -11 2 -33 10 -50 17 -16 8 -41 17
-55 20 -19 5 -15 1 13 -17 21 -14 66 -30 100 -37 51 -10 74 -22 128 -66 37
-29 84 -63 105 -75 84 -46 134 -83 134 -98 0 -13 2 -14 9 -2 14 23 38 5 59
-43 17 -37 29 -48 71 -67 45 -19 67 -39 42 -39 -5 0 -12 -8 -15 -17 -6 -14 -3
-14 16 3 13 10 25 22 28 25 33 37 154 138 161 133 5 -3 9 1 9 8 0 7 21 26 47
41 45 28 61 26 64 -8 0 -5 2 -19 5 -30 2 -11 5 -57 8 -103 5 -87 10 -100 60
-134 l31 -21 -31 30 c-27 25 -33 40 -38 94 -10 88 -23 158 -46 250 -10 39 -20
52 -58 77 -26 17 -65 38 -87 47 -22 10 -49 22 -60 26 -11 5 -59 22 -106 39
-48 16 -115 46 -150 66 -79 46 -229 166 -260 208 -56 75 -107 154 -127 198
-24 52 -27 68 -12 68 13 0 60 52 60 67 0 6 -8 14 -19 18 -10 3 -27 15 -37 26
-17 19 -17 20 4 26 28 7 28 12 -9 71 -43 70 -100 286 -70 268 5 -3 23 -30 40
-60 37 -66 53 -79 45 -37 -8 37 6 57 47 65 16 3 40 17 52 31 12 14 36 28 54
31 29 6 34 3 45 -22 19 -45 39 -64 68 -64 37 0 74 32 93 78 25 62 87 67 87 8
0 -84 -50 -174 -122 -219 -37 -23 -109 -32 -139 -18 -23 11 -23 11 -5 -3 43
-35 143 -12 204 47 54 51 112 183 112 253 0 18 7 40 16 49 23 23 15 126 -11
155 l-20 22 43 -17 c24 -10 45 -15 49 -12 9 10 -110 123 -154 146 -32 16 -60
21 -115 21 -58 0 -69 3 -60 12 8 8 47 14 101 15 69 2 96 -2 125 -16 37 -19 52
-10 16 9 -11 6 -20 15 -20 20 0 5 -16 26 -35 47 -20 22 -33 44 -29 53 3 8 2
11 -2 7 -13 -13 -60 115 -78 208 -20 111 -20 271 -1 390 14 85 19 174 9 148
-3 -6 -32 -40 -65 -74 -32 -35 -59 -67 -59 -72 0 -8 -14 -27 -42 -55 -10 -10
-42 -70 -71 -133 -134 -283 -215 -619 -217 -892 0 -78 6 -125 30 -219 16 -65
34 -128 40 -138 5 -10 15 -31 20 -46 9 -22 8 -25 -2 -17 -7 6 -31 14 -53 18
-22 3 -50 16 -61 27 -16 14 -24 16 -29 7 -5 -8 11 -30 44 -62 29 -27 45 -47
37 -43 -9 3 -24 9 -33 12 -15 5 -16 4 -3 -5 8 -6 12 -11 7 -11 -4 0 0 -11 8
-24 18 -28 67 -50 93 -44 12 4 18 -1 19 -14 2 -21 -64 -57 -104 -58 -13 0 -23
-5 -23 -12 0 -9 -3 -9 -12 0 -7 7 -17 12 -22 12 -6 0 -4 -5 4 -11 11 -8 7 -9
-18 -5 -18 3 -39 11 -46 18 -7 7 -28 27 -47 43 -53 48 -178 218 -209 286 -11
24 -20 38 -20 30 0 -15 79 -163 92 -172 12 -8 6 -119 -7 -120 -28 -3 -93 173
-109 301 -6 41 -5 43 9 26 19 -26 19 -21 -5 48 -29 87 -43 208 -35 326 7 120
62 355 101 431 13 27 33 70 43 96 27 70 146 279 194 343 34 44 151 192 214
270 7 8 26 32 42 53 28 36 102 97 118 97 5 0 26 14 47 30 22 17 46 30 53 30 7
0 13 5 13 10 0 6 6 10 13 10 11 0 120 44 217 87 19 9 39 15 43 14 5 -1 6 3 3
8 -10 15 56 64 134 100 41 18 82 37 90 41 8 4 38 13 65 19 44 11 62 10 150 -9
55 -12 141 -30 190 -40 50 -11 117 -29 150 -40 33 -12 71 -24 84 -26 221 -44
362 -75 461 -104 41 -12 104 -30 140 -40 58 -16 192 -63 245 -85 20 -9 45 -30
129 -105 137 -124 316 -370 357 -489 35 -104 123 -298 152 -335 49 -63 117
-344 117 -486 0 -57 -24 -125 -52 -148 -13 -10 -19 -9 -38 6 -22 17 -22 18 -5
75 9 31 14 65 12 75 -4 13 -5 12 -6 -5 0 -12 -5 -32 -10 -45 -5 -13 -17 -50
-27 -83 -15 -51 -43 -106 -64 -125 -3 -3 -14 -23 -25 -44 -11 -21 -32 -48 -47
-59 -15 -11 -25 -24 -22 -28 5 -8 -36 -35 -48 -31 -3 1 -9 -5 -12 -14 -4 -10
-1 -13 7 -9 6 4 1 -3 -13 -14 -14 -11 -29 -21 -33 -21 -15 0 -59 -47 -50 -53
5 -3 30 8 56 25 26 17 50 29 52 26 3 -3 7 -18 10 -34 8 -52 27 -124 32 -124 7
0 -3 77 -13 105 -5 14 -4 17 3 10 6 -5 23 -44 38 -85 14 -41 38 -104 52 -140
28 -69 161 -277 226 -350 21 -25 46 -58 54 -73 8 -16 17 -27 19 -24 5 5 -67
115 -118 180 -17 21 -27 41 -24 44 10 10 130 22 228 22 l86 1 25 43 c53 91
128 239 123 244 -2 3 -46 1 -98 -4 -65 -5 -161 -3 -318 8 -124 10 -226 17
-227 18 -2 2 -50 133 -60 166 -9 27 -4 37 42 100 56 77 88 128 114 180 16 33
17 34 44 20 27 -14 28 -13 50 21 27 43 34 42 184 -20 164 -68 289 -116 304
-116 8 -1 39 -11 69 -24 l55 -24 22 59 c12 33 30 75 39 94 10 21 14 45 10 60
-4 14 -2 25 3 25 14 0 25 -64 18 -99 -10 -49 -58 -141 -71 -134 -7 4 -8 3 -1
-4 10 -11 55 -26 245 -83 141 -43 150 -49 140 -96 -5 -20 -13 -41 -18 -46 -6
-6 -68 -21 -139 -35 -231 -44 -239 -46 -218 -52 11 -3 21 -15 23 -26 2 -11 14
-44 28 -74 26 -59 30 -132 9 -167 -14 -22 -9 -30 91 -136 36 -38 41 -47 26
-51 -13 -3 -10 -8 16 -23 103 -59 303 -238 395 -354 90 -113 164 -271 188
-399 25 -136 24 -141 -12 -220 -50 -108 -52 -112 -82 -137 l-28 -24 -50 42
c-50 42 -53 48 -64 128 -5 39 -18 92 -45 180 -4 14 -5 -11 -1 -55 8 -107 8
-212 -1 -221 -4 -4 -28 -10 -54 -14 -35 -5 -60 -2 -111 17 -71 26 -93 42 -93
70 0 10 -7 38 -14 63 l-14 45 -4 -59 c-2 -40 -8 -61 -17 -64 -11 -4 -13 7 -7
59 4 35 12 65 17 67 12 5 12 32 -1 32 -15 0 -30 -35 -30 -70 0 -18 -6 -33 -15
-36 -8 -4 -12 -11 -9 -16 4 -7 -5 -8 -27 -3 -38 8 -72 29 -63 38 3 3 1 14 -5
24 -10 17 -10 16 -11 -4 0 -13 -4 -23 -10 -23 -5 0 -10 5 -10 11 0 6 -7 8 -15
5 -16 -6 -48 9 -122 57 -28 18 -56 27 -82 27 -21 0 -71 7 -110 16 l-71 16 0
39 c0 22 5 47 11 57 10 16 -9 122 -40 222 l-10 35 27 -33 c15 -18 30 -32 33
-32 3 0 6 18 7 41 1 22 4 44 6 47 2 4 0 33 -5 65 -7 42 -25 84 -64 150 -30 50
-57 96 -59 102 -2 5 -7 6 -12 2 -5 -4 -4 -11 2 -15 17 -11 44 -74 37 -86 -3
-6 -3 -8 2 -4 11 11 34 -23 35 -50 0 -13 4 -20 10 -17 5 3 11 -4 12 -17 1 -28
3 -35 13 -71 5 -19 3 -32 -5 -40 -10 -10 -12 -8 -7 6 4 9 2 17 -3 17 -6 0 -10
-10 -10 -21 0 -19 -3 -18 -30 12 -16 19 -30 39 -30 45 0 7 -7 14 -15 17 -8 4
-21 21 -28 39 -8 18 -21 39 -30 47 -15 12 53 -149 73 -174 8 -10 30 -106 31
-135 0 -8 3 -22 5 -30 4 -11 7 -12 13 -2 5 8 7 -1 6 -21 -1 -19 -5 -39 -9 -46
-4 -6 0 -11 10 -11 14 0 16 -8 12 -55 -5 -65 -9 -69 -43 -61 -19 5 -24 10 -17
19 13 16 20 96 8 94 -6 -1 -16 14 -22 33 l-13 35 0 -48 c-1 -27 4 -58 10 -70
9 -18 9 -20 -2 -10 -7 7 -17 13 -21 13 -13 0 -9 -28 5 -33 7 -3 6 -6 -5 -6 -9
-1 -20 -10 -23 -21 -10 -31 -55 -80 -74 -80 -22 0 -71 -23 -71 -32 0 -5 -13
-8 -29 -8 -17 0 -33 -5 -36 -10 -16 -25 -22 -4 -18 64 3 62 0 82 -22 131 -14
32 -25 62 -25 68 0 5 -6 15 -14 21 -7 6 -56 65 -108 131 -75 94 -113 155 -176
280 -44 88 -90 194 -102 235 -12 41 -28 98 -37 125 -41 136 -52 189 -62 290
-7 64 -7 111 -2 113 31 10 182 119 214 155 21 23 43 41 48 39 6 -1 8 1 6 5 -3
5 1 17 10 28 13 19 14 18 7 -10 -3 -16 -11 -34 -15 -39 -11 -13 -12 -86 -1
-86 5 0 15 32 22 71 8 40 36 120 66 184 30 66 46 111 38 108 -8 -3 -14 -14
-14 -24 0 -10 -3 -19 -8 -19 -4 0 -18 -26 -32 -57 -16 -38 -50 -83 -102 -137
-43 -45 -78 -84 -78 -88 0 -5 -5 -8 -11 -8 -6 0 -36 -18 -68 -40 -63 -44 -73
-48 -64 -24 5 14 2 16 -23 10 -85 -22 -327 -25 -351 -4 -6 5 -20 8 -30 7 -10
-2 -27 2 -39 8 -12 7 -26 8 -34 3 -24 -15 102 -67 218 -90 102 -20 109 -21
160 -5 29 10 55 16 57 14 1 -2 6 -32 10 -65 l6 -61 -88 -88 c-158 -157 -253
-226 -452 -326 -110 -56 -135 -83 -155 -170 -9 -39 -16 -83 -15 -98 1 -30 5
-21 14 31 8 50 21 48 28 -4 8 -60 -14 -99 -105 -190 -79 -78 -88 -90 -66 -85
8 1 15 -22 20 -68 4 -38 13 -81 20 -95 l12 -25 4 23 c2 12 -1 53 -7 90 -6 36
-7 70 -3 74 5 5 42 12 83 18 141 18 219 10 219 -23 0 -7 12 -36 26 -65 14 -28
22 -56 19 -63 -7 -10 -65 98 -65 120 0 17 -60 22 -160 14 l-95 -8 -3 -40 c-1
-22 3 -58 11 -80 12 -35 19 -41 53 -47 21 -4 74 -7 117 -7 46 -1 77 -5 77 -11
0 -19 -28 -22 -157 -13 -101 8 -132 7 -148 -4 -11 -8 -14 -13 -6 -13 15 0 10
-60 -14 -145 -7 -27 -15 -70 -16 -95 -4 -76 -12 -83 -77 -76 -99 12 -114 17
-125 50 -6 15 -4 17 10 11 21 -8 43 -14 95 -25 58 -12 66 1 73 110 6 101 -3
100 -26 -3 -18 -86 -21 -87 -139 -53 -60 17 -71 15 -48 -11 9 -10 23 -42 33
-71 14 -44 19 -50 28 -38 10 13 19 14 60 3 l49 -12 -44 -32 -45 -32 -11 27
-11 27 6 -30 c3 -16 16 -66 29 -111 21 -68 24 -101 24 -226 0 -108 -3 -148
-12 -151 -7 -2 -4 -2 7 1 35 10 285 9 285 0 0 -5 5 -6 10 -3 6 3 13 -1 16 -9
3 -9 11 -16 18 -16 12 0 132 -60 183 -91 18 -11 33 -17 33 -12 0 19 -150 103
-184 103 -11 0 -16 3 -13 7 10 10 -50 43 -78 43 -16 0 -25 6 -25 15 0 27 56
17 162 -30 111 -48 198 -116 253 -195 l29 -41 -30 -55 c-16 -29 -31 -54 -34
-54 -3 0 -14 -16 -24 -35 -11 -19 -23 -35 -28 -35 -13 0 -9 28 6 37 7 4 17 19
20 33 7 25 7 25 -11 -3 -11 -15 -23 -24 -28 -20 -4 5 -5 -16 -1 -45 4 -30 1
-89 -5 -133 -12 -76 -14 -81 -41 -86 -18 -3 -47 -27 -80 -65 -36 -42 -71 -69
-119 -94 -38 -18 -73 -43 -79 -54 -11 -20 -10 -20 1640 -20 l1650 0 0 519 0
518 -47 14 c-64 17 -145 57 -163 79 -8 10 -31 27 -51 37 -48 25 -187 135 -188
149 -1 6 39 16 92 22 81 11 102 10 177 -6 47 -11 92 -22 101 -26 10 -4 22 -2
30 7 7 8 21 12 31 9 17 -4 18 34 18 796 l0 800 -35 38 c-20 22 -44 48 -53 59
-10 11 -26 27 -35 35 -39 37 -87 94 -87 105 0 7 -10 20 -21 31 -12 10 -32 35
-44 54 -12 20 -48 60 -79 90 -32 30 -81 79 -109 109 -29 29 -70 62 -92 73 -22
11 -73 52 -112 92 -83 81 -138 128 -171 145 -16 9 -21 18 -17 32 5 14 2 17 -9
13 -8 -3 -17 -11 -19 -18 -3 -6 -28 -18 -56 -26 -58 -15 -58 -17 -35 -102 9
-32 15 -60 13 -63 -3 -2 -34 -7 -69 -11 -56 -5 -73 -3 -122 19 l-58 26 16 48
c29 89 32 101 23 114 -5 8 -8 43 -8 79 1 75 -9 142 -24 152 -7 4 -1 33 16 80
25 66 27 86 27 212 0 152 -26 323 -62 408 -19 45 -19 47 -2 75 14 20 15 25 3
16 -8 -6 -19 -9 -24 -5 -16 11 -46 82 -40 93 4 5 0 9 -7 9 -15 0 -58 62 -58
83 0 8 -11 26 -25 41 -15 16 -22 33 -19 44 5 14 4 15 -5 2 -11 -15 -15 -8 -12
22 1 9 -3 19 -8 23 -7 4 -8 -1 -4 -12 5 -14 1 -13 -20 6 -28 25 -38 53 -12 31
9 -7 15 -8 15 -2 0 13 -26 23 -45 16 -8 -4 -15 -1 -15 5 0 6 -7 11 -15 11 -8
0 -15 4 -15 10 0 5 7 6 17 3 11 -4 14 -3 9 5 -4 7 -17 10 -32 6 -27 -7 -30 2
-9 30 19 25 11 36 -25 36 -15 0 -30 7 -34 15 -6 17 -36 21 -36 5 0 -5 6 -10
14 -10 16 0 41 -28 33 -36 -3 -4 -13 1 -22 10 -18 18 -30 21 -20 6 3 -5 -3
-10 -14 -10 -11 0 -23 5 -26 10 -4 6 -9 8 -13 6 -4 -2 -32 2 -62 9 -30 7 -46
14 -35 14 11 1 27 6 35 12 11 8 4 9 -28 6 -38 -5 -41 -4 -25 8 22 16 17 22
-26 30 -25 4 -37 1 -46 -11 -9 -13 -14 -14 -20 -4 -6 9 -4 11 6 5 8 -5 -1 6
-19 25 -53 53 -67 79 -52 93 9 9 11 9 6 0 -3 -6 9 -26 26 -44 31 -31 59 -46
57 -31 -3 18 4 19 48 6 62 -19 113 -18 113 1 0 8 9 15 20 15 17 0 20 7 20 40
0 33 3 40 19 40 12 0 21 -8 23 -21 2 -12 11 -27 21 -33 14 -9 22 -6 42 18 13
16 22 33 19 37 -10 17 7 31 22 18 10 -8 14 -8 14 -1 0 6 -9 16 -21 22 -27 15
-19 34 15 37 14 1 24 -2 21 -7 -3 -4 -2 -10 2 -13 10 -5 -12 1 -32 9 -8 3 -15
1 -15 -5 0 -6 9 -11 19 -11 11 0 21 -6 24 -12 3 -10 7 -10 20 0 14 12 15 16 2
29 -8 8 -15 23 -15 34 0 10 -4 19 -10 19 -5 0 -10 9 -10 20 0 16 -7 20 -30 20
-30 0 -41 -14 -17 -23 8 -3 5 -11 -10 -24 -13 -11 -23 -28 -23 -37 0 -9 -8
-16 -20 -16 -16 0 -20 7 -20 34 0 30 3 33 21 29 17 -5 20 -2 17 13 -2 12 -11
18 -23 17 -17 -2 -17 -1 3 9 30 15 32 78 2 78 -11 0 -20 5 -20 10 0 6 9 10 20
10 11 0 20 -4 20 -10 0 -5 13 -10 28 -10 35 0 65 29 52 50 -5 8 -11 38 -12 65
l-1 50 -4 -42 c-4 -44 -18 -57 -26 -25 -4 16 -5 16 -6 0 0 -10 -8 -18 -16 -18
-12 0 -15 15 -15 79 0 72 2 79 22 84 23 6 50 -4 49 -19 -2 -24 12 -45 27 -39
8 3 18 1 21 -4 9 -14 61 -1 61 16 0 20 25 43 46 43 14 0 16 7 10 51 -7 48 -6
50 16 47 13 -2 26 -7 29 -11 3 -4 19 -1 35 8 16 8 37 12 46 9 10 -3 26 -1 35
5 16 9 16 10 1 11 -9 0 -19 6 -22 13 -5 10 -7 10 -12 0 -8 -19 -28 -16 -42 7
-11 19 -10 20 33 20 l45 0 0 40 c0 22 -4 40 -10 40 -5 0 -10 -4 -10 -10 0 -5
-9 -10 -20 -10 -11 0 -20 -4 -20 -10 0 -5 -8 -10 -18 -10 -10 0 -24 -9 -32
-20 -8 -11 -25 -20 -37 -20 -13 0 -22 -5 -20 -12 1 -8 -6 -12 -17 -10 -17 3
-18 -1 -13 -37 4 -36 3 -39 -10 -25 -10 9 -14 27 -11 49 l4 35 -43 0 -43 0 0
80 c0 44 -4 80 -9 80 -4 0 -11 30 -15 68 -4 37 -9 82 -12 100 -5 28 -3 32 15
32 18 0 21 6 21 40 0 22 5 40 10 40 6 0 10 13 10 29 0 40 35 49 68 16 13 -14
22 -31 19 -39 -10 -25 16 -34 101 -34 71 0 84 3 93 19 5 11 8 23 6 27 -2 4 -1
30 3 57 l7 50 2 -42 c0 -24 6 -43 11 -43 6 0 10 7 10 15 0 11 11 15 40 15 29
0 40 -4 40 -15 0 -8 9 -15 20 -15 17 0 20 7 20 39 0 22 -5 41 -12 43 -6 2 3
10 20 17 38 16 47 61 12 61 -17 0 -20 7 -20 45 0 29 5 45 13 46 6 1 40 1 74 1
52 -1 65 3 73 18 5 10 7 26 4 34 -6 15 -289 16 -3026 16 l-3020 0 4 -37z
m2019 -13 c10 -6 19 -16 19 -23 0 -7 9 -20 20 -30 22 -19 26 -37 8 -37 -6 0
-3 -7 8 -15 10 -8 14 -15 8 -15 -6 0 -16 -11 -22 -24 -14 -32 -91 -52 -130
-34 -37 18 -50 88 -25 138 10 19 22 38 28 42 15 11 63 10 86 -2z m3262 -830
c5 0 5 -4 2 -10 -3 -5 -1 -10 4 -10 6 0 11 -9 11 -20 0 -11 -4 -20 -10 -20 -5
0 -10 5 -10 10 0 11 -40 14 -41 3 -5 -45 -2 -136 4 -140 15 -9 -5 -23 -34 -23
l-29 0 0 65 c0 36 -3 65 -8 65 -11 0 -34 59 -29 75 7 17 41 22 92 13 22 -4 44
-7 48 -8z m-2793 -100 c0 -5 -5 -10 -11 -10 -5 0 -7 5 -4 10 3 6 8 10 11 10 2
0 4 -4 4 -10z m-45 -40 c-10 -11 -23 -20 -28 -20 -13 0 24 39 37 39 5 1 1 -8
-9 -19z m-1415 -30 c0 -5 -2 -10 -4 -10 -3 0 -8 5 -11 10 -3 6 -1 10 4 10 6 0
11 -4 11 -10z m1346 -26 c-30 -21 -44 -16 -17 7 13 11 27 17 30 13 3 -3 -3
-12 -13 -20z m2181 10 c-3 -3 -12 -4 -19 -1 -8 3 -5 6 6 6 11 1 17 -2 13 -5z
m405 -246 c-9 -9 -12 -7 -12 12 0 19 3 21 12 12 9 -9 9 -15 0 -24z m48 -8 c0
-22 -5 -40 -11 -40 -6 0 -3 -7 6 -17 14 -14 18 -14 26 -2 5 8 9 20 9 27 0 6 5
12 10 12 6 0 10 -18 10 -39 0 -22 4 -51 9 -64 8 -20 7 -25 -6 -23 -9 2 -22 11
-29 21 -20 27 -29 11 -10 -17 20 -28 21 -44 1 -24 -8 8 -15 19 -15 24 0 6 -6
13 -12 16 -10 5 -10 7 0 12 14 7 16 34 2 34 -5 0 -10 -4 -10 -10 0 -19 -19
-10 -26 13 -7 21 -7 21 -15 2 -6 -16 -8 -17 -8 -3 -1 9 4 29 10 45 10 26 12
27 19 8 7 -15 9 -10 9 23 1 30 5 42 16 42 11 0 15 -11 15 -40z m-3810 -99 c0
-6 -5 -13 -12 -17 -7 -5 -8 -3 -3 6 6 10 4 12 -9 7 -10 -4 -15 -3 -11 3 8 13
35 13 35 1z m3720 -13 c0 -17 -2 -18 -15 -4 -8 8 -15 16 -15 19 0 2 7 4 15 4
8 0 15 -9 15 -19z m205 -8 c3 -6 -1 -7 -9 -4 -10 4 -16 1 -16 -9 0 -8 6 -18
13 -20 9 -4 9 -6 0 -6 -16 -1 -26 17 -19 34 6 17 22 20 31 5z m-3961 -15 c-4
-8 -10 -15 -15 -15 -5 0 -9 7 -9 15 0 8 7 15 15 15 9 0 12 -6 9 -15z m3926
-35 c0 -5 7 -7 15 -4 9 4 15 0 15 -9 0 -9 -8 -15 -19 -14 -11 0 -17 5 -15 9 3
5 -5 12 -18 17 l-23 10 23 0 c12 1 22 -3 22 -9z m-68 -39 c-4 -11 -7 -10 -13
5 -12 29 -10 36 5 22 7 -7 11 -19 8 -27z m-4622 19 c0 -5 -4 -10 -10 -10 -5 0
-10 5 -10 10 0 6 5 10 10 10 6 0 10 -4 10 -10z m4670 -110 c0 -5 -7 -10 -16
-10 -8 0 -12 5 -9 10 3 6 10 10 16 10 5 0 9 -4 9 -10z m51 -38 c-7 -2 -18 1
-23 6 -8 8 -4 9 13 5 13 -4 18 -8 10 -11z m235 -27 c-3 -9 -10 -13 -16 -10 -6
4 -5 11 3 20 15 16 22 11 13 -10z m-332 -67 c-3 -13 -11 -24 -15 -26 -5 -2 -9
-11 -9 -20 0 -9 -7 -26 -15 -36 -8 -11 -15 -34 -15 -52 0 -18 -5 -36 -10 -39
-6 -4 -10 -12 -9 -18 4 -20 -13 -91 -24 -105 -18 -22 -1 -354 23 -445 27 -102
98 -261 143 -320 71 -93 133 -159 162 -173 38 -18 70 -42 64 -48 -2 -2 -28 7
-57 22 -56 27 -153 122 -197 192 -14 22 -30 40 -35 40 -6 0 -10 7 -10 15 0 8
-5 15 -11 15 -5 0 -8 4 -4 10 3 5 -3 18 -15 30 -11 11 -20 28 -20 38 0 11 -9
27 -20 37 -11 10 -20 28 -20 39 0 12 -7 30 -15 40 -8 11 -15 40 -15 64 0 24
-5 52 -10 63 -16 29 -25 130 -24 264 2 160 9 209 39 269 14 27 25 56 25 63 0
7 5 13 10 13 6 0 10 8 10 19 0 17 55 71 73 71 4 0 5 -10 1 -22z m-4199 -168
c-3 -5 -12 -10 -18 -10 -7 0 -6 4 3 10 19 12 23 12 15 0z m4582 -22 c19 -14
45 -48 63 -83 30 -60 30 -60 21 -154 -6 -52 -15 -99 -20 -104 -9 -9 -38 17
-106 98 -5 7 -31 26 -56 43 -70 47 -96 96 -84 159 l6 36 50 -6 c44 -5 49 -4
49 13 0 27 35 26 77 -2z m-4527 -18 c8 -5 11 -10 5 -10 -5 0 -17 5 -25 10 -8
5 -10 10 -5 10 6 0 17 -5 25 -10z m30 -54 c0 -8 6 -19 14 -26 8 -6 12 -18 9
-27 -5 -12 -7 -12 -14 -1 -8 13 -12 14 -49 17 -11 0 -20 6 -20 12 0 7 7 8 18
4 27 -11 30 -11 29 0 -1 6 -5 9 -9 8 -10 -4 -11 21 -2 30 9 9 24 -2 24 -17z
m0 -62 c0 -8 -19 -13 -24 -6 -3 5 1 9 9 9 8 0 15 -2 15 -3z m4655 -10 c22 -9
58 -83 88 -184 35 -116 43 -176 27 -206 -13 -23 -15 -23 -32 -7 -10 9 -18 22
-18 28 0 11 -32 41 -108 102 -27 22 -29 50 -7 123 9 30 16 73 16 94 0 54 5 61
34 50z m-3914 -31 c-12 -20 -14 -14 -5 12 4 9 9 14 11 11 3 -2 0 -13 -6 -23z
m-628 -65 c-9 -15 -32 -8 -26 8 4 10 -1 17 -16 21 -11 3 -19 9 -16 13 3 5 1
11 -5 15 -5 3 -10 10 -10 15 0 6 18 -7 39 -28 21 -20 37 -40 34 -44z m604 50
c-3 -8 -6 -5 -6 6 -1 11 2 17 5 13 3 -3 4 -12 1 -19z m40 -10 c-3 -8 -6 -5 -6
6 -1 11 2 17 5 13 3 -3 4 -12 1 -19z m-20 -30 c-3 -7 -5 -2 -5 12 0 14 2 19 5
13 2 -7 2 -19 0 -25z m722 -44 c-7 -17 -14 -112 -17 -229 -5 -215 -7 -224 -60
-225 -12 0 -25 -7 -28 -15 -4 -8 -11 -15 -18 -15 -18 0 -72 -47 -64 -56 5 -4
16 -1 25 8 30 25 89 56 120 62 26 6 31 4 37 -16 3 -13 6 -31 6 -41 0 -30 68
-167 105 -213 l35 -43 -32 10 c-48 13 -137 10 -183 -6 l-40 -15 -42 44 c-47
49 -51 44 -27 -26 l15 -46 -57 -56 c-50 -48 -63 -56 -97 -56 -21 0 -48 5 -59
11 -18 10 -20 17 -14 62 29 222 203 689 272 730 8 4 14 15 14 22 0 8 4 15 8
15 5 0 13 10 19 23 10 22 85 107 91 102 1 -1 -3 -15 -9 -31z m2951 -9 c37 -19
150 -103 150 -111 0 -3 -14 -48 -31 -101 -38 -115 -86 -178 -128 -168 -14 3
-41 22 -60 43 -31 35 -33 40 -28 95 4 49 2 59 -14 67 -23 13 -49 61 -49 92 0
46 20 95 42 105 26 11 69 4 118 -22z m-4100 -116 c0 -11 -4 -18 -10 -14 -5 3
-7 12 -3 20 7 21 13 19 13 -6z m41 -27 c-6 -2 -8 -9 -5 -16 3 -7 -2 -13 -10
-13 -8 0 -13 4 -10 9 3 4 1 8 -5 8 -5 0 -13 -5 -16 -10 -7 -12 -25 -4 -25 12
0 5 7 8 14 5 9 -4 17 2 21 13 5 17 9 18 26 7 10 -6 15 -13 10 -15z m4274 -29
c61 -76 105 -159 105 -199 0 -32 -19 -116 -30 -133 -7 -12 -14 -13 -33 -4 -22
10 -28 9 -43 -13 -25 -33 -66 -32 -93 2 -27 35 -26 73 4 179 14 49 28 109 31
134 10 85 15 88 59 34z m-4345 -7 c0 -11 -19 -15 -25 -6 -3 5 1 10 9 10 9 0
16 -2 16 -4z m3788 -395 c11 -7 10 -9 -3 -14 -9 -4 -14 -3 -10 2 3 5 -1 12 -7
14 -7 3 -8 6 -3 6 6 0 16 -3 23 -8z m-2974 -390 c19 -20 27 -36 23 -48 -3 -10
-22 -61 -41 -113 l-35 -95 0 81 c-1 95 9 204 19 204 3 0 19 -13 34 -29z m256
-152 c0 -25 -35 -59 -60 -59 -44 0 -37 72 7 88 32 11 53 -1 53 -29z m3365
-109 c-3 -6 -1 -10 4 -10 6 0 11 -9 11 -20 0 -22 -16 -28 -18 -7 -1 6 -4 28
-7 47 -5 28 -4 32 5 17 6 -9 8 -22 5 -27z m-89 -29 c-2 -9 -8 -35 -11 -58 -4
-27 -12 -43 -21 -43 -8 0 -14 7 -14 16 0 8 4 12 10 9 6 -3 7 1 4 9 -3 9 -3 24
1 34 5 9 7 27 6 39 -2 17 2 21 14 17 8 -4 14 -14 11 -23z m-3924 -428 c31 -32
33 -32 40 -13 4 11 8 36 10 55 3 42 12 45 27 7 10 -23 9 -37 -3 -68 -8 -21
-27 -81 -42 -131 l-27 -93 -121 6 c-67 3 -170 12 -231 21 -60 8 -129 17 -153
20 -38 5 -45 10 -63 45 -11 21 -18 47 -14 56 3 9 53 40 111 67 58 28 169 85
247 127 l142 77 22 -71 c15 -47 34 -83 55 -105z m2753 48 c-3 -6 -11 -11 -17
-11 -6 0 -6 6 2 15 14 17 26 13 15 -4z m-36 -15 c-11 -9 -69 -15 -64 -6 3 6
20 10 37 10 17 0 29 -2 27 -4z m-2457 -151 c47 -17 47 -17 92 9 24 14 47 26
50 26 3 0 -3 -17 -14 -37 -11 -21 -20 -43 -20 -50 0 -18 -55 -154 -101 -251
-21 -46 -39 -85 -39 -87 0 -6 -67 -153 -80 -177 -37 -67 -110 -224 -110 -236
0 -7 -3 -12 -7 -12 -5 0 -19 -27 -33 -60 -14 -33 -28 -60 -32 -60 -5 0 -8 -9
-8 -20 0 -11 -9 -29 -20 -40 -11 -11 -17 -20 -14 -20 3 0 -3 -12 -14 -27 -10
-16 -22 -35 -25 -43 -3 -9 -6 -3 -6 13 -1 15 4 27 9 27 6 0 10 7 10 15 0 12
-4 11 -20 -5 -23 -23 -37 -25 -42 -8 -10 29 -47 -133 -51 -222 -4 -104 -1
-131 15 -109 7 10 8 6 5 -13 -2 -16 0 -28 7 -29 6 0 -2 -5 -18 -10 -17 -4 -35
-5 -40 0 -6 5 -33 8 -61 7 -50 -1 -50 -1 -48 -33 2 -38 -13 -43 -27 -10 -18
41 -27 190 -18 297 8 102 31 184 89 315 59 135 104 235 159 350 112 237 166
359 189 435 13 41 29 89 36 105 7 17 16 45 20 63 l7 33 56 -59 c39 -41 72 -66
104 -77z m179 -29 l16 -34 -31 -5 c-17 -3 -33 -3 -34 -1 -6 5 19 74 27 74 4 0
14 -15 22 -34z m2324 -104 l13 -53 -46 -48 c-26 -27 -54 -59 -63 -72 l-16 -23
-60 37 c-62 38 -95 67 -75 67 6 0 27 14 45 30 19 17 37 30 40 30 3 0 36 29 74
65 61 59 68 63 71 43 2 -13 9 -47 17 -76z m21 -144 c-2 -29 -7 -78 -11 -109
-6 -43 -4 -64 8 -85 8 -16 22 -45 32 -64 l16 -35 -7 35 c-3 19 -13 50 -20 69
-18 43 -18 135 -1 149 11 9 16 1 27 -41 25 -101 52 -173 87 -232 41 -70 61
-124 38 -105 -8 7 -17 20 -20 31 -5 15 -12 17 -38 12 -18 -3 -36 -10 -42 -14
-15 -14 -35 -10 -35 6 0 8 -4 15 -10 15 -5 0 -10 -9 -10 -19 0 -17 -6 -18 -42
-14 -24 2 -60 12 -81 20 -30 13 -39 24 -49 57 -14 51 -13 189 1 194 6 2 11 8
11 14 0 11 81 118 104 137 11 9 16 10 16 2 0 -6 5 -11 11 -11 6 0 9 6 6 14 -5
13 0 26 10 26 2 0 2 -24 -1 -52z m-2188 17 c6 -14 17 -25 24 -25 7 0 34 -20
60 -43 l47 -42 3 -157 c3 -136 1 -157 -12 -155 -8 1 -19 5 -25 10 -5 4 -26 18
-45 31 -19 12 -34 29 -32 36 1 6 -6 28 -18 47 -11 19 -20 41 -20 49 0 9 -5 25
-12 37 -11 21 -11 21 -18 2 -5 -13 0 -33 12 -56 11 -20 19 -42 16 -49 -5 -17
-61 31 -89 78 -13 20 -26 39 -30 42 -6 4 7 162 14 165 1 1 19 11 40 23 21 12
35 18 32 12 -3 -5 -2 -10 3 -10 6 0 12 7 16 15 8 22 21 18 34 -10z m1932 -5
c8 -11 20 -20 27 -20 7 0 13 -3 13 -7 0 -5 14 -17 30 -28 16 -11 30 -25 30
-31 0 -16 -27 -37 -34 -26 -2 4 -49 9 -103 9 l-98 1 76 -7 c43 -4 83 -12 90
-18 8 -6 19 -12 24 -12 6 -1 10 -8 9 -16 0 -8 -1 -32 -2 -53 l-2 -38 -62 -11
c-35 -6 -106 -22 -158 -37 -181 -51 -227 -58 -266 -40 -39 19 -38 15 -23 63
10 30 21 41 68 64 31 15 62 27 70 27 8 0 11 6 7 15 -7 19 19 30 96 39 32 4 60
11 62 15 3 4 -8 5 -25 3 -33 -5 -41 17 -9 25 11 3 20 9 20 13 0 4 18 15 39 25
22 10 50 28 62 41 27 29 40 30 59 4z m-203 -116 c-3 -3 -12 -4 -19 -1 -8 3 -5
6 6 6 11 1 17 -2 13 -5z m-1543 -29 c8 -9 17 -15 18 -15 2 1 23 -8 48 -19 25
-11 51 -21 58 -21 7 0 25 -8 40 -17 30 -20 93 -83 83 -84 -3 0 5 -4 17 -10 22
-8 23 -13 17 -62 -4 -28 -10 -55 -14 -58 -3 -3 -38 -23 -77 -44 l-71 -39 -64
27 c-40 16 -63 31 -61 39 13 47 12 163 -2 233 l-15 80 5 -130 c7 -165 -12
-150 -22 18 -6 103 -5 117 9 117 8 0 22 -7 31 -15z m266 -105 c0 -5 9 -10 21
-10 11 0 17 -4 14 -10 -3 -5 0 -7 9 -4 8 3 33 -5 56 -19 l40 -24 -47 -1 c-40
0 -53 5 -84 33 -21 18 -35 36 -31 39 9 9 22 7 22 -4z m1094 -116 c8 -3 13 -11
10 -19 -3 -7 4 -15 15 -18 14 -3 19 -1 14 6 -4 7 0 8 13 3 10 -5 31 -13 47
-18 43 -16 32 -28 -28 -28 -49 0 -55 -2 -55 -21 0 -11 -4 -17 -10 -14 -5 3
-10 13 -10 22 0 9 -6 21 -14 27 -7 6 -16 23 -20 39 -7 28 4 34 38 21z m-1387
-71 c-3 -10 -5 -4 -5 12 0 17 2 24 5 18 2 -7 2 -21 0 -30z m1577 -46 c17 -18
42 -46 55 -62 13 -17 35 -42 49 -58 18 -19 23 -30 15 -38 -7 -7 -14 -2 -21 19
-9 27 -16 31 -67 37 -31 4 -58 5 -62 2 -3 -3 18 -9 46 -13 73 -9 53 -27 -23
-19 -55 6 -64 10 -98 48 -44 49 -62 44 -23 -6 33 -44 34 -43 -133 -52 l-124
-7 11 21 c7 11 15 21 20 21 8 0 46 37 101 100 l31 35 30 -35 c23 -28 32 -32
39 -21 6 11 17 6 47 -27 22 -23 45 -42 52 -42 8 0 -7 22 -33 50 -25 27 -46 54
-46 59 0 5 19 12 43 14 23 2 46 4 51 5 4 1 22 -13 40 -31z m1356 -123 c0 -22
-2 -25 -15 -14 -8 7 -15 19 -15 26 0 8 7 14 15 14 10 0 15 -10 15 -26z m-1267
-43 c9 -7 14 -18 11 -25 -6 -17 -54 -39 -54 -26 0 6 -5 10 -11 10 -7 0 -9 -9
-5 -24 4 -16 0 -29 -14 -41 -19 -17 -20 -16 -45 36 -40 86 -37 92 39 87 35 -2
71 -10 79 -17z m-185 -75 c13 -27 26 -62 29 -78 6 -29 5 -30 -23 -25 -16 3
-71 9 -122 13 -88 6 -94 8 -103 32 -6 14 -9 42 -7 61 3 34 5 36 48 42 25 4 70
6 100 5 l55 -1 23 -49z m-1379 -166 c0 -9 -4 -8 -9 5 -5 11 -9 27 -9 35 0 9 4
8 9 -5 5 -11 9 -27 9 -35z m1331 -15 c0 -20 -81 -88 -92 -77 -5 5 -24 6 -41 3
-23 -5 -33 -13 -35 -29 -4 -27 18 -30 25 -3 3 13 11 17 24 14 17 -5 9 -16 -48
-70 -71 -68 -106 -93 -98 -71 2 7 14 66 26 131 l22 118 109 -2 c80 -1 108 -4
108 -14z m-1357 -20 c-3 -9 -8 -14 -10 -11 -3 3 -2 9 2 15 9 16 15 13 8 -4z
m-526 -52 c-3 -10 -5 -4 -5 12 0 17 2 24 5 18 2 -7 2 -21 0 -30z m-480 5 c-3
-8 -6 -5 -6 6 -1 11 2 17 5 13 3 -3 4 -12 1 -19z m3819 13 c-7 -11 -56 -21
-56 -10 0 4 8 10 18 12 30 8 43 7 38 -2z m-3756 -10 c0 -6 -4 -13 -10 -16 -5
-3 -10 1 -10 9 0 9 5 16 10 16 6 0 10 -4 10 -9z m3639 -42 c-13 -26 -19 -24
-17 5 1 15 7 22 15 19 9 -4 10 -10 2 -24z m-3202 -46 c-3 -10 -5 -4 -5 12 0
17 2 24 5 18 2 -7 2 -21 0 -30z m-130 -100 c-3 -3 -11 -2 -17 2 -9 6 -9 10 1
16 14 8 27 -7 16 -18z m-593 -32 c5 -35 9 -39 41 -45 35 -7 58 -4 100 13 60
25 164 42 213 35 42 -5 56 -3 71 10 16 15 111 35 111 24 0 -3 -24 -20 -52 -38
-29 -19 -64 -44 -77 -56 -25 -23 -223 -104 -253 -104 -23 0 -34 20 -17 31 9 6
4 7 -16 4 -126 -21 -186 -24 -272 -13 l-92 11 17 29 c41 70 136 138 193 138
23 0 27 -5 33 -39z m-613 -432 c14 -7 20 -19 19 -37 -5 -78 0 -112 18 -112 16
-1 16 -1 -1 -11 -14 -8 -25 -2 -60 35 -24 26 -48 46 -55 46 -6 0 -18 -13 -27
-30 -9 -16 -17 -30 -20 -30 -7 0 -65 113 -60 118 6 6 114 30 143 31 13 1 32
-4 43 -10z m1647 -614 c5 -4 -5 -118 -24 -271 -3 -23 -11 -50 -18 -60 -12 -16
-15 -11 -21 48 -7 65 0 143 15 163 4 6 5 28 2 50 -4 32 -6 36 -13 20 -7 -19
-8 -18 -8 3 -1 37 16 61 40 57 12 -3 24 -7 27 -10z"/>
<path d="M4970 5526 c0 -9 5 -16 10 -16 6 0 10 4 10 9 0 6 -4 13 -10 16 -5 3
-10 -1 -10 -9z"/>
<path d="M2139 4123 c-13 -16 -12 -17 4 -4 9 7 17 15 17 17 0 8 -8 3 -21 -13z"/>
<path d="M1566 2195 c-9 -26 -7 -32 5 -12 6 10 9 21 6 23 -2 3 -7 -2 -11 -11z"/>
<path d="M1540 2128 c-7 -18 -16 -42 -20 -53 -5 -11 -11 -36 -14 -55 -5 -35
-5 -35 9 -10 8 14 14 34 15 46 0 11 4 24 9 30 10 10 25 74 18 74 -3 0 -10 -15
-17 -32z"/>
<path d="M1470 1931 c0 -11 -4 -23 -10 -26 -12 -7 -14 -35 -2 -35 8 0 32 49
32 67 0 7 -4 13 -10 13 -5 0 -10 -9 -10 -19z"/>
<path d="M1508 1919 c-9 -16 -14 -29 -9 -29 8 0 34 50 29 56 -2 1 -11 -11 -20
-27z"/>
<path d="M4358 2494 c-18 -18 -6 -82 30 -153 20 -42 38 -78 40 -80 1 -3 8 1
15 9 9 10 9 11 0 6 -8 -4 -13 -2 -13 6 0 8 -12 38 -26 67 -15 28 -29 75 -33
102 -3 28 -9 47 -13 43z"/>
<path d="M2186 2574 c-4 -10 -1 -14 6 -12 15 5 23 28 10 28 -5 0 -13 -7 -16
-16z"/>
<path d="M2124 2545 c-3 -8 -4 -20 -2 -27 3 -7 7 -1 10 15 6 29 1 36 -8 12z"/>
<path d="M2160 2534 c0 -8 5 -12 10 -9 6 4 8 11 5 16 -9 14 -15 11 -15 -7z"/>
<path d="M2138 2448 c3 -31 7 -37 13 -25 10 17 2 67 -10 67 -4 0 -5 -19 -3
-42z"/>
<path d="M2640 2291 c0 -6 4 -13 10 -16 6 -3 7 1 4 9 -7 18 -14 21 -14 7z"/>
<path d="M3690 2056 c0 -17 24 -28 45 -20 17 7 21 34 5 34 -5 0 -10 -7 -10
-15 0 -8 -4 -15 -10 -15 -5 0 -10 7 -10 15 0 8 -4 15 -10 15 -5 0 -10 -6 -10
-14z"/>
<path d="M590 901 c0 -6 4 -13 10 -16 6 -3 7 1 4 9 -7 18 -14 21 -14 7z"/>
<path d="M110 6760 c0 -5 5 -10 11 -10 5 0 7 5 4 10 -3 6 -8 10 -11 10 -2 0
-4 -4 -4 -10z"/>
<path d="M6000 6550 c0 -33 3 -40 20 -40 17 0 20 7 20 40 0 33 -3 40 -20 40
-17 0 -20 -7 -20 -40z"/>
<path d="M5540 5880 c0 -5 5 -10 10 -10 6 0 10 5 10 10 0 6 -4 10 -10 10 -5 0
-10 -4 -10 -10z"/>
<path d="M5520 5630 c0 -5 -12 -11 -27 -11 -24 -2 -25 -2 -6 -6 13 -2 33 3 45
11 18 13 19 16 5 16 -9 0 -17 -4 -17 -10z"/>
<path d="M5593 5633 c16 -10 5 -20 -17 -16 -13 3 -27 0 -30 -6 -5 -7 12 -10
52 -8 39 1 59 6 59 15 0 6 -10 12 -23 12 -12 0 -28 2 -36 3 -7 2 -10 2 -5 0z"/>
<path d="M5498 5593 c6 -2 18 -2 25 0 6 3 1 5 -13 5 -14 0 -19 -2 -12 -5z"/>
<path d="M5545 5580 c-3 -5 -23 -10 -43 -11 -28 0 -32 -2 -18 -8 23 -9 66 -2
66 10 0 5 48 10 108 12 l107 3 -107 2 c-63 1 -109 -2 -113 -8z"/>
<path d="M240 5571 c0 -6 4 -13 10 -16 6 -3 7 1 4 9 -7 18 -14 21 -14 7z"/>
<path d="M5790 5570 c0 -6 7 -10 15 -10 8 0 15 2 15 4 0 2 -7 6 -15 10 -8 3
-15 1 -15 -4z"/>
<path d="M5910 5520 c0 -5 5 -10 11 -10 5 0 7 5 4 10 -3 6 -8 10 -11 10 -2 0
-4 -4 -4 -10z"/>
<path d="M5536 5509 c-47 -7 -87 -29 -55 -29 12 0 12 -2 -1 -10 -10 -7 -11
-10 -2 -10 7 0 15 7 19 16 3 9 9 11 12 6 12 -18 48 -23 61 -7 11 13 8 14 -21
10 -34 -6 -33 -6 5 9 40 15 109 8 161 -16 11 -5 31 -10 45 -12 14 -1 34 -6 45
-10 73 -27 99 -35 103 -31 5 4 -65 35 -80 35 -5 0 -19 7 -32 15 -31 21 -129
45 -174 44 -20 -1 -59 -5 -86 -10z"/>
<path d="M6640 5495 c0 -18 -4 -23 -16 -18 -41 16 -48 -95 -9 -154 33 -51 76
-93 96 -93 21 0 36 119 19 151 -6 11 -12 35 -13 52 -4 62 -77 121 -77 62z"/>
<path d="M5965 5484 c9 -9 19 -13 23 -10 3 4 0 11 -8 16 -24 15 -33 11 -15 -6z"/>
<path d="M5415 5460 c-3 -5 -1 -10 4 -10 6 0 11 5 11 10 0 6 -2 10 -4 10 -3 0
-8 -4 -11 -10z"/>
<path d="M6006 5462 c-3 -5 1 -15 9 -22 16 -14 20 -3 6 19 -5 8 -11 9 -15 3z"/>
<path d="M5346 5401 c-3 -5 6 -8 19 -8 14 0 25 3 25 8 0 5 -9 9 -19 9 -11 0
-22 -4 -25 -9z"/>
<path d="M5407 5394 c-16 -16 -6 -42 17 -46 21 -4 23 -2 17 20 -7 27 -22 38
-34 26z"/>
<path d="M5975 5366 c22 -20 45 -36 50 -36 12 0 -41 46 -70 61 -11 5 -2 -6 20
-25z"/>
<path d="M6100 5366 c0 -2 7 -6 15 -10 8 -3 15 -1 15 4 0 6 -7 10 -15 10 -8 0
-15 -2 -15 -4z"/>
<path d="M6137 5344 c-3 -3 10 -20 28 -37 18 -18 36 -43 40 -57 4 -14 11 -27
15 -30 17 -12 70 -132 71 -162 l1 -33 9 34 c9 30 6 41 -40 118 -28 46 -51 87
-51 90 0 10 -68 81 -73 77z"/>
<path d="M5268 5303 c7 -3 16 -2 19 1 4 3 -2 6 -13 5 -11 0 -14 -3 -6 -6z"/>
<path d="M5340 5290 c0 -5 5 -10 10 -10 6 0 10 5 10 10 0 6 -4 10 -10 10 -5 0
-10 -4 -10 -10z"/>
<path d="M5180 5276 c0 -2 7 -7 16 -10 8 -3 12 -2 9 4 -6 10 -25 14 -25 6z"/>
<path d="M6046 5268 c3 -5 10 -6 15 -3 13 9 11 12 -6 12 -8 0 -12 -4 -9 -9z"/>
<path d="M6100 5260 c0 -5 5 -10 11 -10 5 0 7 5 4 10 -3 6 -8 10 -11 10 -2 0
-4 -4 -4 -10z"/>
<path d="M5386 5222 c-3 -4 8 -13 25 -19 16 -6 27 -7 24 -2 -10 15 -43 30 -49
21z"/>
<path d="M5450 5180 c0 -5 5 -10 10 -10 6 0 10 5 10 10 0 6 -4 10 -10 10 -5 0
-10 -4 -10 -10z"/>
<path d="M6290 5004 c0 -8 5 -12 10 -9 6 3 10 10 10 16 0 5 -4 9 -10 9 -5 0
-10 -7 -10 -16z"/>
<path d="M6351 4978 c0 -7 4 -22 9 -33 8 -18 9 -17 9 7 1 15 -3 30 -9 33 -5 3
-10 0 -9 -7z"/>
<path d="M5990 4930 c-9 -6 -10 -10 -3 -10 6 0 15 5 18 10 8 12 4 12 -15 0z"/>
<path d="M6372 4900 c0 -14 2 -19 5 -12 2 6 2 18 0 25 -3 6 -5 1 -5 -13z"/>
<path d="M5918 4903 c7 -3 16 -2 19 1 4 3 -2 6 -13 5 -11 0 -14 -3 -6 -6z"/>
<path d="M5789 4873 c-11 -12 -8 -13 17 -7 37 9 39 10 15 17 -11 3 -26 -2 -32
-10z"/>
<path d="M6381 4854 c0 -11 3 -14 6 -6 3 7 2 16 -1 19 -3 4 -6 -2 -5 -13z"/>
<path d="M5748 4853 c-9 -2 -19 -11 -22 -19 -4 -11 -1 -11 19 2 14 9 25 18 25
20 0 2 -1 3 -2 3 -2 -1 -10 -3 -20 -6z"/>
<path d="M3455 4772 c-17 -203 -97 -562 -126 -562 -5 0 -9 -12 -9 -26 0 -14
-4 -23 -9 -20 -5 3 -8 -2 -7 -12 0 -9 -4 -16 -10 -15 -7 1 -11 -5 -10 -15 0
-9 -3 -16 -9 -15 -5 1 -11 -11 -12 -25 0 -15 -12 -36 -25 -47 -12 -12 -24 -27
-26 -35 -4 -16 -43 -67 -46 -60 -2 3 -11 -2 -22 -10 -17 -13 -18 -13 -7 0 7 9
8 21 4 29 -5 7 -6 27 -2 45 3 17 4 114 2 216 l-4 185 -13 -85 c-7 -47 -18
-110 -24 -140 -6 -30 -11 -61 -12 -67 -1 -7 -5 -13 -9 -13 -5 0 -6 -7 -2 -16
4 -10 0 -20 -10 -26 -10 -5 -17 -17 -17 -26 0 -15 2 -15 10 -2 7 12 10 8 10
-15 0 -23 -3 -27 -10 -15 -7 11 -10 7 -11 -20 -1 -19 -1 -42 0 -50 0 -10 -1
-11 -5 -2 -9 20 -24 3 -24 -29 0 -16 -4 -29 -10 -29 -5 0 -10 -9 -10 -19 0
-11 5 -23 10 -26 6 -3 10 -18 10 -33 0 -20 -3 -23 -12 -14 -18 18 -27 15 -21
-7 5 -20 -23 -54 -38 -45 -6 3 -8 13 -5 21 3 8 2 12 -2 10 -8 -6 -33 19 -31
30 1 5 -8 13 -20 19 -12 6 -25 15 -29 19 -4 5 0 5 8 0 8 -4 2 4 -14 19 -16 14
-25 26 -20 27 5 1 -2 4 -16 8 -14 4 -26 12 -26 19 -1 7 -2 17 -3 23 0 5 -5 8
-10 5 -5 -3 -8 6 -8 20 0 16 -13 38 -32 57 l-31 32 0 -28 c0 -27 32 -97 57
-124 6 -7 15 -22 18 -33 3 -11 14 -20 23 -20 9 0 56 -39 104 -87 48 -48 89
-85 91 -82 9 11 61 218 88 344 l29 140 -5 -130 c-3 -81 -2 -125 4 -116 8 12
13 12 24 3 12 -10 24 0 70 60 56 73 157 255 157 283 0 27 34 85 49 85 30 -1
246 -38 286 -50 22 -6 54 -15 70 -19 27 -7 120 -48 168 -73 9 -5 17 -5 17 0 0
10 -196 105 -263 126 -52 17 -219 39 -264 34 -17 -2 -27 1 -26 9 1 6 12 53 23
105 11 51 26 152 32 223 l12 131 53 -34 c29 -19 50 -39 47 -43 -3 -5 -1 -9 5
-9 18 0 72 -53 67 -66 -3 -8 0 -11 8 -8 15 6 81 -69 158 -181 47 -68 99 -161
179 -325 36 -72 139 -459 139 -521 0 -20 -18 -3 -82 76 -74 93 -87 112 -68
100 8 -5 11 -3 8 6 -3 8 8 30 23 50 16 20 29 39 29 42 0 3 -25 -3 -55 -14
l-56 -19 -52 33 c-29 18 -70 42 -92 53 -50 24 -55 30 -55 76 0 52 -17 56 -36
9 l-16 -40 -91 1 c-92 2 -188 -19 -204 -44 -4 -8 0 -9 13 -4 44 19 94 25 174
25 l85 -1 -80 -17 c-99 -22 -149 -44 -192 -84 -46 -43 -106 -117 -100 -123 2
-3 31 7 62 21 32 14 60 23 63 21 2 -3 -5 -15 -16 -27 -12 -12 -23 -33 -26 -48
-15 -78 -17 -109 -7 -116 6 -3 11 -21 12 -38 0 -18 4 -41 9 -52 7 -16 9 -13 9
16 1 34 3 37 39 43 59 9 59 9 86 -49 19 -42 33 -59 58 -69 17 -8 37 -12 42
-11 6 2 22 6 36 9 15 3 35 21 50 46 27 43 35 46 94 29 l38 -11 -4 -59 c-4 -51
-9 -64 -39 -95 -87 -91 -212 -101 -309 -24 -48 38 -53 31 -7 -10 114 -104 288
-67 374 80 12 19 26 55 33 80 6 25 13 51 15 58 3 9 20 5 62 -13 68 -30 73 -37
66 -83 -8 -47 7 -36 53 39 42 69 60 67 40 -6 -33 -125 -96 -231 -156 -261 -27
-14 -31 -18 -17 -22 27 -6 69 7 61 19 -3 6 2 19 12 29 11 11 25 26 33 35 26
32 80 177 92 251 12 68 11 82 -15 206 -55 264 -121 449 -218 615 -137 233
-265 378 -420 476 l-26 16 -7 -77z m340 -836 c19 -8 35 -18 35 -21 0 -5 -70
21 -79 30 -8 9 10 5 44 -9z m-792 -191 c-3 -9 -8 -14 -10 -11 -3 3 -2 9 2 15
9 16 15 13 8 -4z m511 -21 c34 -33 12 -74 -39 -74 -55 0 -75 45 -33 74 29 20
52 20 72 0z m-533 -31 c13 -16 12 -17 -3 -4 -10 7 -18 15 -18 17 0 8 8 3 21
-13z"/>
<path d="M6396 4668 c-9 -35 -26 -94 -38 -131 -11 -38 -18 -71 -15 -74 3 -3
10 12 16 33 6 22 24 78 39 126 16 48 26 92 22 98 -4 6 -15 -17 -24 -52z"/>
<path d="M1570 4650 c-9 -6 -10 -10 -3 -10 6 0 15 5 18 10 8 12 4 12 -15 0z"/>
<path d="M1610 4650 c-13 -8 -12 -10 3 -10 9 0 17 5 17 10 0 12 -1 12 -20 0z"/>
<path d="M6327 4429 c-3 -14 -20 -41 -37 -60 -38 -44 -39 -57 0 -22 17 14 30
32 30 39 0 7 5 14 11 16 6 2 9 15 7 28 l-4 25 -7 -26z"/>
<path d="M6230 4309 c0 -5 5 -7 10 -4 6 3 10 8 10 11 0 2 -4 4 -10 4 -5 0 -10
-5 -10 -11z"/>
<path d="M6182 4264 c-14 -16 -5 -18 17 -5 7 5 9 11 5 14 -5 3 -15 -1 -22 -9z"/>
<path d="M2501 4224 c0 -11 3 -14 6 -6 3 7 2 16 -1 19 -3 4 -6 -2 -5 -13z"/>
<path d="M6292 4195 c0 -16 2 -22 5 -12 2 9 2 23 0 30 -3 6 -5 -1 -5 -18z"/>
<path d="M2524 4159 c2 -9 8 -38 12 -64 5 -39 4 -46 -7 -40 -12 7 -12 6 -1 -8
8 -9 13 -33 12 -54 -3 -60 -1 -75 10 -68 6 3 10 30 10 58 l0 52 69 -105 c39
-60 87 -120 112 -140 24 -19 54 -44 67 -54 l24 -19 -7 44 c-4 24 -11 49 -17
54 -6 6 -7 -3 -3 -25 l6 -34 -28 24 c-38 34 -44 43 -31 51 13 8 2 46 -17 53
-9 3 -12 0 -8 -10 3 -7 9 -14 14 -14 5 0 9 -4 9 -10 0 -5 -7 -10 -16 -10 -8 0
-13 4 -9 9 5 9 -12 26 -26 26 -4 0 -27 27 -51 60 -38 52 -59 90 -117 215 -6
14 -10 18 -7 9z"/>
<path d="M3240 4090 c0 -5 5 -10 11 -10 5 0 7 5 4 10 -3 6 -8 10 -11 10 -2 0
-4 -4 -4 -10z"/>
<path d="M2494 3992 c4 -3 14 -7 22 -8 9 -1 13 0 10 4 -4 3 -14 7 -22 8 -9 1
-13 0 -10 -4z"/>
<path d="M3163 3985 c-15 -16 -16 -25 -5 -25 4 0 13 9 20 20 14 23 3 26 -15 5z"/>
<path d="M4174 3850 c0 -58 1 -81 3 -52 2 28 2 76 0 105 -2 28 -3 5 -3 -53z"/>
<path d="M1892 3895 c0 -16 2 -22 5 -12 2 9 2 23 0 30 -3 6 -5 -1 -5 -18z"/>
<path d="M3126 3883 c-3 -10 -9 -24 -12 -32 -4 -8 4 -5 17 7 16 16 20 25 12
33 -7 7 -12 5 -17 -8z"/>
<path d="M2980 3815 c0 -8 7 -15 16 -15 14 0 14 3 4 15 -7 8 -14 15 -16 15 -2
0 -4 -7 -4 -15z"/>
<path d="M4155 3661 c-3 -5 -1 -12 5 -16 5 -3 10 1 10 9 0 18 -6 21 -15 7z"/>
<path d="M1892 3560 c0 -14 2 -19 5 -12 2 6 2 18 0 25 -3 6 -5 1 -5 -13z"/>
<path d="M4210 3314 c0 -6 -20 -18 -45 -28 -24 -10 -42 -22 -40 -26 3 -5 -4
-6 -15 -3 -18 5 -25 -5 -17 -23 1 -3 -6 -10 -16 -16 -14 -7 -22 -7 -30 2 -9 8
-8 10 6 5 9 -4 17 -3 17 2 0 19 -40 10 -55 -13 -14 -22 -14 -24 2 -25 33 -2
58 3 72 14 11 10 13 9 10 -3 -3 -8 -31 -29 -61 -45 -73 -39 -85 -51 -28 -29
73 28 152 91 191 152 12 18 19 36 15 39 -3 4 -6 2 -6 -3z"/>
<path d="M4682 3144 c-7 -8 -8 -14 -3 -14 10 0 25 19 20 25 -2 1 -10 -3 -17
-11z"/>
<path d="M3098 2998 c9 -9 15 -9 24 0 9 9 7 12 -12 12 -19 0 -21 -3 -12 -12z"/>
<path d="M2675 2979 c-9 -13 -6 -16 28 -24 23 -6 27 -4 27 14 0 16 -6 21 -24
21 -14 0 -28 -5 -31 -11z"/>
<path d="M2835 2973 c-54 -6 -75 -13 -75 -24 0 -10 119 -6 240 8 49 6 52 7 25
14 -32 7 -139 9 -190 2z"/>
<path d="M5781 2517 c2 -1 13 -9 24 -17 19 -14 19 -14 6 3 -7 9 -18 17 -24 17
-6 0 -8 -1 -6 -3z"/>
<path d="M4590 2458 c0 -13 19 -72 48 -148 3 -8 6 -28 7 -45 1 -16 14 -48 29
-70 22 -31 26 -48 22 -75 -4 -23 -2 -30 4 -20 5 8 12 11 16 7 4 -3 1 -13 -6
-22 -7 -9 -10 -18 -6 -22 3 -3 6 -1 6 5 0 18 14 14 25 -6 6 -10 24 -40 40 -66
17 -26 38 -61 48 -78 10 -17 21 -28 23 -25 3 3 -20 59 -52 124 -31 65 -67 145
-79 178 -45 118 -62 161 -93 220 -17 33 -32 53 -32 43z"/>
<path d="M2080 2310 c-8 -5 -28 -10 -45 -10 -32 0 -63 -15 -54 -25 4 -3 18 -1
33 5 15 5 38 10 51 10 12 0 25 7 29 15 6 18 6 18 -14 5z"/>
<path d="M1747 2201 c-4 -18 -7 -43 -6 -55 1 -11 5 -1 10 24 5 25 7 49 6 55
-2 5 -7 -5 -10 -24z"/>
<path d="M4671 2144 c0 -11 3 -14 6 -6 3 7 2 16 -1 19 -3 4 -6 -2 -5 -13z"/>
<path d="M1752 2085 c0 -16 2 -22 5 -12 2 9 2 23 0 30 -3 6 -5 -1 -5 -18z"/>
<path d="M5235 2090 c-3 -5 -2 -10 4 -10 5 0 13 5 16 10 3 6 2 10 -4 10 -5 0
-13 -4 -16 -10z"/>
<path d="M2355 2075 c-23 -10 -25 -13 -10 -14 11 0 31 6 45 14 32 18 5 19 -35
0z"/>
<path d="M2773 2053 c-9 -19 -10 -30 -2 -39 8 -9 8 -22 1 -41 -6 -15 -11 -22
-11 -15 -1 17 -78 6 -98 -13 -11 -11 -3 -13 42 -8 61 6 65 2 39 -48 -8 -17
-14 -33 -12 -35 4 -3 30 35 58 84 5 10 55 -34 169 -146 88 -87 161 -152 161
-144 0 8 -65 81 -145 161 -155 156 -182 191 -187 240 l-3 31 -12 -27z"/>
<path d="M2130 2049 c0 -5 5 -7 10 -4 6 3 10 8 10 11 0 2 -4 4 -10 4 -5 0 -10
-5 -10 -11z"/>
<path d="M1762 2030 c0 -14 2 -19 5 -12 2 6 2 18 0 25 -3 6 -5 1 -5 -13z"/>
<path d="M2890 1980 c0 -5 5 -10 11 -10 5 0 7 5 4 10 -3 6 -8 10 -11 10 -2 0
-4 -4 -4 -10z"/>
<path d="M3420 1938 c-19 -11 -54 -34 -77 -49 -23 -16 -44 -29 -46 -29 -3 0
-44 -22 -92 -50 -48 -27 -91 -50 -96 -50 -5 0 -9 -5 -9 -10 0 -15 31 -25 39
-13 10 16 71 45 71 34 0 -17 -24 -66 -38 -76 -11 -9 -10 -15 6 -35 11 -14 29
-43 40 -64 21 -39 21 -39 20 -10 -1 16 2 41 6 57 6 18 4 27 -3 27 -6 0 -11 -7
-11 -16 0 -9 -6 -14 -12 -11 -18 5 -11 56 11 87 16 23 26 25 100 28 93 3 103
22 11 22 -32 0 -65 3 -74 6 -15 6 -11 34 6 34 5 0 33 15 61 33 29 19 73 47 99
62 26 16 44 33 42 37 -7 11 -14 9 -54 -14z"/>
<path d="M5150 1936 c0 -2 7 -19 15 -37 14 -34 20 -23 9 19 -5 18 -24 33 -24
18z"/>
<path d="M2660 1913 c-40 -7 -46 -22 -7 -17 20 2 38 0 42 -6 5 -8 -44 -113
-89 -190 -8 -14 -17 -32 -19 -41 -3 -8 -24 -21 -48 -29 -58 -18 -71 -30 -32
-30 56 0 81 16 104 67 40 90 44 97 47 81 4 -18 -29 -98 -40 -98 -5 0 -8 -11
-8 -24 0 -34 -12 -39 -93 -41 -68 -3 -100 -16 -81 -34 5 -6 35 -5 77 3 37 7
70 10 72 5 6 -9 45 1 45 12 0 4 -4 11 -10 14 -6 3 -6 13 -1 23 5 9 15 31 22
47 7 17 18 37 25 45 6 8 17 33 24 55 7 22 19 50 27 62 11 17 11 22 1 25 -11 4
-10 10 1 30 22 42 7 53 -59 41z"/>
<path d="M3415 1844 c-16 -17 -16 -18 1 -31 11 -8 30 -13 44 -11 19 2 25 9 25
28 0 20 -6 26 -26 28 -15 2 -34 -4 -44 -14z"/>
<path d="M2806 1754 c-30 -29 -38 -54 -25 -70 25 -30 89 15 89 62 0 19 -5 24
-24 24 -14 0 -32 -7 -40 -16z m34 -28 c0 -18 -16 -29 -30 -21 -13 8 -1 35 16
35 8 0 14 -6 14 -14z"/>
<path d="M3265 1723 c-21 -21 -14 -26 19 -14 30 12 32 17 11 25 -8 3 -22 -2
-30 -11z"/>
<path d="M3393 1713 c9 -2 23 -2 30 0 6 3 -1 5 -18 5 -16 0 -22 -2 -12 -5z"/>
<path d="M3470 1695 c7 -8 16 -15 21 -15 5 0 6 7 3 15 -4 8 -13 15 -21 15 -13
0 -13 -3 -3 -15z"/>
<path d="M3052 1609 c2 -6 8 -10 13 -10 5 0 11 4 13 10 2 6 -4 11 -13 11 -9 0
-15 -5 -13 -11z"/>
<path d="M2923 1603 c9 -2 23 -2 30 0 6 3 -1 5 -18 5 -16 0 -22 -2 -12 -5z"/>
<path d="M3151 1574 c0 -11 3 -14 6 -6 3 7 2 16 -1 19 -3 4 -6 -2 -5 -13z"/>
<path d="M6298 1526 c-5 -27 -8 -67 -7 -90 l1 -41 9 33 c6 19 9 59 7 90 l-3
57 -7 -49z"/>
<path d="M2915 1553 c32 -2 65 -9 72 -15 10 -8 13 -6 13 6 0 13 -12 16 -72 14
l-73 -2 60 -3z"/>
<path d="M3010 1484 c0 -8 5 -12 10 -9 6 3 10 10 10 16 0 5 -4 9 -10 9 -5 0
-10 -7 -10 -16z"/>
<path d="M3210 1465 c0 -5 5 -17 10 -25 5 -8 10 -10 10 -5 0 6 -5 17 -10 25
-5 8 -10 11 -10 5z"/>
<path d="M2462 1440 c-16 -27 -15 -35 3 -20 8 7 22 9 31 6 12 -5 15 -2 10 10
-3 8 -6 18 -6 20 0 12 -27 1 -38 -16z"/>
<path d="M2445 1380 c-4 -6 -3 -16 3 -22 6 -6 12 -6 17 2 4 6 3 16 -3 22 -6 6
-12 6 -17 -2z"/>
<path d="M2910 1379 c0 -5 5 -7 10 -4 6 3 10 8 10 11 0 2 -4 4 -10 4 -5 0 -10
-5 -10 -11z"/>
<path d="M3240 1370 c0 -8 5 -22 10 -30 9 -13 10 -13 10 0 0 8 -5 22 -10 30
-9 13 -10 13 -10 0z"/>
<path d="M3125 1360 c3 -5 11 -10 16 -10 6 0 7 5 4 10 -3 6 -11 10 -16 10 -6
0 -7 -4 -4 -10z"/>
<path d="M3071 1322 c-1 -38 19 -51 52 -33 l22 12 -22 -5 c-24 -4 -38 8 -46
39 -3 13 -5 9 -6 -13z"/>
<path d="M2825 1230 c-3 -5 -1 -10 4 -10 6 0 11 5 11 10 0 6 -2 10 -4 10 -3 0
-8 -4 -11 -10z"/>
<path d="M2868 1199 c-14 -8 -15 -13 -6 -28 11 -17 12 -17 30 1 29 29 11 48
-24 27z"/>
<path d="M2978 1183 c12 -2 32 -2 45 0 12 2 2 4 -23 4 -25 0 -35 -2 -22 -4z"/>
<path d="M2560 1170 c0 -5 5 -10 10 -10 6 0 10 5 10 10 0 6 -4 10 -10 10 -5 0
-10 -4 -10 -10z"/>
<path d="M3098 1173 c7 -3 16 -2 19 1 4 3 -2 6 -13 5 -11 0 -14 -3 -6 -6z"/>
<path d="M3243 1157 c2 -6 10 -12 18 -12 8 0 19 -4 25 -8 9 -5 24 11 24 27 0
2 -16 3 -36 4 -24 1 -34 -3 -31 -11z"/>
<path d="M2595 1130 c-3 -5 -2 -10 4 -10 5 0 13 5 16 10 3 6 2 10 -4 10 -5 0
-13 -4 -16 -10z"/>
<path d="M2937 1133 c-4 -3 -7 -13 -7 -22 1 -13 3 -13 11 2 11 19 8 33 -4 20z"/>
<path d="M2483 1114 c-9 -23 19 -37 37 -18 13 13 13 16 0 24 -21 14 -30 12
-37 -6z"/>
<path d="M3166 1115 c10 -8 24 -14 29 -14 6 0 1 6 -9 14 -11 8 -24 15 -30 15
-5 0 -1 -7 10 -15z"/>
<path d="M3240 1093 c-1 -7 -3 -17 -4 -22 0 -5 -4 -13 -8 -17 -5 -4 -8 -14 -8
-23 1 -10 7 -5 16 12 8 16 13 36 11 45 -3 9 -6 11 -7 5z"/>
<path d="M2746 1062 c-3 -6 -1 -14 5 -17 15 -10 25 3 12 16 -7 7 -13 7 -17 1z"/>
<path d="M2710 1007 c0 -10 8 -17 18 -17 9 0 13 4 7 8 -5 4 -13 11 -17 16 -5
5 -8 2 -8 -7z"/>
<path d="M2575 980 c10 -11 20 -20 23 -20 3 0 -3 9 -13 20 -10 11 -20 20 -23
20 -3 0 3 -9 13 -20z"/>
<path d="M3163 864 c-20 -22 -20 -24 -3 -24 10 0 20 10 23 22 8 30 5 31 -20 2z"/>
<path d="M2920 864 c0 -8 5 -12 10 -9 6 4 8 11 5 16 -9 14 -15 11 -15 -7z"/>
<path d="M3236 832 c-32 -46 -79 -83 -126 -98 l-35 -12 38 -1 c35 -1 87 22 87
39 0 3 18 26 40 49 22 23 40 46 40 51 0 21 -18 9 -44 -28z"/>
<path d="M2851 826 c-1 -23 -4 -27 -18 -21 -54 23 -59 12 -8 -16 33 -17 69
-38 80 -45 11 -8 24 -14 29 -14 6 0 0 7 -12 16 -12 8 -22 21 -22 29 0 8 -6 18
-14 22 -8 5 -19 19 -25 33 l-10 25 0 -29z"/>
<path d="M2950 810 c0 -5 7 -7 15 -4 8 4 15 8 15 10 0 2 -7 4 -15 4 -8 0 -15
-4 -15 -10z"/>
<path d="M3960 685 c7 -8 17 -15 22 -15 5 0 3 7 -6 15 -8 8 -18 15 -22 15 -3
0 -1 -7 6 -15z"/>
<path d="M4019 605 c-2 -16 -9 -29 -15 -28 -7 1 -9 -8 -6 -22 4 -24 24 -25 21
-2 -1 7 1 20 5 29 4 9 6 25 3 35 -2 12 -5 8 -8 -12z"/>
<path d="M3071 474 c0 -11 3 -14 6 -6 3 7 2 16 -1 19 -3 4 -6 -2 -5 -13z"/>
<path d="M3062 420 c0 -19 2 -27 5 -17 2 9 2 25 0 35 -3 9 -5 1 -5 -18z"/>
<path d="M3118 298 c5 -21 42 -78 42 -66 0 3 -7 22 -15 41 -17 41 -36 58 -27
25z"/>
<path d="M3701 285 c-1 -11 -4 -31 -6 -45 l-6 -25 11 25 c6 13 9 33 7 45 -4
19 -4 19 -6 0z"/>
<path d="M3200 155 c7 -8 17 -15 22 -15 6 0 5 7 -2 15 -7 8 -17 15 -22 15 -6
0 -5 -7 2 -15z"/>
<path d="M3628 153 c6 -2 18 -2 25 0 6 3 1 5 -13 5 -14 0 -19 -2 -12 -5z"/>
<path d="M3270 85 c13 -14 25 -25 27 -25 9 0 -33 49 -41 50 -5 0 1 -11 14 -25z"/>
<path d="M1066 55 c8 -19 21 -19 21 0 0 8 -6 15 -13 15 -8 0 -11 -6 -8 -15z"/>
<path d="M3355 40 c-4 -6 1 -7 11 -3 11 4 15 3 10 -5 -3 -6 -1 -14 5 -18 8 -4
9 -3 5 4 -4 8 0 12 11 12 15 0 16 2 3 10 -19 13 -37 13 -45 0z"/>
<path d="M3437 15 c4 -11 22 -15 77 -14 l71 1 -50 9 c-27 4 -62 10 -77 13 -21
4 -26 2 -21 -9z"/>
</g>
</svg>
