<?xml version="1.0" standalone="no"?>
<!DOCTYPE svg PUBLIC "-//W3C//DTD SVG 20010904//EN"
 "http://www.w3.org/TR/2001/REC-SVG-20010904/DTD/svg10.dtd">
<svg version="1.0" xmlns="http://www.w3.org/2000/svg"
 width="1500.000000pt" height="1311.000000pt" viewBox="0 0 1500.000000 1311.000000"
 preserveAspectRatio="xMidYMid meet">

<g transform="translate(0.000000,1311.000000) scale(0.100000,-0.100000)"
fill="#000000" stroke="none">
<path d="M8194 12437 c2 -13 6 -29 10 -36 4 -6 3 -18 -3 -25 -23 -28 77 -136
125 -136 8 0 13 -4 10 -8 -3 -4 8 -13 25 -19 33 -13 48 -1 29 22 -10 12 -10
15 0 15 9 0 8 5 -3 18 -10 10 -18 38 -19 62 -1 43 -12 59 -73 107 -16 13 -31
20 -34 17 -3 -4 4 -13 17 -21 26 -18 28 -29 7 -37 -8 -3 -14 -2 -14 2 3 21 -4
31 -35 46 -44 21 -45 20 -42 -7z m132 -55 c15 -10 25 -42 14 -42 -6 0 -10 4
-10 9 0 5 -7 17 -16 25 -16 16 -8 22 12 8z"/>
<path d="M8259 12148 c-1 -7 -1 -18 0 -25 1 -6 -3 -14 -8 -18 -9 -5 -8 -16 7
-55 3 -8 6 -17 7 -20 6 -24 19 -60 29 -85 8 -16 20 -45 27 -62 8 -18 20 -33
27 -33 7 0 10 -4 7 -10 -3 -5 -2 -10 3 -10 5 0 10 -12 10 -26 0 -16 11 -36 30
-54 25 -22 28 -29 16 -34 -10 -4 -32 10 -61 39 -42 42 -82 64 -53 30 7 -8 9
-15 6 -15 -4 0 3 -18 15 -40 12 -22 20 -43 16 -46 -3 -3 -2 -11 3 -18 6 -6 21
-26 36 -43 14 -18 31 -33 38 -33 6 0 20 -13 29 -30 10 -16 26 -30 35 -30 10 0
23 -10 31 -22 11 -18 11 -23 -1 -32 -16 -12 -30 -56 -18 -56 4 0 15 -18 24
-40 9 -22 20 -40 26 -40 5 0 7 -6 4 -14 -3 -9 7 -21 25 -32 17 -10 31 -24 31
-31 0 -7 9 -13 19 -13 24 0 83 -48 75 -61 -3 -5 -2 -8 3 -7 4 1 31 -21 59 -50
29 -30 60 -52 72 -52 12 0 28 -12 38 -29 15 -25 21 -28 37 -19 17 9 19 8 14
-6 -4 -10 1 -21 13 -28 11 -7 20 -19 20 -26 0 -7 4 -11 10 -7 5 3 7 12 3 20
-3 11 4 17 25 21 17 3 40 16 52 29 l21 22 -62 -2 c-43 -1 -62 2 -66 12 -3 7
-12 13 -20 13 -13 0 -15 21 -3 22 20 0 80 -16 80 -22 0 -4 9 -10 20 -13 13 -3
20 0 20 9 0 8 7 14 16 14 9 0 14 6 11 13 -2 6 -11 11 -20 11 -9 -1 -15 3 -14
8 1 6 -11 12 -28 14 -62 7 -95 15 -95 24 0 6 7 10 15 10 21 0 19 17 -4 30 -16
8 -22 6 -30 -7 -9 -16 -10 -16 -11 4 0 15 -11 28 -32 39 -39 20 -138 126 -138
147 0 7 69 -10 83 -20 7 -6 23 -6 37 -2 14 4 19 7 11 8 -8 1 -11 4 -8 7 4 4
13 1 21 -5 32 -26 49 14 20 44 -9 9 -17 26 -18 38 -1 23 -60 60 -83 52 -7 -2
-13 0 -13 6 0 6 -6 9 -13 6 -7 -3 -19 4 -25 14 -7 10 -16 19 -21 19 -16 0 -81
63 -119 115 -99 136 -100 140 -39 130 l42 -7 -20 22 c-17 20 -18 23 -2 17 9
-4 17 -2 17 3 0 6 -6 10 -14 10 -7 0 -21 11 -30 25 -9 13 -22 23 -29 21 -6 -1
-9 -1 -4 1 14 8 7 22 -29 58 -19 19 -40 32 -46 29 -6 -4 -8 -3 -5 3 6 9 -136
183 -149 183 -2 0 -5 -6 -5 -12z m201 -218 c8 -5 12 -12 9 -15 -8 -8 -39 5
-39 16 0 11 11 11 30 -1z m-96 -209 c-6 -6 -24 19 -24 34 1 6 7 1 15 -9 8 -11
12 -22 9 -25z m71 -21 c-3 -5 -10 -10 -16 -10 -5 0 -9 5 -9 10 0 6 7 10 16 10
8 0 12 -4 9 -10z m-20 -20 c10 -11 15 -23 12 -27 -4 -3 0 -17 8 -30 9 -13 11
-23 6 -23 -5 0 -12 6 -14 13 -4 9 -8 8 -17 -3 -10 -13 -11 -13 -9 0 3 35 -2
60 -17 74 -13 13 -13 16 -1 16 8 0 22 -9 32 -20z m245 -124 c0 -3 -4 -8 -10
-11 -5 -3 -10 -1 -10 4 0 6 5 11 10 11 6 0 10 -2 10 -4z m12 -38 c-7 -7 -12
-8 -12 -2 0 14 12 26 19 19 2 -3 -1 -11 -7 -17z m108 -38 c0 -5 -5 -10 -11
-10 -5 0 -7 5 -4 10 3 6 8 10 11 10 2 0 4 -4 4 -10z m42 -22 c-11 -11 -32 -3
-32 12 0 4 9 6 21 3 13 -4 17 -9 11 -15z m-207 -148 c3 -6 -1 -7 -9 -4 -18 7
-21 14 -7 14 6 0 13 -4 16 -10z m105 -91 c7 -13 7 -19 0 -19 -5 0 -10 7 -10
15 0 9 -6 12 -15 9 -15 -6 -21 7 -9 19 9 9 22 0 34 -24z"/>
<path d="M8995 11650 c4 -6 11 -8 16 -5 14 9 11 15 -7 15 -8 0 -12 -5 -9 -10z"/>
<path d="M10220 11316 c0 -9 -5 -16 -11 -16 -5 0 -7 5 -3 12 5 7 3 8 -6 3 -10
-6 -5 -16 21 -38 76 -66 244 -236 283 -287 46 -60 136 -220 136 -241 0 -8 -12
3 -27 24 -19 26 -33 37 -45 34 -10 -3 -18 -2 -18 2 0 4 -18 27 -40 51 -22 25
-40 49 -40 54 0 5 -7 3 -16 -5 -13 -11 -19 -8 -39 17 -14 16 -24 23 -25 16 0
-7 9 -22 20 -34 42 -45 11 -51 -68 -13 -29 14 -53 25 -55 25 -8 0 -5 -40 4
-45 5 -4 9 -1 9 5 0 6 10 2 22 -10 22 -20 42 -25 88 -21 33 3 140 -52 197
-103 57 -49 95 -78 76 -56 -7 8 -13 27 -13 43 0 15 -5 38 -11 49 -7 14 -8 23
-1 30 11 11 -25 98 -40 98 -4 0 -8 6 -8 14 0 11 -20 41 -73 106 -7 8 -34 43
-61 77 -27 35 -53 60 -58 57 -4 -3 -7 0 -6 8 2 7 -1 13 -7 12 -5 -1 -18 7 -27
17 -10 11 -15 19 -11 19 4 0 -8 11 -27 25 -18 13 -37 22 -41 19 -5 -3 -17 0
-26 6 -17 11 -17 11 0 6 9 -3 17 -2 17 2 0 13 -40 33 -52 26 -6 -4 -8 -3 -4 4
3 6 2 13 -4 17 -5 3 -10 -1 -10 -9z"/>
<path d="M9082 11198 c6 -18 28 -21 28 -4 0 9 -7 16 -16 16 -9 0 -14 -5 -12
-12z"/>
<path d="M8940 11171 c0 -13 69 -30 76 -19 3 5 4 11 3 12 -10 8 -79 14 -79 7z"/>
<path d="M9333 11123 c-7 -3 -13 -10 -13 -17 0 -17 98 -16 104 1 7 17 -13 28
-26 15 -6 -6 -19 -7 -32 -3 -11 5 -27 6 -33 4z"/>
<path d="M9454 11118 c-7 -10 34 -20 56 -13 11 3 20 10 20 15 0 10 -70 8 -76
-2z"/>
<path d="M9273 11113 c-13 -2 -23 -8 -23 -13 0 -12 40 -33 48 -26 3 3 -1 6 -8
6 -9 0 -8 6 5 20 10 11 14 19 9 19 -5 -1 -19 -4 -31 -6z"/>
<path d="M9560 11111 c0 -5 7 -11 14 -14 10 -4 13 -1 9 9 -6 15 -23 19 -23 5z"/>
<path d="M9786 11043 c-6 -14 -5 -15 5 -6 7 7 10 15 7 18 -3 3 -9 -2 -12 -12z"/>
<path d="M9830 11030 c0 -5 5 -10 11 -10 5 0 7 5 4 10 -3 6 -8 10 -11 10 -2 0
-4 -4 -4 -10z"/>
<path d="M9966 10995 c-2 -7 7 -18 21 -24 34 -16 37 -10 8 15 -17 15 -25 18
-29 9z"/>
<path d="M10296 10837 c2 -7 14 -19 27 -26 12 -8 19 -10 15 -6 -4 5 0 13 9 20
14 11 14 13 -6 18 -18 4 -21 2 -17 -11 5 -15 4 -15 -8 1 -15 20 -28 23 -20 4z"/>
<path d="M8010 10611 c-23 -6 -23 -8 -6 -14 13 -5 25 -2 35 8 16 16 11 17 -29
6z"/>
<path d="M8074 10609 c-20 -7 -20 -7 26 -22 16 -6 -50 -11 -85 -7 -52 5 1 -11
91 -29 54 -10 129 -33 167 -50 37 -17 70 -31 73 -31 14 0 124 -84 124 -95 0
-6 9 -20 20 -30 11 -10 20 -23 20 -29 0 -23 34 -32 70 -20 19 7 27 13 16 13
-17 1 -17 3 -3 25 16 23 15 24 -9 30 -20 5 -25 12 -21 26 3 11 1 20 -4 20 -5
0 -9 6 -9 14 0 15 -84 96 -100 96 -5 0 -10 7 -10 16 0 10 -5 14 -15 10 -9 -3
-18 1 -21 9 -4 8 -10 12 -15 9 -5 -3 -9 0 -9 5 0 6 -7 11 -16 11 -8 0 -12 -4
-9 -10 8 -13 4 -13 -40 6 -21 9 -54 17 -74 20 -20 2 -61 7 -92 12 -31 5 -65 5
-75 1z m76 -29 c0 -5 -7 -7 -15 -4 -8 4 -15 8 -15 10 0 2 7 4 15 4 8 0 15 -4
15 -10z"/>
<path d="M8291 10613 c-1 -18 13 -23 29 -11 12 8 12 9 -2 5 -9 -3 -19 -1 -22
6 -3 9 -5 9 -5 0z"/>
<path d="M7930 10560 c-12 -8 -10 -9 7 -7 12 2 26 6 29 10 11 11 -19 8 -36 -3z"/>
<path d="M11080 10206 c0 -2 8 -10 18 -17 15 -13 16 -12 3 4 -13 16 -21 21
-21 13z"/>
<path d="M11152 10089 c12 -22 29 -45 37 -52 7 -6 -1 12 -19 41 -37 61 -51 70
-18 11z"/>
<path d="M5145 10080 c3 -5 0 -10 -7 -10 -9 0 -9 -3 2 -10 13 -8 13 -10 -2
-10 -9 0 -20 -5 -24 -11 -4 -8 0 -9 15 -4 13 4 21 2 21 -5 0 -6 5 -8 12 -4 7
4 8 3 4 -5 -4 -6 -12 -9 -17 -6 -5 4 -9 2 -9 -2 0 -5 9 -14 21 -21 12 -8 19
-22 18 -35 -3 -32 11 -62 22 -45 6 10 11 10 21 0 6 -6 16 -12 20 -12 15 0 8
22 -14 42 l-23 19 30 -6 c17 -4 34 -13 38 -21 5 -9 16 -12 28 -9 14 5 17 3 13
-9 -3 -9 -1 -16 5 -16 6 0 11 5 11 11 0 7 12 0 27 -15 14 -15 33 -24 40 -22 8
3 11 1 8 -4 -3 -6 2 -10 12 -11 10 -1 27 -2 38 -3 11 0 19 -7 17 -14 -1 -7 10
-17 24 -22 20 -8 25 -15 21 -32 -4 -16 -3 -18 6 -9 18 18 31 13 16 -6 -7 -10
-10 -15 -5 -11 5 4 18 2 29 -4 16 -8 19 -8 14 5 -5 13 3 13 57 -3 56 -16 106
-36 106 -43 0 -9 -48 -3 -71 9 -33 17 -39 17 -39 4 0 -5 7 -10 15 -10 8 0 15
-5 15 -12 0 -6 3 -9 6 -5 3 3 23 -1 44 -8 21 -7 41 -11 44 -8 7 7 97 -22 171
-57 33 -15 102 -43 153 -61 89 -32 114 -49 71 -49 -11 0 -18 -4 -15 -9 3 -5
15 -7 27 -4 12 4 25 0 30 -8 9 -14 14 -16 61 -18 19 -1 26 -5 22 -15 -3 -7 2
-16 11 -20 13 -5 14 -10 4 -28 -9 -19 -9 -21 2 -10 20 18 31 15 20 -7 -9 -16
-6 -20 15 -25 16 -4 25 -13 23 -24 -1 -9 -1 -24 0 -32 1 -13 2 -13 11 0 9 13
11 13 19 1 5 -8 7 -20 4 -27 -10 -26 7 -34 37 -19 32 17 60 20 60 6 0 -9 -60
-75 -150 -166 -28 -28 -50 -56 -50 -63 0 -6 -4 -12 -9 -12 -5 0 -12 -9 -16
-20 -3 -11 -12 -19 -18 -17 -7 1 -10 -5 -8 -13 2 -8 5 -26 6 -38 2 -13 21 -45
42 -70 52 -62 208 -281 237 -332 l23 -40 99 51 c104 54 380 233 427 277 19 18
24 28 15 33 -7 4 -18 3 -25 -3 -10 -8 -17 -2 -28 25 -8 20 -15 41 -15 46 0 5
-5 11 -11 13 -5 2 -11 10 -13 18 -1 8 -7 25 -14 37 -7 12 -12 31 -12 42 0 11
-9 46 -21 77 -15 41 -18 59 -10 67 16 16 13 30 -5 23 -12 -5 -15 -2 -10 10 3
8 6 22 6 31 0 9 6 13 14 10 8 -3 17 -1 20 6 2 7 3 -7 1 -30 -2 -23 1 -43 7
-45 5 -2 11 -19 13 -38 2 -32 7 -36 34 -31 5 0 11 10 14 21 3 13 14 20 29 20
21 1 22 2 6 14 -10 7 -14 17 -10 21 4 5 0 6 -10 2 -9 -3 -24 3 -34 15 -18 19
-18 20 0 33 10 8 15 18 11 24 -8 14 34 89 52 93 9 2 7 7 -8 16 -11 8 -18 9
-15 4 3 -5 -5 -12 -18 -14 -33 -7 -23 17 14 34 16 7 27 15 24 19 -2 4 5 5 16
2 16 -4 19 -2 14 11 -7 17 -22 16 -106 -10 -43 -14 -48 -14 -67 3 -12 9 -21
25 -21 35 0 10 -6 18 -14 18 -8 0 -26 14 -39 31 -23 30 -27 31 -56 21 -26 -9
-33 -9 -38 3 -3 8 -12 15 -20 15 -19 0 -83 -66 -83 -85 0 -13 -29 -30 -37 -21
-2 2 4 11 13 20 15 16 9 17 -85 12 -59 -3 -101 -2 -101 4 0 15 17 21 64 22 27
0 44 5 43 12 -1 6 8 12 21 14 12 2 22 8 22 14 0 5 7 8 15 5 8 -4 17 -2 20 3
10 17 -12 19 -66 6 -30 -7 -60 -11 -67 -8 -7 2 -12 -1 -12 -7 0 -6 -4 -11 -10
-11 -5 0 -7 8 -3 18 4 12 3 14 -6 6 -6 -6 -25 -8 -42 -6 -23 3 -27 7 -18 14 9
5 -13 8 -59 7 -39 -1 -75 1 -80 6 -4 5 -2 5 4 2 7 -4 14 2 17 13 3 11 10 20
17 20 6 0 9 -3 6 -8 -2 -4 12 -6 32 -5 21 2 56 3 80 4 31 0 46 6 55 20 6 10
16 19 21 19 4 0 3 -7 -4 -15 -11 -13 -9 -15 11 -11 13 3 30 5 37 5 6 1 12 8
12 16 0 9 -6 12 -17 8 -11 -4 -14 -3 -9 5 4 7 23 12 42 12 19 0 34 5 34 10 0
9 -56 15 -109 10 -14 -1 -21 2 -17 9 10 15 -7 14 -23 -1 -10 -11 -12 -10 -9 2
2 12 -11 15 -79 15 -45 0 -85 3 -89 7 -4 4 -13 3 -21 -4 -10 -8 -17 -8 -25 0
-15 15 -32 16 -23 2 8 -13 -11 -13 -37 1 -11 6 -18 7 -14 1 3 -6 -11 -10 -34
-10 -22 0 -40 3 -40 8 0 4 -7 11 -16 14 -8 3 -13 2 -10 -2 3 -5 -2 -9 -10 -9
-8 0 -13 6 -10 13 3 7 -2 15 -11 18 -8 4 -13 13 -10 20 3 8 -1 17 -9 20 -10 4
-12 2 -8 -6 4 -7 3 -8 -4 -4 -7 4 -12 14 -12 22 0 8 -5 14 -11 14 -5 0 -7 -6
-3 -12 5 -10 3 -10 -7 0 -12 11 -12 14 1 22 8 6 21 8 28 5 6 -2 12 -1 12 4 0
12 63 0 83 -17 9 -8 17 -10 17 -4 0 6 -6 13 -12 15 -7 3 -1 6 15 6 15 1 27 -4
27 -10 0 -8 4 -8 14 0 15 13 58 11 68 -4 5 -6 8 -5 8 3 0 6 10 11 23 11 16 -1
18 -2 5 -6 -10 -2 -18 -9 -18 -14 0 -14 16 -11 30 6 7 9 29 15 51 15 21 0 41
5 44 10 4 7 -17 9 -59 6 -36 -2 -66 1 -66 6 0 5 -8 4 -18 -1 -13 -7 -23 -6
-30 1 -7 7 -12 8 -12 2 0 -10 -98 -9 -108 1 -3 3 0 11 8 18 10 9 11 9 6 0 -10
-18 4 -16 27 5 17 14 19 15 15 1 -5 -13 2 -16 38 -15 24 1 44 5 44 9 0 5 5 5
10 2 17 -10 90 -13 90 -3 0 4 9 8 19 8 11 0 23 5 26 10 4 6 -7 10 -24 10 -17
0 -31 5 -31 11 0 6 -9 9 -20 6 -10 -3 -21 0 -23 6 -2 6 -11 8 -21 4 -10 -4
-14 -12 -10 -18 4 -8 3 -9 -5 -5 -6 4 -9 11 -6 16 3 4 -3 6 -14 3 -10 -3 -21
2 -24 10 -4 10 1 13 18 9 13 -2 31 1 42 6 17 10 16 11 -7 20 -19 7 -26 6 -28
-5 -3 -11 -7 -11 -18 -2 -11 9 -14 9 -14 -1 0 -7 -6 -10 -14 -7 -8 3 -17 3
-21 -1 -6 -6 -65 -12 -147 -14 -20 -1 -35 -4 -33 -8 3 -4 -17 -7 -42 -6 -42 1
-48 -2 -55 -24 -7 -24 -8 -24 -4 3 3 26 2 27 -48 28 -28 0 -62 2 -76 5 -14 2
-36 6 -50 8 -14 2 -29 5 -35 6 -25 6 -46 -1 -39 -12 5 -7 3 -8 -7 -2 -8 5 -16
9 -19 10 -3 1 -14 5 -25 8 -11 4 -24 7 -30 8 -5 0 -34 16 -62 34 -30 19 -53
28 -53 22 0 -7 -7 -2 -16 10 -15 22 -41 22 -28 0 4 -7 2 -8 -5 -4 -6 4 -9 12
-6 17 4 5 5 9 3 10 -2 0 -32 3 -68 6 -36 3 -67 7 -69 9 -2 2 -10 -4 -18 -14
-8 -9 -12 -12 -8 -5 3 7 -3 17 -14 22 -25 14 -34 14 -26 1z m135 -35 c0 -8 -4
-15 -10 -15 -5 0 -10 4 -10 10 0 5 -7 7 -15 4 -8 -4 -15 -1 -15 5 0 6 11 11
25 11 16 0 25 -6 25 -15z m70 -44 c-1 -14 -2 -14 -14 2 -7 9 -18 17 -25 17 -6
0 -11 4 -11 10 0 6 10 5 25 -2 14 -6 25 -18 25 -27z m64 -26 c-4 -8 -8 -15
-10 -15 -2 0 -4 7 -4 15 0 8 4 15 10 15 5 0 7 -7 4 -15z m735 -29 c7 -8 8 -17
3 -20 -6 -3 -12 3 -15 14 -6 24 -4 25 12 6z m-33 -6 c31 0 12 -18 -30 -29 -37
-9 -44 -15 -41 -31 3 -16 -2 -20 -26 -20 -18 0 -28 4 -24 10 4 6 10 8 14 6 4
-3 13 -1 21 4 12 7 10 11 -9 18 -18 6 -21 11 -12 17 8 4 16 2 21 -5 5 -8 9 -7
14 5 3 9 11 13 16 10 6 -4 10 -3 9 2 -3 19 2 25 17 19 9 -3 22 -6 30 -6z
m-436 -15 c0 -2 -9 -3 -19 -2 -11 0 -18 5 -15 9 4 6 34 0 34 -7z m105 -5 c3
-5 -1 -10 -10 -10 -9 0 -13 5 -10 10 3 6 8 10 10 10 2 0 7 -4 10 -10z m-31
-16 c5 -14 4 -15 -9 -4 -17 14 -19 20 -6 20 5 0 12 -7 15 -16z m71 6 c-3 -5
-11 -10 -16 -10 -6 0 -7 5 -4 10 3 6 11 10 16 10 6 0 7 -4 4 -10z m72 4 c-3
-3 -12 -4 -19 -1 -8 3 -5 6 6 6 11 1 17 -2 13 -5z m73 2 c0 -3 -4 -8 -10 -11
-5 -3 -10 -1 -10 4 0 6 5 11 10 11 6 0 10 -2 10 -4z m-170 -197 c0 -5 -8 -9
-17 -8 -11 0 -13 3 -5 6 6 2 9 10 6 15 -4 7 -2 8 4 4 7 -4 12 -11 12 -17z
m626 -22 c4 -4 -2 -7 -14 -7 -12 0 -22 4 -22 9 0 10 26 9 36 -2z m-71 -35 c-3
-3 -11 0 -18 7 -9 10 -8 11 6 5 10 -3 15 -9 12 -12z m-15 -109 c0 -7 4 -13 10
-13 5 0 7 7 4 15 -8 20 3 19 28 -4 l20 -20 -33 3 c-44 4 -80 16 -75 25 8 12
46 7 46 -6z m426 -58 c5 -8 8 -30 6 -49 -4 -32 -8 -36 -32 -36 -45 0 -70 52
-43 90 16 22 48 20 69 -5z m34 -121 c0 -8 4 -14 8 -14 4 0 16 -26 27 -57 10
-32 24 -67 31 -78 6 -11 21 -51 33 -90 12 -38 24 -77 27 -85 3 -8 5 -15 4 -15
-3 0 31 -89 41 -108 5 -10 7 -22 3 -28 -3 -5 2 -21 11 -36 14 -21 15 -27 3
-39 -14 -14 -93 -63 -373 -231 -63 -38 -67 -37 -109 9 -21 24 -77 102 -124
173 -47 72 -93 142 -103 157 -20 29 -24 48 -11 48 5 0 13 10 18 21 11 23 10
23 244 -214 l74 -76 106 56 c58 30 121 68 141 84 20 16 44 29 54 29 9 0 25 5
35 10 17 9 18 14 8 35 -12 26 -23 31 -32 16 -3 -5 -14 -11 -24 -13 -16 -5 -19
1 -20 38 -1 74 -29 150 -70 191 -21 21 -44 56 -51 78 -32 93 -22 92 -105 10
-42 -41 -81 -75 -88 -75 -7 0 -20 -5 -28 -10 -13 -9 -13 -11 0 -20 12 -8 11
-10 -6 -10 -40 0 -109 -98 -90 -129 7 -11 -22 -37 -31 -28 -3 4 -1 13 6 21 9
11 7 15 -8 19 -11 2 -23 1 -28 -4 -6 -6 -19 1 -33 16 -15 16 -18 24 -9 20 11
-4 31 11 63 47 239 269 272 302 293 293 35 -15 71 -15 83 0 14 17 30 11 30
-11z m224 -29 c-10 -8 -15 -15 -11 -15 5 0 1 -7 -8 -16 -13 -13 -13 -19 -3
-33 7 -9 8 -13 4 -9 -5 4 -15 0 -23 -10 -13 -15 -13 -15 -4 4 8 18 6 23 -13
34 -14 7 -30 9 -38 4 -7 -4 -5 2 5 13 9 11 16 22 15 24 -2 2 3 -2 10 -10 6 -8
12 -20 12 -25 1 -6 9 0 20 13 11 12 17 28 13 34 -3 5 -1 7 5 3 6 -3 14 -1 17
5 4 5 10 8 13 5 3 -4 -3 -13 -14 -21z m-34 -5 c0 -5 -5 -10 -11 -10 -5 0 -7 5
-4 10 3 6 8 10 11 10 2 0 4 -4 4 -10z m-390 -220 c0 -5 -2 -10 -4 -10 -3 0 -8
5 -11 10 -3 6 -1 10 4 10 6 0 11 -4 11 -10z m52 -64 c39 -22 43 -28 46 -66 2
-24 -2 -48 -7 -53 -6 -6 -11 -19 -11 -29 0 -24 -32 -39 -69 -32 -33 7 -77 45
-86 75 -8 24 25 126 35 110 5 -9 10 -8 20 4 17 20 22 19 72 -9z m182 -32 c3
-8 2 -12 -4 -9 -6 3 -10 10 -10 16 0 14 7 11 14 -7z m6 -34 c0 -5 -5 -10 -11
-10 -5 0 -7 5 -4 10 3 6 8 10 11 10 2 0 4 -4 4 -10z m-30 -10 c0 -5 -5 -10
-11 -10 -5 0 -7 5 -4 10 3 6 8 10 11 10 2 0 4 -4 4 -10z m1 -80 c6 0 7 -5 3
-11 -9 -15 -24 9 -22 36 1 17 1 17 5 -2 2 -13 9 -23 14 -23z m-40 -23 c-10 -9
-11 -8 -5 6 3 10 9 15 12 12 3 -3 0 -11 -7 -18z m-41 -43 c0 -8 -5 -12 -10 -9
-6 4 -8 11 -5 16 9 14 15 11 15 -7z m-46 -14 c-7 -7 -19 -7 -35 -1 -23 9 -22
10 11 10 23 1 31 -2 24 -9z"/>
<path d="M6348 10083 c7 -3 16 -2 19 1 4 3 -2 6 -13 5 -11 0 -14 -3 -6 -6z"/>
<path d="M5645 10040 c3 -5 8 -10 11 -10 2 0 4 5 4 10 0 6 -5 10 -11 10 -5 0
-7 -4 -4 -10z"/>
<path d="M5257 9903 c-13 -12 -7 -21 21 -29 15 -4 32 -8 37 -8 6 -1 12 -3 15
-6 25 -28 120 -64 105 -40 -3 5 -13 6 -23 3 -9 -3 -14 -3 -10 2 4 4 -2 13 -15
20 -12 6 -44 23 -70 38 -53 30 -51 29 -60 20z"/>
<path d="M11256 9877 c3 -10 9 -15 12 -12 3 3 0 11 -7 18 -10 9 -11 8 -5 -6z"/>
<path d="M5450 9797 c0 -15 35 -16 47 -2 5 4 3 5 -4 1 -6 -3 -14 -2 -18 4 -9
14 -25 12 -25 -3z"/>
<path d="M5595 9740 c3 -5 10 -10 16 -10 5 0 9 5 9 10 0 6 -7 10 -16 10 -8 0
-12 -4 -9 -10z"/>
<path d="M6560 9720 c0 -5 5 -10 11 -10 5 0 7 5 4 10 -3 6 -8 10 -11 10 -2 0
-4 -4 -4 -10z"/>
<path d="M6618 9683 c7 -3 16 -2 19 1 4 3 -2 6 -13 5 -11 0 -14 -3 -6 -6z"/>
<path d="M11304 9625 c-3 -8 -3 -18 0 -23 3 -4 6 -52 7 -106 1 -53 4 -94 7
-91 5 5 4 77 -2 213 -1 26 -4 28 -12 7z"/>
<path d="M6073 9524 c16 -8 31 -13 35 -10 8 8 1 12 -33 20 l-30 6 28 -16z"/>
<path d="M11177 9416 c-3 -7 -2 -29 2 -47 4 -19 6 -52 5 -75 -2 -36 -9 -48
-61 -96 -32 -31 -76 -71 -97 -89 -64 -54 -106 -101 -100 -110 3 -5 1 -9 -3 -9
-26 0 -45 -152 -28 -230 16 -70 16 -117 1 -159 -13 -34 -15 -72 -12 -170 2
-69 0 -131 -5 -136 -10 -13 7 -43 18 -31 4 4 7 31 6 59 -1 29 -3 75 -4 104 -1
42 6 67 34 125 37 76 57 101 185 231 55 56 81 76 94 71 13 -4 18 0 18 15 0 11
4 23 10 26 5 3 9 16 8 28 0 12 6 56 15 97 8 41 16 118 17 170 1 99 -17 223
-33 217 -5 -1 -8 -6 -7 -11 2 -9 -19 -26 -32 -26 -5 0 -8 14 -8 30 0 31 -14
41 -23 16z m3 -460 c0 -2 -8 -10 -17 -17 -16 -13 -17 -12 -4 4 13 16 21 21 21
13z"/>
<path d="M7323 9314 c-29 -15 -53 -30 -53 -35 0 -5 -7 -9 -15 -9 -8 0 -15 -5
-15 -12 0 -6 -3 -9 -6 -5 -10 9 -86 -32 -79 -43 4 -6 9 -10 12 -10 4 0 3 3 0
7 -4 3 5 12 19 20 28 14 54 4 54 -21 0 -6 12 -16 26 -23 23 -11 29 -9 51 13
14 14 22 28 18 32 -3 4 -14 -3 -23 -15 -12 -15 -23 -19 -36 -14 -20 8 -34 61
-16 61 5 0 10 -9 10 -20 0 -15 6 -19 23 -16 12 1 24 11 25 20 3 15 1 16 -18 6
-13 -7 -20 -7 -16 -2 3 6 0 13 -6 15 -7 3 3 6 22 6 24 1 31 4 21 10 -8 5 -9
11 -3 15 6 3 13 0 15 -6 4 -8 8 -6 12 7 6 21 45 32 45 14 0 -6 -4 -8 -9 -5 -9
6 -35 -20 -43 -45 -4 -9 2 -20 13 -28 11 -6 17 -17 13 -23 -4 -7 -3 -8 5 -4 6
4 9 12 5 17 -3 6 1 9 9 7 9 -2 16 0 16 5 2 21 0 27 -10 27 -5 0 -8 -4 -5 -9 7
-10 -19 -23 -28 -14 -10 10 -7 33 5 33 5 0 7 -6 3 -12 -5 -9 -3 -9 9 1 9 7 15
16 13 20 -2 3 3 12 11 20 12 11 14 10 11 -4 -2 -10 3 -20 11 -23 8 -3 11 0 7
6 -3 6 -1 14 5 18 8 5 9 3 4 -6 -6 -10 -4 -12 8 -7 10 3 17 2 17 -4 0 -6 6 -7
13 -2 19 12 36 12 44 1 3 -7 1 -8 -5 -4 -7 4 -12 1 -12 -8 0 -9 -4 -16 -10
-16 -5 0 -6 7 -3 17 4 11 3 14 -6 9 -7 -5 -10 -14 -7 -22 3 -7 0 -16 -6 -20
-7 -4 0 -12 16 -21 15 -8 24 -18 21 -23 -8 -13 -25 -13 -25 0 0 14 -57 70 -64
63 -3 -3 2 -11 11 -18 13 -9 13 -14 3 -20 -9 -5 -11 -4 -6 3 12 19 -4 14 -33
-11 l-28 -23 26 -19 c21 -15 23 -16 12 -2 -9 11 -10 17 -2 17 18 0 26 -4 24
-12 -4 -12 65 -9 72 3 4 6 14 8 22 5 17 -7 53 10 53 25 0 6 -5 7 -12 3 -8 -5
-9 -2 -5 10 5 12 3 16 -5 14 -7 -3 -13 -10 -13 -16 0 -7 -3 -12 -7 -12 -5 0
-11 0 -14 0 -4 0 -1 6 5 13 6 8 7 17 3 21 -4 4 -2 6 4 4 7 -1 21 8 33 21 16
18 21 20 21 8 0 -8 -5 -17 -12 -19 -8 -3 -7 -10 4 -26 14 -21 16 -21 29 -5 8
9 9 14 2 10 -6 -4 -14 -3 -18 3 -3 5 -3 10 2 11 4 0 16 2 26 4 9 2 17 -1 17
-6 0 -4 7 -6 16 -2 14 5 12 8 -7 19 -13 7 -27 10 -31 7 -5 -2 -11 3 -14 11 -3
9 -12 16 -20 16 -8 0 -14 4 -14 9 0 6 -27 10 -59 10 -35 0 -71 6 -89 15 -38
19 -27 21 -89 -10z m187 -95 c0 -6 -4 -7 -10 -4 -5 3 -10 11 -10 16 0 6 5 7
10 4 6 -3 10 -11 10 -16z m-48 -28 c7 11 9 11 6 1 -5 -17 -23 -17 -24 0 -1 9
1 8 4 -1 3 -12 5 -12 14 0z"/>
<path d="M7060 9322 c0 -7 -6 -12 -14 -12 -9 0 -13 -9 -11 -26 2 -18 -3 -28
-18 -33 -18 -7 -18 -8 -3 -14 10 -4 15 -11 12 -15 -3 -5 6 -7 19 -4 14 2 22 8
19 13 -3 5 -10 6 -16 3 -8 -5 -9 -1 -4 12 5 10 8 26 9 34 0 8 4 21 10 28 5 7
7 15 3 19 -3 3 -6 1 -6 -5z"/>
<path d="M7069 9277 c-6 -18 -5 -37 2 -37 5 0 7 -11 3 -25 -7 -29 3 -32 23 -7
8 9 12 12 9 5 -4 -6 -2 -15 4 -18 6 -4 9 -1 8 7 -2 7 3 12 10 11 6 -2 12 2 12
7 0 6 -9 10 -20 10 -13 0 -20 7 -20 19 0 10 -7 21 -15 25 -8 3 -15 4 -16 3z"/>
<path d="M7445 9260 c3 -5 8 -10 11 -10 2 0 4 5 4 10 0 6 -5 10 -11 10 -5 0
-7 -4 -4 -10z"/>
<path d="M8013 9197 c-66 -55 -187 -106 -263 -112 -60 -5 -110 -17 -105 -25 3
-5 37 -7 75 -4 61 4 105 14 189 40 21 6 23 5 17 -11 -5 -15 -4 -16 9 -5 8 7
15 9 15 4 0 -4 5 -3 12 4 30 30 38 14 32 -65 -3 -47 0 -88 7 -105 9 -21 9 -39
0 -73 -6 -26 -8 -51 -4 -58 4 -7 8 -18 9 -24 3 -16 37 -72 64 -102 11 -13 20
-29 20 -36 0 -6 19 -38 42 -71 22 -32 47 -80 54 -106 12 -48 58 -108 81 -108
7 0 13 -5 13 -10 0 -6 11 -28 25 -50 14 -22 25 -45 25 -52 0 -7 16 -24 35 -38
34 -25 44 -40 26 -40 -13 0 -1 -40 21 -72 10 -14 18 -29 18 -33 0 -27 241
-187 258 -170 3 3 -3 12 -14 20 -17 13 -13 14 36 8 81 -10 93 -9 97 4 2 6 -10
14 -29 18 -46 9 -101 28 -112 37 -6 4 -20 8 -32 8 -13 0 -30 7 -38 16 -9 8
-20 13 -25 9 -5 -3 -16 3 -23 12 -7 10 -26 25 -41 33 -16 8 -24 16 -18 18 7 2
6 11 -4 25 -18 26 -20 57 -2 58 6 0 -4 8 -23 17 -95 46 -150 123 -141 196 1 4
10 -2 22 -15 l21 -24 -16 25 c-9 14 -29 41 -46 60 -97 112 -130 154 -130 166
0 6 38 -27 85 -74 46 -47 88 -82 92 -78 4 4 -6 17 -22 29 -39 28 -102 94 -141
149 -47 68 -79 122 -66 114 7 -4 12 -1 12 8 0 21 10 20 40 -4 27 -21 45 -26
35 -10 -8 13 1 13 28 -1 20 -10 19 -9 -4 17 -81 90 -182 301 -181 379 1 16 -3
32 -8 35 -5 3 0 24 10 48 22 50 9 56 -37 19z"/>
<path d="M7223 9163 c-19 -12 -23 -13 -24 -2 0 8 -5 3 -11 -11 -6 -15 -12 -20
-15 -12 -3 6 -9 12 -14 12 -6 0 -5 -8 1 -20 7 -14 7 -20 0 -20 -5 0 -10 5 -10
10 0 6 -5 10 -12 10 -8 0 -6 -6 4 -16 15 -16 20 -15 67 16 28 17 51 36 51 41
0 13 -12 10 -37 -8z"/>
<path d="M11450 9166 c0 -2 8 -10 18 -17 15 -13 16 -12 3 4 -13 16 -21 21 -21
13z"/>
<path d="M7605 9060 c-3 -5 1 -10 9 -10 9 0 16 5 16 10 0 6 -4 10 -9 10 -6 0
-13 -4 -16 -10z"/>
<path d="M9100 8888 c0 -13 27 -57 60 -98 62 -76 72 -97 44 -86 -9 3 -18 6
-20 6 -2 0 -4 7 -4 15 0 8 -5 15 -11 15 -5 0 -8 -4 -5 -9 3 -5 -1 -14 -9 -21
-13 -11 -11 -20 17 -71 25 -44 54 -76 122 -131 50 -40 100 -83 113 -95 12 -13
30 -23 40 -24 10 0 44 -2 75 -3 31 -1 60 -5 64 -9 4 -4 18 -4 30 -1 13 4 24 2
24 -3 0 -5 42 -10 93 -11 117 -3 253 -20 292 -37 17 -7 54 -20 83 -29 29 -9
79 -29 110 -43 31 -15 62 -29 67 -32 6 -2 -4 8 -21 22 -18 15 -34 27 -37 27
-4 0 -32 18 -63 40 -31 22 -73 43 -93 46 -20 4 -53 13 -73 21 -32 13 -37 19
-32 38 3 13 0 34 -6 47 -18 33 -93 101 -183 165 -78 55 -154 83 -222 81 -17 0
-52 7 -79 16 -26 9 -74 18 -106 20 -45 2 -69 10 -107 34 -58 37 -98 78 -108
110 -5 19 -9 21 -21 11 -10 -8 -14 -8 -14 0 0 6 -4 11 -10 11 -5 0 -10 -10
-10 -22z"/>
<path d="M9636 8865 c-9 -26 -7 -32 5 -12 6 10 9 21 6 23 -2 3 -7 -2 -11 -11z"/>
<path d="M9652 8800 c12 -16 23 -30 25 -30 9 0 1 19 -16 38 -28 33 -35 26 -9
-8z"/>
<path d="M9755 8730 c3 -5 8 -10 11 -10 2 0 4 5 4 10 0 6 -5 10 -11 10 -5 0
-7 -4 -4 -10z"/>
<path d="M9800 8723 c14 -3 32 -10 40 -16 13 -11 13 -10 1 6 -7 9 -25 16 -40
16 l-26 -2 25 -4z"/>
<path d="M9870 8710 c19 -13 30 -13 30 0 0 6 -10 10 -22 10 -19 0 -20 -2 -8
-10z"/>
<path d="M8289 8637 c19 -20 38 -37 43 -37 8 0 -27 37 -58 60 -10 8 -3 -3 15
-23z"/>
<path d="M11425 8639 c-4 -6 -5 -12 -2 -15 2 -3 7 2 10 11 7 17 1 20 -8 4z"/>
<path d="M4488 8623 c7 -3 16 -2 19 1 4 3 -2 6 -13 5 -11 0 -14 -3 -6 -6z"/>
<path d="M4138 8603 c6 -2 18 -2 25 0 6 3 1 5 -13 5 -14 0 -19 -2 -12 -5z"/>
<path d="M4618 8603 c7 -3 16 -2 19 1 4 3 -2 6 -13 5 -11 0 -14 -3 -6 -6z"/>
<path d="M11397 8593 c-4 -3 -7 -13 -7 -22 1 -13 3 -13 11 2 11 19 8 33 -4 20z"/>
<path d="M4010 8580 c-18 -12 -2 -12 25 0 13 6 15 9 5 9 -8 0 -22 -4 -30 -9z"/>
<path d="M4843 8573 c9 -2 25 -2 35 0 9 3 1 5 -18 5 -19 0 -27 -2 -17 -5z"/>
<path d="M4788 8543 c7 -3 16 -2 19 1 4 3 -2 6 -13 5 -11 0 -14 -3 -6 -6z"/>
<path d="M4918 8533 c7 -3 16 -2 19 1 4 3 -2 6 -13 5 -11 0 -14 -3 -6 -6z"/>
<path d="M11344 8498 c-15 -24 -31 -46 -37 -49 -6 -4 -5 -9 1 -13 6 -3 13 -3
15 1 2 5 16 29 32 56 34 58 25 62 -11 5z"/>
<path d="M3508 8463 c7 -3 16 -2 19 1 4 3 -2 6 -13 5 -11 0 -14 -3 -6 -6z"/>
<path d="M4037 8459 c7 -7 15 -10 18 -7 3 3 -2 9 -12 12 -14 6 -15 5 -6 -5z"/>
<path d="M3185 8449 c-2 -3 21 -6 51 -7 31 0 54 2 51 4 -7 7 -98 10 -102 3z"/>
<path d="M3336 8451 c-4 -5 3 -7 14 -4 23 6 26 13 6 13 -8 0 -17 -4 -20 -9z"/>
<path d="M4076 8448 c3 -5 10 -6 15 -3 13 9 11 12 -6 12 -8 0 -12 -4 -9 -9z"/>
<path d="M4178 8443 c6 -2 18 -2 25 0 6 3 1 5 -13 5 -14 0 -19 -2 -12 -5z"/>
<path d="M8390 8391 c0 -9 30 -24 36 -18 2 1 -6 8 -16 15 -11 7 -20 8 -20 3z"/>
<path d="M11256 8374 c-5 -14 -4 -15 9 -4 17 14 19 20 6 20 -5 0 -12 -7 -15
-16z"/>
<path d="M11730 8340 c-9 -6 -10 -10 -3 -10 6 0 15 5 18 10 8 12 4 12 -15 0z"/>
<path d="M11223 8313 c-9 -16 -21 -34 -26 -40 -6 -9 -6 -13 2 -13 6 0 20 18
31 40 23 46 19 54 -7 13z"/>
<path d="M11685 8320 c-3 -6 1 -7 9 -4 18 7 21 14 7 14 -6 0 -13 -4 -16 -10z"/>
<path d="M8290 8251 c0 -10 19 -25 25 -20 1 2 -3 10 -11 17 -8 7 -14 8 -14 3z"/>
<path d="M11150 8189 c-22 -35 -42 -72 -44 -84 -2 -11 -9 -44 -15 -73 -6 -30
-11 -66 -11 -80 -1 -41 -33 -102 -81 -154 -48 -51 -58 -53 -159 -33 -51 10
-57 21 -32 52 27 34 36 54 52 112 6 24 22 54 36 68 24 24 33 63 13 63 -6 0 -1
12 10 26 16 20 21 41 21 85 0 73 -11 75 -80 14 -92 -82 -181 -117 -290 -114
-82 2 -80 4 -65 -67 5 -22 46 -47 80 -48 11 -1 20 -6 20 -12 0 -15 47 -64 62
-64 21 0 62 -58 56 -80 -4 -15 -2 -19 10 -15 11 5 13 0 9 -20 -2 -15 -11 -29
-18 -32 -8 -3 -12 -9 -9 -13 6 -9 -104 -80 -125 -80 -4 0 -25 -7 -46 -16 -57
-25 -130 -27 -209 -8 -38 10 -74 21 -80 26 -16 14 -28 9 -15 -7 7 -8 20 -15
29 -15 9 0 21 -4 26 -9 13 -11 104 -31 172 -38 67 -6 122 14 231 85 79 51 84
53 118 42 34 -12 60 -9 149 17 36 10 2 -14 -37 -27 -21 -6 -38 -16 -38 -21 0
-6 -4 -8 -9 -5 -5 4 -39 -7 -74 -24 -36 -16 -70 -30 -77 -30 -6 0 -8 -4 -5
-10 3 -5 -2 -11 -12 -12 -33 -2 -38 -3 -51 -11 -7 -5 -10 -12 -7 -17 3 -4 -3
-6 -13 -3 -10 2 -24 -3 -31 -11 -8 -9 -22 -16 -32 -16 -11 0 -19 -5 -19 -12 0
-6 -3 -8 -7 -5 -3 4 -14 0 -23 -8 -10 -9 -21 -15 -26 -14 -5 2 -31 -8 -59 -20
-106 -49 -213 -92 -222 -89 -5 1 -26 -6 -48 -16 -22 -10 -50 -22 -62 -27 -16
-6 -23 -17 -23 -36 0 -44 -11 -73 -27 -73 -8 0 -12 4 -9 9 4 5 1 11 -6 13 -7
3 -11 22 -10 51 4 63 -44 163 -93 196 -45 30 -44 43 3 40 43 -2 65 6 107 37
26 19 85 46 150 69 l20 7 -20 8 c-11 4 -24 5 -29 2 -5 -3 -23 -6 -39 -8 -16
-1 -33 -8 -38 -15 -5 -8 -9 -11 -9 -6 0 4 -19 -3 -42 -15 -24 -12 -45 -23 -48
-23 -3 -1 -22 -9 -44 -18 -21 -9 -44 -17 -50 -18 -21 -1 -71 -37 -68 -49 1 -7
4 -34 6 -61 5 -67 62 -182 88 -176 10 3 21 0 25 -5 3 -7 1 -8 -5 -4 -27 17 -9
-15 24 -42 50 -42 67 -44 116 -16 71 41 124 62 256 105 119 39 170 60 302 122
95 45 172 77 182 77 6 0 51 20 101 45 56 29 97 43 109 39 12 -3 31 3 51 18 66
50 81 42 139 -79 19 -40 38 -70 43 -65 5 4 5 2 2 -5 -10 -16 3 -44 16 -36 5 3
7 1 4 -4 -4 -6 0 -24 8 -39 8 -16 15 -33 15 -38 0 -5 12 -20 26 -33 l26 -24
20 20 c19 21 19 21 -11 21 -31 0 -51 22 -51 55 0 32 -110 246 -122 239 -6 -4
-8 -3 -5 4 9 13 -2 44 -13 37 -4 -3 -7 3 -6 13 0 10 -5 16 -13 14 -8 -2 -11 3
-8 13 6 14 -10 21 -36 16 -5 -1 -6 3 -3 7 3 5 18 7 32 4 26 -5 27 -4 19 34 -7
40 -24 79 -30 72 -2 -2 3 -23 11 -47 8 -24 13 -46 10 -48 -10 -10 -26 9 -26
31 0 13 -7 29 -15 36 -8 7 -15 21 -15 31 0 10 -4 20 -9 23 -9 6 9 56 20 56 10
0 20 -31 13 -41 -3 -6 6 -21 20 -34 14 -13 26 -31 26 -39 0 -8 8 -23 18 -33
10 -10 27 -40 36 -68 25 -68 41 -106 89 -203 22 -46 40 -89 40 -96 0 -8 8 -11
20 -8 17 4 18 7 5 16 -9 6 -36 61 -61 122 -25 61 -68 161 -96 223 -28 61 -58
135 -65 164 -8 28 -19 65 -25 81 -13 32 2 61 26 52 7 -3 13 1 13 9 0 8 0 18 1
22 0 4 -5 9 -12 12 -6 2 -9 -1 -6 -7 7 -10 -20 -39 -28 -30 -7 6 18 68 27 68
9 0 42 110 34 117 -3 3 -23 -23 -46 -58z m-7 -223 c6 -16 -2 -28 -14 -20 -12
7 -11 34 0 34 5 0 11 -6 14 -14z m-47 -143 c0 -10 -7 -22 -13 -26 -7 -4 -13
-13 -13 -20 0 -10 -61 -57 -74 -57 -3 0 15 21 39 46 25 25 45 52 45 60 0 8 4
14 9 14 5 0 8 -8 7 -17z m-36 -193 c0 -5 -6 -10 -14 -10 -8 0 -23 -3 -33 -6
-10 -3 -7 2 7 10 30 18 40 20 40 6z m-312 -107 c-10 -2 -18 -9 -18 -14 0 -13
-17 -11 -23 4 -3 8 6 12 27 13 17 1 23 -1 14 -3z m-49 -27 c-20 -17 -49 -25
-55 -14 -4 6 -3 8 2 5 6 -3 16 -2 24 4 14 8 38 13 29 5z m-70 -42 c-7 -8 -18
-13 -26 -10 -7 3 -13 1 -13 -4 0 -15 -41 -23 -54 -10 -8 10 -7 12 7 7 11 -4
20 -1 23 8 4 8 9 13 14 10 4 -2 16 2 26 9 23 17 39 10 23 -10z m-99 -45 c0 -4
-19 -13 -41 -19 -23 -6 -49 -15 -58 -20 -9 -5 -49 -21 -89 -35 -40 -13 -85
-31 -101 -40 -28 -14 -29 -13 -34 10 -3 20 0 25 17 26 49 3 106 19 106 30 0 5
8 9 17 9 26 0 153 43 153 52 0 4 7 5 15 2 8 -4 15 -10 15 -15z m-365 -139 c3
-5 1 -10 -4 -10 -6 0 -11 5 -11 10 0 6 2 10 4 10 3 0 8 -4 11 -10z"/>
<path d="M3485 8221 c-11 -5 -24 -6 -28 -4 -4 3 -14 -1 -22 -7 -10 -8 -15 -9
-15 -2 0 6 -7 9 -15 6 -8 -4 -15 -12 -15 -19 0 -7 -13 -16 -30 -20 -16 -4 -30
-13 -30 -20 0 -10 7 -12 28 -5 38 10 162 68 162 75 0 7 -10 5 -35 -4z"/>
<path d="M7566 8215 c-9 -26 -7 -32 5 -12 6 10 9 21 6 23 -2 3 -7 -2 -11 -11z"/>
<path d="M11450 8209 c0 -5 5 -7 10 -4 6 3 10 8 10 11 0 2 -4 4 -10 4 -5 0
-10 -5 -10 -11z"/>
<path d="M11375 8180 c-33 -16 -57 -29 -53 -29 10 -1 118 49 118 54 0 7 1 7
-65 -25z"/>
<path d="M3260 8135 c-25 -13 -53 -24 -62 -25 -10 0 -18 -5 -18 -10 0 -6 -6
-10 -12 -9 -17 3 -143 -55 -174 -80 -13 -10 -20 -21 -17 -25 3 -3 -1 -6 -10
-6 -9 0 -17 -5 -17 -11 0 -6 19 0 43 13 23 14 58 34 79 46 20 11 39 18 42 15
3 -4 6 1 6 9 0 12 6 14 22 10 14 -3 19 -1 14 6 -4 8 -2 10 7 6 8 -3 18 -1 22
5 3 6 17 11 31 11 14 0 22 4 19 10 -3 6 1 10 9 10 9 0 16 5 16 11 0 6 8 8 18
5 22 -7 50 10 37 23 -6 6 -26 1 -55 -14z"/>
<path d="M11255 8133 c-15 -8 -25 -17 -22 -19 4 -4 77 23 77 29 0 8 -30 2 -55
-10z"/>
<path d="M7525 8131 c-3 -5 -1 -12 5 -16 5 -3 10 1 10 9 0 18 -6 21 -15 7z"/>
<path d="M8515 8130 c3 -5 11 -10 16 -10 6 0 7 5 4 10 -3 6 -11 10 -16 10 -6
0 -7 -4 -4 -10z"/>
<path d="M8560 8121 c0 -7 4 -9 10 -6 5 3 19 1 30 -5 14 -7 26 -8 38 -1 15 9
14 10 -8 11 -14 0 -35 3 -47 6 -14 4 -23 2 -23 -5z"/>
<path d="M11660 8083 c-33 -12 -60 -47 -60 -79 0 -36 10 -47 63 -64 91 -29
156 43 110 121 -15 25 -23 29 -58 28 -22 0 -47 -3 -55 -6z"/>
<path d="M7486 8058 c3 -4 9 -8 15 -8 5 0 9 4 9 8 0 5 -7 9 -15 9 -8 0 -12 -4
-9 -9z"/>
<path d="M7460 8014 c-6 -14 -10 -34 -10 -45 0 -11 -7 -31 -16 -45 -14 -20
-15 -27 -4 -37 10 -10 12 -9 7 4 -3 9 0 25 7 35 7 11 18 33 23 49 6 17 14 38
18 48 4 10 3 17 -4 17 -6 0 -16 -12 -21 -26z"/>
<path d="M12622 7956 c-44 -31 -55 -45 -17 -21 52 32 70 45 60 45 -6 -1 -25
-11 -43 -24z"/>
<path d="M11318 7943 c-19 -10 -29 -24 -34 -49 -5 -30 -2 -40 22 -65 30 -32
65 -37 111 -17 34 15 43 26 43 54 0 26 -34 59 -80 77 -30 12 -39 12 -62 0z"/>
<path d="M12525 7893 c-22 -15 -62 -38 -90 -53 -57 -29 -98 -53 -105 -60 -3
-3 -72 -43 -153 -90 -82 -46 -144 -86 -138 -88 6 -2 16 2 23 8 7 6 104 62 215
125 191 107 293 170 293 180 0 7 -1 6 -45 -22z"/>
<path d="M7416 7853 c-6 -14 -5 -15 5 -6 7 7 10 15 7 18 -3 3 -9 -2 -12 -12z"/>
<path d="M8797 7776 c28 -24 39 -27 80 -22 27 2 63 5 82 5 60 2 25 13 -41 14
-35 0 -67 3 -73 6 -5 3 -15 6 -21 7 -6 1 -22 5 -35 9 -21 7 -20 4 8 -19z"/>
<path d="M9788 7793 c7 -3 16 -2 19 1 4 3 -2 6 -13 5 -11 0 -14 -3 -6 -6z"/>
<path d="M7416 7734 c-8 -20 -8 -24 2 -24 4 0 8 9 9 20 2 24 -3 26 -11 4z"/>
<path d="M10112 7706 c7 -8 15 -12 17 -11 5 6 -10 25 -20 25 -5 0 -4 -6 3 -14z"/>
<path d="M7412 7680 c0 -14 2 -19 5 -12 2 6 2 18 0 25 -3 6 -5 1 -5 -13z"/>
<path d="M7400 7609 c0 -5 5 -7 10 -4 6 3 10 8 10 11 0 2 -4 4 -10 4 -5 0 -10
-5 -10 -11z"/>
<path d="M11949 7560 c-37 -21 -83 -43 -103 -50 -20 -6 -36 -16 -36 -20 0 -5
-6 -7 -13 -5 -6 3 -18 -4 -24 -15 -12 -18 -11 -19 10 -11 33 13 105 50 172 89
70 41 70 41 64 46 -2 2 -34 -13 -70 -34z"/>
<path d="M2310 7560 c-9 -6 -10 -10 -3 -10 6 0 15 5 18 10 8 12 4 12 -15 0z"/>
<path d="M2259 7523 c-13 -15 -12 -15 9 -4 23 12 28 21 13 21 -5 0 -15 -7 -22
-17z"/>
<path d="M2215 7490 c-3 -5 -2 -10 4 -10 5 0 13 5 16 10 3 6 2 10 -4 10 -5 0
-13 -4 -16 -10z"/>
<path d="M6416 7450 c9 -34 34 -70 34 -50 0 8 -9 29 -21 45 -19 28 -20 28 -13
5z"/>
<path d="M11705 7444 c-54 -36 -62 -44 -36 -37 11 3 21 9 21 14 0 5 5 9 10 9
6 0 20 9 32 20 30 27 20 25 -27 -6z"/>
<path d="M2155 7450 c-3 -5 -1 -10 4 -10 6 0 11 5 11 10 0 6 -2 10 -4 10 -3 0
-8 -4 -11 -10z"/>
<path d="M2110 7404 c0 -8 5 -12 10 -9 6 4 8 11 5 16 -9 14 -15 11 -15 -7z"/>
<path d="M6477 7343 c25 -102 26 -122 12 -139 -7 -9 -15 -26 -16 -39 -3 -19 1
-22 24 -22 25 0 25 0 6 11 -33 18 -16 36 35 37 40 0 44 2 26 11 -26 12 -64 86
-71 139 -3 21 -11 43 -18 49 -9 8 -9 -3 2 -47z"/>
<path d="M11510 7360 c-18 -12 -2 -12 25 0 13 6 15 9 5 9 -8 0 -22 -4 -30 -9z"/>
<path d="M6961 7126 c6 -7 40 -12 86 -15 17 -1 21 -5 16 -18 -4 -11 -3 -14 5
-9 13 8 132 -20 146 -34 6 -6 18 -10 27 -10 10 0 19 -5 21 -10 2 -6 14 -12 27
-15 12 -2 29 -9 37 -16 8 -6 14 -8 14 -3 0 5 4 5 8 -1 10 -15 49 -35 67 -35 8
0 15 -4 15 -8 0 -5 14 -19 31 -31 25 -19 33 -21 40 -10 10 16 5 21 67 -71 90
-134 230 -249 412 -337 130 -62 156 -73 178 -73 11 0 22 -3 24 -8 6 -13 116
-43 140 -37 13 3 43 -1 68 -10 50 -18 98 -29 89 -21 -8 8 -199 76 -199 71 0
-9 -168 68 -235 107 -38 23 -107 69 -151 104 -81 63 -194 171 -194 186 0 4
-10 8 -23 8 -25 0 -65 38 -116 109 -28 40 -36 45 -77 48 -26 1 -52 7 -58 11
-11 9 -90 36 -266 91 -91 29 -212 51 -199 37z m657 -307 c19 -30 11 -32 -11
-3 -10 13 -14 24 -10 24 5 0 14 -9 21 -21z m228 -190 c19 -22 19 -22 -3 -10
-24 12 -39 31 -25 31 5 0 17 -10 28 -21z"/>
<path d="M5510 6941 c-136 -70 -189 -104 -242 -159 -56 -57 -77 -89 -40 -61
14 11 15 11 5 -1 -7 -8 -21 -15 -30 -16 -10 -2 -19 -7 -21 -12 -2 -6 -13 -22
-26 -37 -15 -17 -22 -35 -18 -48 4 -15 1 -19 -10 -15 -8 4 -20 -3 -28 -15 -12
-20 -12 -21 4 -8 24 20 33 5 10 -16 -28 -25 -84 -105 -100 -143 -15 -37 -29
-65 -35 -70 -10 -8 -39 -68 -39 -80 0 -17 17 -11 24 8 5 17 26 52 36 62 3 3
25 35 49 72 23 37 46 68 49 70 4 2 25 26 47 53 87 111 117 140 220 217 79 60
101 78 78 64 -9 -5 -11 -2 -7 8 3 9 10 16 15 16 5 0 9 6 9 13 0 7 12 23 28 35
15 12 42 34 60 48 30 24 42 45 25 44 -5 -1 -33 -14 -63 -29z m-308 -333 c-7
-7 -12 -8 -12 -2 0 14 12 26 19 19 2 -3 -1 -11 -7 -17z"/>
<path d="M5465 6820 c-3 -6 1 -7 9 -4 18 7 21 14 7 14 -6 0 -13 -4 -16 -10z"/>
<path d="M11599 6748 c6 -15 22 -49 36 -77 14 -28 32 -80 40 -115 18 -77 20
-225 5 -281 -6 -22 -13 -47 -14 -55 -1 -8 -8 -25 -15 -38 -7 -13 -10 -30 -7
-37 3 -8 -3 -17 -15 -20 -11 -4 -18 -12 -16 -18 2 -6 -5 -20 -15 -31 -10 -12
-26 -30 -35 -41 -10 -11 -18 -24 -18 -30 -1 -5 -6 -9 -13 -7 -7 1 -12 -8 -12
-20 -1 -26 -26 -65 -36 -55 -4 4 -13 2 -20 -4 -25 -20 -84 -47 -84 -37 0 5 -4
6 -10 3 -12 -7 -11 -14 -15 110 -2 55 -7 116 -11 135 -4 19 -6 41 -5 48 1 6
-3 12 -9 12 -5 0 -9 3 -8 8 6 22 -71 212 -85 212 -2 0 8 -35 23 -77 77 -219
77 -428 0 -847 -9 -44 -8 -61 0 -66 9 -6 8 -13 -2 -31 -7 -13 -16 -26 -19 -29
-3 -3 -12 -23 -21 -45 -18 -45 -83 -180 -101 -210 -46 -75 -58 -98 -52 -103 9
-9 52 42 69 82 8 20 22 39 30 42 8 3 12 12 9 20 -3 8 0 14 6 14 6 0 10 3 9 8
-5 14 41 82 54 80 7 -2 12 3 10 11 -1 7 3 18 11 25 7 6 24 36 37 66 12 30 34
78 47 106 28 61 58 150 73 217 11 51 33 83 50 72 5 -3 12 -22 16 -43 4 -20 10
-42 15 -47 4 -6 10 -37 12 -68 5 -56 17 -92 17 -49 0 13 6 22 15 22 8 0 15 -4
15 -10 0 -5 -4 -10 -9 -10 -5 0 -10 -39 -9 -87 0 -65 -7 -110 -25 -170 -13
-45 -20 -84 -15 -85 11 -4 -56 -210 -82 -253 -10 -16 -46 -84 -80 -149 -43
-84 -58 -121 -49 -126 6 -5 8 -13 4 -20 -5 -9 -4 -11 3 -6 7 4 12 13 12 19 0
20 110 230 139 267 32 41 61 93 61 112 0 9 -3 9 -10 -2 -16 -25 -11 -5 10 41
11 24 20 37 20 29 1 -8 8 -3 16 13 13 25 13 29 -1 43 -17 17 -20 28 -5 19 6
-3 10 0 10 7 0 7 9 19 20 26 19 12 20 20 15 150 -2 75 -9 173 -15 217 -19 140
-20 212 -5 249 8 19 19 37 23 40 5 3 17 30 26 61 10 30 22 52 27 49 5 -3 7
-10 4 -15 -4 -5 -2 -9 3 -9 5 0 15 11 22 25 7 14 17 25 22 25 4 0 8 7 8 16 0
9 5 12 12 8 6 -4 8 -3 5 2 -3 6 8 36 24 68 17 34 26 63 22 67 -5 5 -18 -12
-30 -39 -21 -48 -79 -119 -89 -109 -3 3 9 33 26 68 45 89 57 134 59 230 3 150
-51 344 -119 429 l-20 25 9 -27z m-39 -1122 c0 -3 -4 -8 -10 -11 -5 -3 -10 -1
-10 4 0 6 5 11 10 11 6 0 10 -2 10 -4z m-10 -46 c0 -5 -2 -10 -4 -10 -3 0 -8
5 -11 10 -3 6 -1 10 4 10 6 0 11 -4 11 -10z m-260 -130 c0 -5 -5 -10 -11 -10
-5 0 -7 5 -4 10 3 6 8 10 11 10 2 0 4 -4 4 -10z m267 -182 c-3 -8 -6 -5 -6 6
-1 11 2 17 5 13 3 -3 4 -12 1 -19z"/>
<path d="M11903 6444 c-7 -7 -13 -21 -13 -31 0 -15 3 -14 16 5 18 26 15 47 -3
26z"/>
<path d="M11932 6409 c-19 -21 -31 -43 -27 -49 4 -6 8 -41 9 -78 3 -66 31
-146 48 -136 4 3 8 -5 8 -18 1 -25 26 -65 36 -56 3 4 0 16 -6 28 -12 22 -17
53 -26 145 -7 74 -7 75 -4 138 2 31 1 59 -1 60 -2 2 -19 -14 -37 -34z"/>
<path d="M11866 6335 c-3 -8 -1 -15 3 -15 5 0 11 7 15 15 3 8 1 15 -3 15 -5 0
-11 -7 -15 -15z"/>
<path d="M11844 6291 c5 -8 3 -16 -5 -22 -7 -4 -10 -11 -7 -15 4 -3 14 0 22 9
14 13 14 16 -1 29 -14 11 -16 11 -9 -1z"/>
<path d="M4896 6175 c-14 -41 -31 -97 -36 -125 -5 -29 -12 -56 -15 -61 -25
-40 -40 -518 -17 -541 16 -16 26 16 13 40 -8 15 -8 21 1 24 8 3 8 10 1 23 -6
11 -7 29 -3 40 3 10 3 39 -2 65 -17 82 0 260 37 396 19 68 43 141 54 162 19
36 19 52 1 52 -4 0 -19 -34 -34 -75z"/>
<path d="M9579 5960 c-4 -10 11 -26 45 -49 59 -39 205 -157 223 -179 7 -8 34
-38 61 -66 26 -28 69 -80 95 -116 25 -36 62 -83 81 -104 19 -21 43 -55 53 -75
10 -19 31 -57 46 -84 15 -27 26 -52 23 -55 -3 -2 3 -17 14 -32 11 -15 21 -36
23 -46 1 -11 6 -25 10 -31 5 -7 4 -13 -2 -13 -5 0 -5 -12 2 -30 6 -16 15 -30
20 -30 4 0 6 -3 4 -7 -3 -5 -1 -30 4 -58 40 -238 41 -315 3 -411 -15 -38 -31
-75 -37 -81 -5 -7 -7 -20 -3 -28 3 -9 2 -14 -3 -11 -8 5 -17 -13 -26 -49 -1
-5 -3 -14 -5 -20 -1 -5 -1 -21 0 -34 1 -15 -2 -21 -9 -16 -6 3 -8 11 -5 17 5
7 2 8 -5 3 -7 -4 -11 -16 -8 -26 3 -11 1 -19 -5 -19 -5 0 -6 -4 -3 -10 3 -5 1
-10 -5 -10 -7 0 -10 -7 -6 -15 3 -8 0 -14 -6 -12 -7 1 -13 -2 -13 -8 -3 -20
-25 -66 -47 -95 -12 -16 -19 -32 -17 -35 3 -2 18 16 35 42 16 26 34 51 39 57
53 58 118 141 147 186 42 67 65 88 65 62 0 -9 -5 -23 -11 -31 -9 -11 -5 -12
24 -6 74 16 158 46 170 60 7 8 22 15 34 15 51 0 203 135 281 251 17 24 33 46
38 47 4 2 7 8 7 14 0 5 9 17 21 26 11 10 21 24 22 34 2 9 8 22 14 30 15 17 54
108 47 108 -2 0 0 10 7 21 8 15 8 23 0 28 -7 5 -2 23 13 54 14 26 22 47 19 47
-3 0 0 6 6 14 9 10 8 15 -4 20 -8 3 -15 1 -15 -4 0 -5 -11 -34 -25 -64 -14
-30 -25 -59 -25 -65 0 -6 -11 -35 -25 -65 -14 -30 -25 -60 -25 -65 0 -6 -4
-11 -9 -11 -5 0 -12 -8 -15 -17 -9 -26 -27 -53 -66 -102 -19 -23 -35 -50 -35
-59 0 -10 -7 -16 -15 -15 -8 2 -31 -11 -50 -28 -43 -37 -154 -104 -197 -120
-18 -6 -33 -14 -33 -18 0 -5 -14 -8 -30 -9 -17 0 -43 -7 -60 -15 -16 -8 -31
-13 -34 -10 -4 4 43 110 64 143 31 48 54 140 35 140 -19 0 -38 27 -25 35 5 3
10 -1 10 -9 0 -28 19 -17 28 17 12 48 15 187 3 187 -6 0 -7 8 -4 17 5 13 2 15
-13 10 -18 -7 -18 -7 0 7 19 15 13 41 -8 33 -21 -8 -16 35 7 54 13 12 16 17 6
14 -11 -4 -15 0 -15 17 1 17 -4 22 -19 20 -17 -2 -16 0 5 12 22 13 21 21 -2
17 -4 0 -6 7 -5 17 0 13 -68 122 -77 122 -1 0 -2 -15 -2 -34 0 -19 4 -32 8
-30 4 3 8 -10 8 -28 0 -18 12 -67 25 -108 14 -41 25 -83 25 -93 0 -12 4 -16
13 -11 9 5 9 4 0 -6 -7 -8 -19 -10 -30 -5 -10 5 -23 7 -29 6 -7 -1 -14 13 -18
31 -9 47 -189 330 -243 382 -13 11 -23 27 -23 34 0 6 -7 12 -15 12 -8 0 -15 7
-15 15 0 9 -7 18 -16 22 -8 3 -13 12 -10 19 3 8 0 11 -10 7 -7 -3 -14 1 -14 8
0 7 -3 10 -6 6 -5 -5 -54 40 -54 50 0 2 9 -1 21 -7 11 -7 24 -9 27 -5 3 3 -4
8 -16 12 -12 3 -22 10 -22 15 0 5 -4 7 -9 3 -5 -3 -12 -1 -16 4 -3 6 -12 8
-20 4 -9 -3 -15 1 -15 11 0 9 -3 15 -7 15 -23 -4 -35 3 -29 16 3 9 0 15 -9 15
-8 0 -26 11 -40 26 -14 14 -29 23 -33 21 -10 -7 -32 19 -24 29 4 4 -2 4 -13 0
-11 -4 -16 -4 -12 0 11 11 -13 33 -29 27 -9 -3 -14 1 -14 13 0 18 -76 81 -86
72 -2 -3 7 -11 21 -18 14 -7 25 -17 25 -22 0 -14 -57 20 -64 37 -3 9 -10 14
-15 11 -5 -4 -11 2 -13 11 -3 15 -5 15 -9 3z m386 -279 c3 -5 1 -12 -5 -16 -5
-3 -10 1 -10 9 0 18 6 21 15 7z m136 -168 c13 -16 12 -17 -3 -4 -10 7 -18 15
-18 17 0 8 8 3 21 -13z m54 -63 c3 -5 2 -10 -4 -10 -5 0 -13 5 -16 10 -3 6 -2
10 4 10 5 0 13 -4 16 -10z m45 -83 c0 -4 -6 -2 -14 5 -8 7 -12 17 -9 22 5 8
23 -12 23 -27z m55 -127 c17 -18 17 -20 2 -14 -13 5 -16 2 -11 -12 5 -15 4
-16 -4 -4 -6 8 -8 18 -5 23 3 5 -1 13 -8 18 -8 5 -9 9 -3 9 6 0 19 -9 29 -20z
m25 -46 c0 -8 -5 -12 -10 -9 -6 4 -8 11 -5 16 9 14 15 11 15 -7z m-11 -28 c7
-8 8 -17 3 -20 -6 -3 -12 3 -15 14 -6 24 -4 25 12 6z m95 -55 c3 -5 -2 -15
-12 -22 -15 -12 -16 -12 -5 2 7 9 10 19 6 22 -3 4 -4 7 0 7 3 0 8 -4 11 -9z
m-54 -56 c0 -5 -5 -3 -10 5 -5 8 -10 20 -10 25 0 6 5 3 10 -5 5 -8 10 -19 10
-25z m65 5 c3 -5 -1 -10 -10 -10 -9 0 -13 5 -10 10 3 6 8 10 10 10 2 0 7 -4
10 -10z m81 -15 c-34 -18 -33 -18 -33 -2 0 6 14 13 31 14 l31 3 -29 -15z
m-107 -18 c11 19 11 20 2 -36 -1 -3 -6 0 -13 7 -9 9 -15 9 -27 -1 -14 -11 -14
-10 -2 6 9 11 10 17 2 17 -6 0 -11 5 -11 12 0 6 8 4 19 -6 18 -17 20 -17 30 1z
m141 3 c-8 -5 -19 -10 -25 -10 -5 0 -3 5 5 10 8 5 20 10 25 10 6 0 3 -5 -5
-10z m-103 -20 c-1 -11 -5 -20 -9 -20 -10 0 -10 4 -2 24 8 22 13 20 11 -4z
m73 -21 c0 -5 -4 -9 -8 -9 -5 0 -9 7 -9 15 0 8 4 12 9 9 4 -3 8 -9 8 -15z m40
7 c0 -2 -7 -7 -16 -10 -8 -3 -12 -2 -9 4 6 10 25 14 25 6z m-36 -51 c3 -8 2
-14 -2 -14 -20 3 -23 -3 -11 -18 12 -14 12 -16 0 -8 -11 6 -13 3 -9 -13 8 -29
-8 -38 -22 -12 -7 13 -7 20 0 20 5 0 10 8 10 18 0 10 5 23 12 30 15 15 15 15
22 -3z m-99 -35 c-5 -22 -3 -32 9 -36 22 -8 20 -23 -1 -19 -10 1 -17 8 -15 14
2 10 -11 15 -30 12 -4 0 -5 6 -2 14 3 8 11 13 17 12 6 -1 12 4 13 11 3 19 4
22 10 22 3 0 3 -14 -1 -30z m90 -78 c3 -9 1 -18 -4 -20 -6 -2 -9 -8 -5 -13 3
-5 0 -9 -6 -9 -6 0 -8 -4 -5 -10 3 -5 0 -10 -7 -10 -9 0 -9 -3 2 -10 8 -5 10
-10 4 -10 -6 0 -18 8 -25 17 -8 9 -9 14 -3 10 7 -4 12 3 12 18 0 14 -5 28 -10
31 -13 9 11 34 27 28 7 -3 16 -13 20 -22z m-71 -40 c3 -5 -1 -9 -9 -9 -8 0
-12 4 -9 9 3 4 7 8 9 8 2 0 6 -4 9 -8z m42 -89 c-4 -4 -12 -1 -19 7 -9 10 -9
11 1 6 7 -4 12 -2 13 6 0 11 2 11 6 0 3 -7 2 -16 -1 -19z m-66 -12 c0 -10 -7
-22 -16 -25 -10 -4 -13 -2 -7 7 4 6 8 15 9 20 3 15 4 17 9 17 3 0 5 -9 5 -19z
m-5 -71 c3 -5 1 -10 -4 -10 -6 0 -11 5 -11 10 0 6 2 10 4 10 3 0 8 -4 11 -10z
m26 -45 c10 -19 9 -19 -4 -2 -15 18 -35 7 -23 -12 3 -5 -4 -8 -17 -7 -14 0
-24 8 -24 17 -1 12 4 15 20 12 18 -4 19 -3 7 6 -12 8 -10 10 8 8 13 -1 28 -11
33 -22z m-42 -51 c-8 -10 -16 -11 -30 -3 -22 11 -26 21 -5 13 8 -3 17 0 21 5
3 6 11 9 16 5 6 -4 6 -11 -2 -20z m1 -39 c0 -8 -4 -15 -10 -15 -5 0 -7 7 -4
15 4 8 8 15 10 15 2 0 4 -7 4 -15z"/>
<path d="M10420 4836 c0 -2 7 -7 16 -10 8 -3 12 -2 9 4 -6 10 -25 14 -25 6z"/>
<path d="M4698 5830 c-3 -19 -9 -44 -12 -55 -4 -11 1 -5 9 14 9 18 15 43 13
55 -3 15 -5 11 -10 -14z"/>
<path d="M4670 5715 c-8 -9 -8 -15 -2 -15 12 0 26 19 19 26 -2 2 -10 -2 -17
-11z"/>
<path d="M4650 5650 c0 -5 5 -10 11 -10 5 0 7 5 4 10 -3 6 -8 10 -11 10 -2 0
-4 -4 -4 -10z"/>
<path d="M4574 5558 c-5 -8 3 -12 18 -9 4 0 5 -6 2 -13 -4 -11 0 -13 15 -9 12
3 21 10 21 15 0 5 -4 6 -10 3 -5 -3 -10 0 -10 8 0 15 -28 19 -36 5z"/>
<path d="M11521 5454 c0 -11 3 -14 6 -6 3 7 2 16 -1 19 -3 4 -6 -2 -5 -13z"/>
<path d="M4606 5425 c-10 -20 -15 -41 -12 -48 3 -8 5 -7 5 3 1 8 8 28 16 44 9
16 14 31 11 33 -2 2 -11 -12 -20 -32z"/>
<path d="M4537 5428 c-8 -28 -1 -36 8 -9 3 11 14 22 23 24 13 4 12 5 -4 6 -14
1 -24 -6 -27 -21z"/>
<path d="M4832 5410 c0 -14 2 -19 5 -12 2 6 2 18 0 25 -3 6 -5 1 -5 -13z"/>
<path d="M4530 5384 c-13 -13 -20 -24 -15 -24 6 0 5 -4 -2 -8 -6 -4 -14 -19
-18 -33 -6 -24 -4 -26 19 -22 36 7 45 25 9 19 -24 -4 -26 -3 -10 7 35 23 60
47 48 47 -8 0 -10 7 -6 20 8 25 6 25 -25 -6z"/>
<path d="M11104 5343 c-3 -10 -17 -39 -30 -64 -28 -55 -29 -59 -8 -59 9 0 12
5 8 11 -4 7 4 20 17 31 13 11 18 16 10 12 -11 -6 -13 -3 -7 12 14 34 25 74 20
74 -3 0 -7 -8 -10 -17z"/>
<path d="M4859 5298 c-6 -20 -5 -38 2 -49 6 -10 9 -4 9 19 0 17 -2 32 -5 32
-3 0 -5 -1 -6 -2z"/>
<path d="M4469 5278 c-1 -7 -3 -28 -5 -47 -1 -18 -8 -38 -14 -45 -8 -8 -9 -4
0 18 9 26 9 28 -5 16 -8 -7 -13 -15 -11 -18 3 -3 -8 -22 -24 -42 -17 -21 -30
-40 -30 -43 0 -4 -11 -17 -25 -31 -26 -26 -32 -46 -15 -46 6 0 10 5 10 11 0 6
9 9 20 6 17 -4 20 -2 15 16 -5 16 -4 18 3 8 8 -11 10 -11 14 0 3 8 9 10 14 5
5 -5 4 -11 -3 -13 -7 -3 -13 -12 -13 -20 0 -10 -6 -13 -16 -9 -9 4 -22 2 -29
-4 -7 -6 -17 -9 -22 -8 -5 2 -36 -26 -69 -62 -32 -36 -52 -59 -43 -53 9 7 19
10 22 6 11 -11 36 18 31 35 -5 15 -4 15 9 0 8 -10 23 -18 33 -18 15 0 16 -2 5
-9 -8 -5 -19 -8 -25 -7 -6 2 -8 1 -3 -1 14 -8 7 -25 -8 -19 -14 5 -20 -6 -16
-28 1 -5 -6 -6 -15 -2 -12 5 -15 2 -10 -9 3 -9 2 -13 -4 -10 -6 3 -10 1 -10
-4 0 -25 27 -7 81 52 32 34 58 67 59 74 0 6 4 13 8 15 13 5 85 118 79 124 -3
3 4 15 15 26 21 21 18 34 -6 25 -8 -3 -18 -22 -22 -42 -6 -32 -8 -34 -19 -18
-11 14 -10 19 4 30 13 10 14 12 1 13 -9 0 -2 9 15 20 17 11 36 18 43 15 7 -3
10 0 7 5 -3 6 -2 10 3 10 6 0 12 7 16 15 3 9 0 15 -9 15 -8 0 -15 -7 -15 -15
0 -8 -4 -15 -10 -15 -11 0 9 51 24 61 5 4 -1 12 -13 18 -16 9 -21 9 -22 -1z
m-127 -265 c-10 -4 -9 -8 4 -18 19 -13 13 -46 -8 -44 -10 0 -10 2 0 6 15 6 16
33 1 33 -6 0 -13 -9 -16 -20 -6 -23 -23 -27 -23 -5 0 8 5 15 11 15 5 0 7 5 3
11 -7 11 13 29 31 28 6 0 4 -3 -3 -6z"/>
<path d="M4863 5180 c0 -25 2 -35 4 -22 2 12 2 32 0 45 -2 12 -4 2 -4 -23z"/>
<path d="M10486 5151 c-5 -8 -3 -16 5 -22 17 -11 32 -7 35 9 1 7 0 8 -3 2 -8
-16 -21 -12 -25 8 -3 13 -5 14 -12 3z"/>
<path d="M4861 5114 c0 -11 3 -14 6 -6 3 7 2 16 -1 19 -3 4 -6 -2 -5 -13z"/>
<path d="M11516 5074 c-5 -14 -4 -15 9 -4 17 14 19 20 6 20 -5 0 -12 -7 -15
-16z"/>
<path d="M4861 5044 c0 -11 3 -14 6 -6 3 7 2 16 -1 19 -3 4 -6 -2 -5 -13z"/>
<path d="M4865 4950 c3 -5 8 -10 11 -10 2 0 4 5 4 10 0 6 -5 10 -11 10 -5 0
-7 -4 -4 -10z"/>
<path d="M4883 4904 c-10 -9 -12 -57 -10 -176 2 -144 -15 -401 -29 -451 -3 -9
-9 -15 -13 -12 -7 4 -16 -35 -38 -170 -2 -16 -11 -43 -19 -59 -12 -25 -12 -27
2 -15 13 11 14 9 8 -17 -3 -16 -16 -37 -28 -46 l-21 -17 23 4 c27 5 29 -21 7
-84 -8 -23 -16 -52 -18 -64 -2 -12 -7 -29 -11 -38 -4 -9 -6 -20 -4 -25 3 -13
-20 -81 -47 -136 -13 -26 -19 -48 -15 -50 11 -3 -7 -76 -38 -155 -11 -29 -16
-53 -11 -53 14 0 11 -17 -6 -33 -8 -8 -11 -17 -8 -21 4 -3 2 -6 -4 -6 -6 0
-11 -10 -11 -22 0 -13 -3 -36 -6 -53 -13 -67 -12 -85 5 -90 25 -8 31 -32 13
-50 -14 -13 -14 -16 0 -21 9 -3 16 -15 16 -25 0 -26 57 -167 83 -203 11 -16
16 -27 10 -23 -7 5 -9 0 -6 -14 4 -15 8 -17 14 -8 4 8 11 10 15 6 4 -4 2 -13
-4 -19 -16 -16 -15 -29 1 -22 11 4 42 -50 38 -69 -1 -4 6 -10 14 -13 8 -3 12
-10 10 -15 -3 -5 2 -20 11 -34 9 -14 14 -34 11 -45 -3 -12 -1 -18 5 -14 6 4 8
1 6 -7 -3 -8 10 -44 29 -81 18 -38 33 -69 32 -70 -2 -3 25 -63 86 -193 23 -49
61 -135 84 -190 24 -55 53 -122 66 -150 12 -27 42 -95 65 -150 23 -55 50 -118
61 -140 31 -66 109 -255 109 -264 0 -19 63 -145 67 -133 3 6 12 12 21 12 13 0
12 3 -4 14 -18 14 -18 14 0 13 28 -3 30 17 3 44 -13 13 -27 42 -31 64 -12 69
-24 105 -41 125 -22 25 -75 131 -70 140 2 4 -5 18 -16 31 -27 31 -71 120 -99
200 -13 35 -30 79 -38 99 -9 19 -17 42 -19 50 -7 30 -16 50 -95 220 -17 36
-36 81 -43 100 -8 19 -30 73 -50 120 -20 47 -38 92 -40 100 -4 15 -96 255
-123 323 -9 20 -20 37 -25 37 -4 0 -6 4 -3 9 4 5 -3 30 -14 56 -11 26 -20 61
-20 78 0 18 -9 49 -20 69 -21 40 -42 110 -41 143 0 28 23 103 59 195 3 8 -11
-2 -31 -23 -37 -36 -57 -46 -57 -28 0 5 7 16 15 25 8 8 15 19 15 25 0 6 4 11
10 11 5 0 9 3 7 8 -2 9 39 119 95 251 37 86 39 96 24 107 -15 10 -15 12 -1 18
8 3 15 10 15 16 0 6 -4 8 -10 5 -6 -3 -7 1 -4 9 7 19 24 21 24 4 0 -18 20 13
20 31 0 11 -3 11 -15 1 -18 -15 -24 -11 -30 19 -2 12 0 19 6 16 5 -4 6 -12 3
-18 -5 -9 -4 -9 6 0 7 6 19 9 26 6 8 -3 14 0 14 6 0 6 -3 11 -7 10 -5 -1 -17
2 -29 6 -17 5 -20 13 -17 43 2 20 11 47 19 59 16 26 42 140 49 222 5 55 12
106 22 166 17 105 27 495 12 509 -2 2 -10 -2 -16 -10z m-39 -670 c3 -8 2 -12
-4 -9 -6 3 -10 10 -10 16 0 14 7 11 14 -7z m-4 -40 c0 -8 -5 -12 -10 -9 -6 4
-8 11 -5 16 9 14 15 11 15 -7z m-50 -445 c-7 -11 -14 -19 -16 -16 -7 7 7 37
17 37 6 0 5 -9 -1 -21z m-96 -694 c3 -8 1 -15 -4 -15 -6 0 -10 7 -10 15 0 8 2
15 4 15 2 0 6 -7 10 -15z"/>
<path d="M4195 4880 c-3 -11 -11 -20 -16 -20 -6 0 -7 -4 -4 -10 7 -12 26 -14
24 -2 -3 19 2 32 13 32 9 0 9 -3 1 -11 -8 -8 -8 -20 -1 -40 8 -23 12 -26 23
-16 11 10 11 13 -1 20 -9 5 -11 18 -7 37 4 23 2 30 -10 30 -9 0 -19 -9 -22
-20z"/>
<path d="M4143 4830 c-13 -5 -23 -14 -23 -20 0 -5 -6 -10 -13 -10 -9 0 -12
-10 -9 -31 3 -21 9 -29 19 -25 8 3 11 1 8 -4 -10 -17 -34 -11 -45 11 -7 11
-14 18 -17 16 -2 -3 1 -16 8 -29 11 -20 10 -21 -2 -11 -13 10 -15 4 -15 -42 0
-61 22 -78 32 -25 4 16 11 28 18 27 6 -1 10 4 9 11 -2 6 6 12 16 12 21 0 35
25 24 43 -4 7 1 6 10 -2 12 -9 17 -10 17 -2 0 7 5 9 11 5 8 -4 9 1 4 16 -5 15
-2 25 6 31 7 4 10 11 7 15 -4 4 -19 -1 -32 -10 -22 -14 -25 -14 -20 -1 4 8 13
15 21 15 8 0 11 5 8 10 -7 12 -13 12 -42 0z m-26 -62 c-3 -8 -6 -5 -6 6 -1 11
2 17 5 13 3 -3 4 -12 1 -19z m-37 -68 c0 -5 -2 -10 -4 -10 -3 0 -8 5 -11 10
-3 6 -1 10 4 10 6 0 11 -4 11 -10z"/>
<path d="M3780 4801 c0 -6 4 -13 10 -16 6 -3 7 1 4 9 -7 18 -14 21 -14 7z"/>
<path d="M3796 4757 c3 -10 9 -15 12 -12 3 3 0 11 -7 18 -10 9 -11 8 -5 -6z"/>
<path d="M3812 4735 c-11 -13 -10 -15 6 -15 10 0 19 7 19 15 0 19 -8 19 -25 0z"/>
<path d="M3817 4704 c-8 -8 3 -34 14 -34 5 0 9 9 9 20 0 19 -11 26 -23 14z"/>
<path d="M3840 4660 c-12 -7 -11 -12 5 -31 11 -12 14 -19 8 -15 -16 9 -16 12
1 -51 8 -29 12 -53 9 -53 -3 0 0 -7 7 -15 7 -9 10 -18 8 -21 -3 -3 -2 -22 3
-42 22 -98 29 -281 16 -404 -5 -48 -3 -68 6 -71 9 -4 9 -6 0 -6 -7 -1 -10 -8
-6 -17 3 -9 0 -20 -7 -24 -8 -5 -9 -13 -3 -25 11 -20 5 -65 -9 -65 -5 0 -6 -9
-3 -20 4 -12 2 -20 -5 -20 -7 0 -9 -7 -6 -16 3 -8 2 -13 -3 -10 -5 3 -11 -3
-14 -13 -3 -13 -1 -18 9 -14 10 4 11 0 1 -20 -6 -14 -14 -24 -18 -21 -3 2 -5
-8 -3 -21 1 -14 -6 -35 -15 -47 -10 -13 -18 -30 -19 -38 -1 -23 -9 -56 -20
-76 -38 -75 -61 -137 -56 -146 4 -7 2 -8 -4 -4 -7 4 -12 1 -12 -7 0 -8 -7 -20
-15 -27 -8 -7 -13 -23 -11 -36 3 -13 0 -27 -6 -30 -6 -4 -8 -2 -4 4 3 6 2 13
-3 16 -12 8 -22 -20 -14 -41 5 -12 3 -14 -7 -8 -10 6 -12 4 -7 -9 6 -14 3 -17
-8 -12 -9 3 -13 2 -10 -3 3 -5 1 -12 -4 -16 -6 -3 -8 -12 -4 -20 3 -8 1 -15
-3 -15 -5 0 -18 -18 -28 -40 -15 -31 -24 -39 -38 -34 -10 3 -18 0 -18 -6 0 -6
4 -9 9 -6 5 4 7 -3 4 -14 -3 -11 -10 -20 -15 -20 -5 0 -6 6 -2 13 4 6 -2 3
-14 -7 -12 -11 -22 -25 -22 -31 0 -7 -6 -15 -13 -18 -11 -4 -12 3 -6 36 5 23
13 75 19 115 5 40 12 77 15 81 2 5 7 60 9 122 l5 114 -28 -98 c-16 -54 -33
-108 -38 -120 -48 -104 -108 -250 -119 -287 -19 -68 -71 -195 -99 -245 -13
-25 -21 -45 -17 -45 4 0 2 -4 -4 -8 -6 -4 -23 -27 -38 -51 -16 -24 -76 -91
-134 -150 -58 -58 -105 -109 -104 -114 1 -4 -1 -6 -5 -6 -20 3 -26 -2 -13 -11
10 -6 11 -10 3 -10 -7 0 -13 -6 -13 -14 0 -8 -7 -17 -16 -20 -9 -4 -14 -9 -11
-12 3 -4 29 8 57 25 28 17 57 31 64 31 8 0 16 7 20 15 3 8 11 15 18 15 7 0 21
12 31 26 14 19 16 28 7 39 -9 11 -7 12 9 8 15 -4 22 1 27 21 4 18 13 26 28 26
17 0 18 -2 6 -10 -8 -5 -11 -10 -6 -10 5 0 2 -7 -5 -17 -13 -15 -12 -15 7 -5
11 6 38 39 59 74 21 35 43 66 48 69 5 3 8 9 8 13 -3 16 30 64 46 68 10 3 32
31 49 63 26 47 32 53 32 31 0 -14 -4 -23 -9 -20 -5 3 -9 -2 -9 -12 0 -30 28 4
45 56 9 27 23 54 31 60 7 7 14 19 14 26 0 8 7 14 15 14 8 0 15 7 15 15 0 8 7
15 15 15 8 0 15 3 15 8 0 4 22 32 50 62 27 30 52 63 55 73 4 9 11 17 16 17 5
0 9 7 9 15 0 9 7 18 16 22 8 3 13 12 10 19 -3 8 -2 14 2 14 4 0 25 30 46 67
21 37 47 75 57 86 20 22 42 77 31 78 -4 0 3 4 16 9 12 5 22 17 22 27 0 10 7
31 15 46 8 15 16 36 17 45 2 9 8 22 14 27 22 20 44 96 44 153 1 31 9 92 19
134 17 71 17 79 3 100 -15 21 -15 22 0 10 15 -12 18 -10 23 20 3 18 4 45 1 61
-2 15 -2 27 2 27 10 0 8 167 -2 177 -5 4 -7 4 -4 -2 7 -13 -10 -127 -21 -138
-4 -4 -9 14 -10 40 -2 50 -3 60 -14 103 -7 25 -15 88 -22 170 -2 25 -6 57 -9
72 -4 16 -8 40 -11 55 -15 94 -25 136 -34 147 -6 7 -8 16 -4 19 9 10 0 8 -17
-3z m-320 -1640 c0 -5 -5 -10 -11 -10 -5 0 -7 5 -4 10 3 6 8 10 11 10 2 0 4
-4 4 -10z m-195 -200 c3 -5 1 -10 -4 -10 -6 0 -11 5 -11 10 0 6 2 10 4 10 3 0
8 -4 11 -10z m-160 -329 c-9 -16 -25 -3 -18 15 4 10 9 12 15 6 6 -6 7 -15 3
-21z"/>
<path d="M4040 4598 c0 -19 2 -20 10 -8 13 19 13 30 0 30 -5 0 -10 -10 -10
-22z"/>
<path d="M11245 4586 c-18 -37 -45 -64 -32 -33 4 10 9 25 12 35 5 15 4 14 -7
-2 -39 -56 -138 -206 -137 -209 0 -1 -5 -15 -11 -31 -6 -16 -8 -36 -6 -43 3
-8 1 -11 -4 -8 -5 3 -19 -14 -31 -37 -12 -24 -27 -50 -34 -58 -15 -17 -75
-134 -75 -145 0 -4 7 -4 16 -1 13 5 14 4 6 -7 -7 -8 -8 -18 -4 -22 4 -5 2 -5
-5 -1 -14 8 -52 -43 -46 -61 3 -7 -2 -16 -11 -19 -12 -5 -13 -10 -5 -26 6 -11
8 -22 5 -26 -3 -3 -6 0 -6 6 0 7 -4 12 -10 12 -5 0 -10 -7 -10 -15 0 -8 5 -15
11 -15 5 0 8 -4 4 -10 -3 -5 -13 -6 -23 -3 -15 6 -15 5 -3 -10 11 -14 11 -17
0 -17 -9 0 -14 -12 -14 -37 0 -25 -5 -38 -13 -38 -14 0 -42 -32 -42 -47 0 -4
7 -8 15 -8 8 0 15 -7 15 -16 0 -10 -6 -14 -15 -10 -8 3 -15 1 -15 -3 0 -5 4
-11 10 -13 16 -5 -1 -48 -20 -48 -16 0 -38 -46 -27 -57 3 -2 7 8 11 22 4 14
11 25 17 25 7 0 9 -9 5 -22 -6 -21 -13 -46 -15 -57 -1 -2 -8 2 -17 9 -12 11
-15 11 -12 -1 2 -8 9 -19 17 -25 12 -9 10 -14 -12 -29 -15 -9 -25 -20 -22 -24
2 -4 -2 -25 -9 -46 -13 -38 -11 -75 4 -75 5 0 5 -14 0 -31 -7 -22 -6 -29 3
-26 7 2 16 23 20 48 42 236 96 405 197 616 39 81 78 164 87 183 26 56 38 80
92 183 29 53 49 102 45 109 -4 6 -3 9 2 6 9 -6 36 17 33 28 -1 3 20 39 46 80
26 41 45 77 42 80 -3 3 -13 -11 -22 -30z m-85 -136 c0 -5 -5 -10 -11 -10 -5 0
-7 5 -4 10 3 6 8 10 11 10 2 0 4 -4 4 -10z m-40 -60 c0 -5 -2 -10 -4 -10 -3 0
-8 5 -11 10 -3 6 -1 10 4 10 6 0 11 -4 11 -10z m-318 -652 c-7 -7 -12 -8 -12
-2 0 14 12 26 19 19 2 -3 -1 -11 -7 -17z m-78 -313 c-4 -8 -8 -15 -10 -15 -2
0 -4 7 -4 15 0 8 4 15 10 15 5 0 7 -7 4 -15z"/>
<path d="M4025 4560 c3 -5 8 -10 11 -10 2 0 4 5 4 10 0 6 -5 10 -11 10 -5 0
-7 -4 -4 -10z"/>
<path d="M6586 4505 c-8 -19 -35 -66 -60 -105 -25 -39 -46 -74 -46 -79 0 -4
-15 -25 -33 -47 -18 -21 -44 -55 -57 -74 -31 -46 -137 -176 -175 -215 -17 -16
-47 -50 -67 -75 -20 -25 -60 -70 -89 -100 -29 -30 -60 -68 -69 -83 -10 -16
-84 -98 -165 -182 -147 -154 -233 -259 -277 -336 -18 -33 -23 -37 -29 -22 -6
15 -9 13 -19 -12 -7 -16 -12 -38 -12 -48 0 -9 -4 -15 -9 -11 -6 3 -9 0 -8 -7
1 -8 0 -21 -4 -29 -31 -83 -35 -117 -36 -300 -1 -120 5 -228 14 -288 8 -54 17
-119 19 -147 9 -82 15 -117 31 -185 34 -138 57 -217 77 -270 40 -106 100 -255
119 -299 25 -54 22 -83 -11 -91 -25 -6 -25 -6 5 -12 17 -4 44 -20 60 -36 40
-39 79 -150 78 -222 0 -34 5 -59 14 -69 42 -42 40 79 -4 209 -33 100 -32 137
3 151 62 23 104 -2 104 -60 0 -35 30 -134 42 -139 4 -2 5 -16 2 -31 -4 -16 -1
-32 5 -35 6 -4 11 -16 11 -27 0 -11 -3 -18 -7 -16 -12 8 -10 -47 1 -55 21 -14
-8 -23 -70 -20 -53 2 -62 0 -58 -13 4 -10 0 -15 -11 -15 -12 0 -15 5 -11 16 4
10 2 14 -6 11 -7 -2 -12 -10 -10 -16 3 -14 -175 -14 -184 0 -3 5 -10 7 -15 3
-5 -3 -26 -8 -47 -10 -20 -3 -40 -8 -44 -12 -10 -10 531 -6 572 5 l35 9 -2
140 c-3 167 -6 184 -34 179 -14 -3 -19 0 -16 9 6 15 -39 63 -49 53 -3 -3 3
-12 15 -19 12 -7 21 -20 21 -28 0 -12 -2 -13 -9 -1 -5 8 -18 12 -29 9 -20 -6
-47 5 -47 19 0 13 -43 52 -50 45 -3 -4 -3 1 0 10 6 16 -3 22 -58 38 -21 7 -29
5 -34 -5 -3 -8 -9 -12 -14 -9 -5 3 -7 9 -4 14 3 4 -4 6 -15 3 -11 -3 -23 -9
-26 -14 -3 -5 -9 -9 -14 -9 -10 0 -154 290 -170 345 -7 22 -15 45 -19 50 -9
14 -38 130 -72 285 -30 141 -44 330 -44 605 0 103 4 127 23 169 23 50 29 72
12 46 -5 -8 -12 -11 -16 -7 -9 9 26 48 37 42 4 -3 11 1 16 9 4 8 33 42 63 76
30 35 65 78 76 97 12 19 26 33 30 32 5 -1 14 7 19 17 15 28 186 189 197 186 5
-1 7 2 3 8 -3 5 5 15 19 21 13 6 27 21 30 33 6 22 16 34 171 201 146 158 156
171 149 191 -4 14 -3 16 4 5 7 -10 28 10 86 83 42 52 76 99 76 104 0 5 10 17
23 28 82 70 134 61 303 -53 22 -15 67 -45 100 -67 86 -56 87 -57 53 -123 -16
-31 -27 -64 -24 -74 8 -24 -5 -51 -21 -45 -19 7 -68 -95 -51 -106 7 -4 8 -8 2
-8 -17 0 -64 -101 -78 -165 -9 -43 -10 -77 -4 -120 5 -33 10 -81 11 -107 0
-27 5 -48 10 -48 4 0 6 -9 3 -19 -8 -31 38 -210 78 -306 20 -48 49 -129 51
-145 2 -8 7 -23 13 -35 5 -11 14 -33 19 -50 5 -16 16 -31 25 -33 14 -3 13 5
-7 55 -13 32 -29 84 -35 116 -6 32 -20 79 -32 105 -12 26 -23 54 -24 62 -2 8
-13 65 -24 125 -27 140 -34 231 -22 286 5 24 11 69 12 99 2 30 10 75 20 100
36 99 52 135 63 145 15 13 76 113 76 124 0 5 7 11 15 15 21 8 19 24 -5 31 -20
6 -29 45 -10 45 6 0 10 -6 10 -14 0 -15 27 -29 40 -21 4 3 26 -2 49 -10 23 -8
41 -10 41 -5 0 6 -4 10 -9 10 -12 0 -76 52 -150 124 -69 66 -79 77 -201 216
-41 46 -84 93 -96 105 -35 33 -49 66 -33 76 11 7 5 17 -24 43 l-37 35 -14 -34z
m364 -625 c0 -5 -4 -10 -10 -10 -5 0 -10 5 -10 10 0 6 5 10 10 10 6 0 10 -4
10 -10z m-780 -10 c0 -5 -4 -10 -10 -10 -5 0 -10 5 -10 10 0 6 5 10 10 10 6 0
10 -4 10 -10z m-30 -30 c0 -5 -5 -10 -11 -10 -5 0 -7 5 -4 10 3 6 8 10 11 10
2 0 4 -4 4 -10z m-37 -45 c-10 -13 -22 -25 -26 -25 -4 0 0 11 10 25 10 13 22
25 26 25 4 0 0 -11 -10 -25z m797 -15 c0 -5 -4 -10 -10 -10 -5 0 -10 5 -10 10
0 6 5 10 10 10 6 0 10 -4 10 -10z m-844 -36 c-21 -20 -28 -17 -14 5 7 11 16
17 20 15 5 -3 2 -12 -6 -20z m-426 -508 c0 -3 -4 -8 -10 -11 -5 -3 -10 -1 -10
4 0 6 5 11 10 11 6 0 10 -2 10 -4z m190 -1690 c0 -3 -4 -8 -10 -11 -5 -3 -10
-1 -10 4 0 6 5 11 10 11 6 0 10 -2 10 -4z m262 -140 c11 10 40 -104 44 -170 5
-91 -18 -136 -59 -114 -12 6 -17 17 -14 29 3 10 2 21 -2 23 -3 2 -6 22 -5 43
1 21 -3 44 -9 52 -7 8 -12 47 -13 87 l-1 73 27 -14 c15 -8 30 -12 32 -9z"/>
<path d="M4014 4436 c2 -34 -1 -53 -7 -49 -5 3 -8 0 -5 -7 2 -8 10 -16 17 -18
9 -3 12 7 10 35 -2 21 0 44 5 51 4 7 1 19 -8 27 -13 14 -15 10 -12 -39z"/>
<path d="M6756 4371 c-3 -5 1 -11 9 -15 8 -3 15 -1 15 4 0 13 -18 22 -24 11z"/>
<path d="M8708 4354 c-3 -5 -4 -27 -3 -49 2 -22 -3 -47 -10 -55 -20 -24 -25
-60 -9 -60 11 0 13 -7 8 -27 -9 -39 -14 -41 -14 -8 0 33 -10 28 -14 -6 -2 -13
-6 -31 -9 -39 -13 -35 -14 -46 -5 -64 7 -12 6 -22 -2 -30 -8 -8 -10 -7 -5 7
12 29 -13 19 -30 -13 -9 -16 -11 -30 -6 -30 5 0 8 -6 7 -12 -6 -27 -19 -48
-29 -48 -7 0 -7 4 1 12 7 7 12 19 12 27 -1 11 -9 6 -25 -14 -18 -21 -21 -31
-12 -37 8 -5 0 -11 -21 -19 -20 -7 -31 -16 -28 -24 2 -7 -6 -23 -19 -35 -20
-19 -22 -25 -12 -41 7 -11 17 -19 23 -19 15 0 25 -38 13 -46 -5 -3 -9 -12 -9
-20 0 -9 5 -12 12 -8 6 4 8 3 5 -2 -3 -6 7 -37 23 -69 16 -33 30 -70 30 -82 0
-12 4 -24 9 -27 10 -7 27 -90 43 -216 20 -166 9 -478 -32 -835 -5 -44 -12
-114 -16 -155 -3 -41 -7 -82 -9 -90 -1 -8 -6 -35 -10 -60 -4 -25 -9 -54 -11
-65 -2 -11 -6 -33 -9 -50 -3 -16 -12 -58 -21 -93 -8 -34 -17 -82 -19 -105 -2
-23 -13 -87 -23 -142 -11 -55 -19 -111 -18 -125 0 -15 -4 -24 -11 -22 -16 3
-16 -3 -3 -28 13 -24 1 -36 -98 -95 -116 -69 -135 -89 -140 -144 -11 -106 1
-225 25 -252 11 -13 45 -18 166 -24 83 -4 168 -9 187 -10 31 -2 152 13 238 31
27 5 32 10 32 36 0 16 6 36 14 43 8 9 16 52 20 122 4 59 12 137 17 173 6 36
12 83 14 105 7 74 17 140 25 175 5 19 12 58 15 85 7 61 10 73 18 105 4 14 9
43 11 65 3 22 12 66 20 97 9 32 18 72 21 90 3 18 8 40 10 48 2 8 7 31 10 50
17 101 43 192 112 395 41 121 38 111 48 160 6 32 93 230 123 281 34 56 225
327 249 352 7 7 13 17 13 21 0 4 16 25 35 47 19 21 30 41 25 42 -6 2 -10 8
-10 14 0 6 7 8 15 4 17 -6 20 9 4 20 -15 9 -30 -16 -23 -38 3 -11 -4 -21 -23
-30 -15 -8 -27 -21 -27 -30 1 -9 -4 -14 -10 -12 -7 3 -18 -7 -24 -21 -6 -14
-16 -25 -22 -25 -5 0 -10 -5 -10 -11 0 -9 -42 -67 -83 -114 -9 -11 2 24 13 40
10 15 20 45 15 45 -12 0 -57 -81 -52 -94 4 -9 1 -18 -5 -22 -7 -4 -8 -3 -4 4
4 7 5 12 2 12 -3 0 -16 -19 -29 -42 -13 -24 -55 -96 -92 -161 -144 -253 -204
-437 -311 -952 -38 -188 -47 -235 -56 -300 -5 -38 -14 -88 -19 -110 -16 -60
-49 -256 -49 -293 0 -12 -3 -12 -15 -2 -8 7 -15 9 -16 4 -3 -46 -9 -106 -14
-139 -8 -49 -9 -90 -2 -130 2 -16 3 -35 0 -42 -4 -11 -101 -53 -121 -53 -9 0
-15 62 -14 143 1 61 18 127 33 127 5 0 9 8 9 18 0 11 -20 28 -55 46 -30 15
-64 37 -76 47 -12 10 -29 19 -37 19 -9 0 -12 6 -8 16 5 14 4 15 -9 4 -23 -19
-59 14 -44 42 6 10 7 27 4 37 -6 20 13 111 24 111 3 0 7 19 8 42 2 23 8 57 14
75 6 18 8 42 4 53 -3 11 -2 20 3 20 6 0 12 19 15 43 2 23 7 56 11 72 30 138
56 281 55 294 -1 9 1 23 4 31 21 52 31 130 26 210 -1 14 -1 36 0 50 2 23 3 23
11 5 7 -15 9 -16 9 -4 1 9 -5 21 -12 27 -13 11 -11 82 2 82 4 0 5 -17 3 -37
-3 -21 -1 -35 4 -30 4 4 8 27 9 52 2 33 -2 45 -12 45 -8 0 -11 5 -8 10 4 6 11
8 16 5 5 -4 9 -1 9 4 0 6 -6 11 -12 11 -10 0 -9 3 1 9 11 7 11 9 0 13 -12 4
-12 13 -2 49 14 54 16 476 2 633 -5 60 -16 128 -23 151 -8 23 -17 61 -21 85
-4 24 -11 53 -17 63 -5 10 -11 27 -13 38 -2 12 -7 29 -10 39 -4 12 10 36 45
76 27 33 50 63 50 67 0 5 14 39 31 75 30 64 31 71 26 162 -3 52 -8 104 -10
115 -10 40 -24 68 -29 59z m-4 -139 c-4 -8 -8 -15 -10 -15 -2 0 -4 7 -4 15 0
8 4 15 10 15 5 0 7 -7 4 -15z m-24 -126 c0 -5 -4 -9 -10 -9 -5 0 -10 7 -10 16
0 8 5 12 10 9 6 -3 10 -10 10 -16z m-224 -2680 c3 -6 -9 -27 -29 -47 -44 -47
-58 -77 -87 -184 -18 -70 -27 -88 -41 -88 -10 0 -21 4 -24 10 -11 17 -14 164
-4 201 17 67 159 149 185 108z m117 -40 c3 -10 -1 -26 -9 -36 -7 -10 -14 -26
-14 -35 0 -10 -8 -18 -17 -19 -10 0 -13 -3 -6 -5 13 -6 -8 -52 -39 -88 -10
-11 -18 -25 -19 -30 0 -6 -1 -27 -2 -46 -2 -32 -4 -35 -32 -33 -44 3 -58 28
-51 92 10 106 101 235 159 224 14 -3 27 -13 30 -24z m74 -27 c12 -8 11 -28 -6
-132 -6 -36 -11 -83 -11 -106 l0 -41 -43 0 c-66 -1 -71 5 -62 73 5 33 8 64 6
71 -4 27 72 143 94 143 6 0 15 -4 22 -8z m-369 -255 c21 -16 13 -28 -15 -25
-31 3 -45 34 -16 35 10 0 24 -4 31 -10z"/>
<path d="M4000 4333 c0 -10 4 -24 9 -32 6 -9 9 -5 9 13 0 15 -4 29 -9 32 -5 3
-9 -3 -9 -13z"/>
<path d="M3995 4270 c-3 -5 -1 -10 4 -10 6 0 11 5 11 10 0 6 -2 10 -4 10 -3 0
-8 -4 -11 -10z"/>
<path d="M10059 4093 c-13 -16 -12 -17 4 -4 16 13 21 21 13 21 -2 0 -10 -8
-17 -17z"/>
<path d="M4877 4056 c-4 -10 -5 -21 -2 -24 9 -9 17 6 13 25 -3 17 -4 17 -11
-1z"/>
<path d="M10030 4050 c-6 -11 -8 -20 -6 -20 3 0 10 9 16 20 6 11 8 20 6 20 -3
0 -10 -9 -16 -20z"/>
<path d="M10900 4029 c0 -5 5 -7 10 -4 6 3 10 8 10 11 0 2 -4 4 -10 4 -5 0
-10 -5 -10 -11z"/>
<path d="M4861 4011 c-11 -7 -11 -10 0 -14 9 -4 10 -6 2 -6 -7 -1 -10 -8 -6
-18 5 -12 2 -15 -10 -10 -11 4 -17 1 -17 -7 0 -8 7 -16 15 -20 10 -4 18 6 25
35 12 45 11 52 -9 40z"/>
<path d="M9967 3953 c-4 -3 -7 -11 -7 -17 0 -6 5 -5 12 2 6 6 9 14 7 17 -3 3
-9 2 -12 -2z"/>
<path d="M4715 3920 c3 -5 8 -10 11 -10 2 0 4 5 4 10 0 6 -5 10 -11 10 -5 0
-7 -4 -4 -10z"/>
<path d="M7270 3890 c8 -5 20 -10 25 -10 6 0 3 5 -5 10 -8 5 -19 10 -25 10 -5
0 -3 -5 5 -10z"/>
<path d="M9922 3868 c-7 -7 -12 -16 -12 -21 0 -5 7 -1 16 8 9 9 14 18 12 20
-2 3 -10 -1 -16 -7z"/>
<path d="M9880 3850 c-6 -11 -8 -20 -6 -20 3 0 10 9 16 20 6 11 8 20 6 20 -3
0 -10 -9 -16 -20z"/>
<path d="M9803 3783 c-49 -49 -55 -59 -33 -60 11 -1 23 3 26 9 4 7 2 8 -4 4
-7 -4 -12 -3 -12 3 0 16 23 26 50 22 14 -2 22 1 17 5 -4 4 5 16 20 26 16 10
23 18 16 18 -6 0 -15 -5 -18 -10 -5 -8 -11 -7 -20 0 -11 9 -20 5 -42 -17z m27
-3 c0 -5 -4 -10 -10 -10 -5 0 -10 5 -10 10 0 6 5 10 10 10 6 0 10 -4 10 -10z"/>
<path d="M9820 3738 c0 -11 22 -10 40 2 11 8 9 9 -12 8 -16 -1 -28 -6 -28 -10z"/>
<path d="M9810 3700 c0 -5 5 -10 11 -10 5 0 7 5 4 10 -3 6 -8 10 -11 10 -2 0
-4 -4 -4 -10z"/>
<path d="M9730 3670 c-18 -16 -30 -30 -26 -30 3 0 -8 -14 -26 -32 -30 -30 -31
-31 -8 -25 14 4 28 7 33 7 4 0 7 9 7 20 0 11 4 20 9 20 6 0 18 13 27 29 10 17
22 27 27 24 6 -3 7 -1 3 5 -9 16 -7 16 -46 -18z"/>
<path d="M9820 3656 c0 -2 8 -10 18 -17 15 -13 16 -12 3 4 -13 16 -21 21 -21
13z"/>
<path d="M9624 3628 c-4 -7 -14 -23 -22 -35 -22 -35 -7 -27 22 12 15 19 23 35
17 35 -5 0 -13 -6 -17 -12z"/>
<path d="M9871 3608 c-13 -21 -13 -22 3 -9 15 13 19 13 27 0 5 -8 7 -20 4 -26
-3 -7 -8 -20 -12 -30 -5 -12 -3 -14 7 -8 10 6 12 3 8 -13 -4 -12 -1 -25 4 -29
7 -3 8 -1 4 5 -4 7 -3 12 2 12 15 0 24 -33 11 -41 -8 -4 -6 -10 7 -18 16 -9
17 -12 4 -21 -10 -6 -11 -10 -2 -10 6 0 12 -9 12 -21 0 -11 4 -17 10 -14 6 3
7 -1 4 -9 -3 -9 -15 -16 -25 -16 -22 0 -24 11 -6 29 10 10 9 12 -3 9 -8 -2
-14 3 -12 10 1 6 -3 12 -8 12 -14 0 -6 -40 16 -81 14 -28 62 -173 78 -239 3
-8 14 -49 26 -90 12 -41 25 -94 30 -118 6 -24 27 -98 49 -165 41 -125 219
-723 226 -754 9 -49 19 -79 28 -90 5 -7 7 -13 4 -13 -7 0 8 -56 67 -255 31
-101 48 -173 82 -339 2 -10 10 -26 18 -35 9 -9 13 -26 10 -38 -5 -19 0 -22 68
-30 94 -11 551 -6 598 7 l37 10 -3 92 c-3 128 -20 166 -117 256 -51 49 -83 72
-93 68 -9 -3 -18 -6 -20 -6 -3 0 -2 -6 2 -12 5 -8 -2 -7 -16 3 -32 21 -64 68
-86 127 -10 26 -20 49 -23 52 -4 3 -7 12 -9 20 -1 8 -14 43 -27 77 -13 34 -27
72 -29 85 -3 13 -12 52 -21 88 -8 36 -19 85 -25 110 -6 25 -13 77 -16 115 -3
39 -14 123 -23 188 -14 89 -19 189 -20 410 -1 181 -6 296 -12 302 -7 7 -10 7
-9 0 5 -23 -1 -55 -9 -55 -9 0 -7 60 5 123 4 24 3 37 -4 37 -6 0 -11 -8 -11
-17 0 -10 -1 -25 -4 -33 -14 -51 -18 -93 -13 -116 6 -21 9 -24 21 -14 21 17
20 -6 0 -26 -12 -12 -12 -20 -4 -36 9 -16 8 -19 -1 -13 -10 6 -11 -30 -7 -171
4 -98 8 -192 11 -209 9 -59 19 -131 22 -160 14 -157 34 -278 71 -415 14 -52
29 -111 33 -130 5 -19 11 -44 14 -55 3 -11 10 -38 15 -59 5 -22 17 -44 27 -49
12 -7 13 -11 4 -17 -9 -6 -9 -13 -1 -28 11 -21 5 -52 -10 -52 -5 0 -9 -5 -9
-11 0 -8 5 -7 15 1 9 7 17 11 18 9 1 -2 9 -13 17 -23 14 -18 13 -19 -3 -13 -9
3 -29 2 -43 -3 -17 -7 -23 -7 -19 0 3 6 1 10 -4 10 -6 0 -11 -8 -11 -19 0 -10
-15 -30 -32 -44 -18 -14 -60 -50 -93 -81 -33 -30 -64 -56 -68 -56 -11 0 2 -20
14 -20 5 0 19 10 30 21 12 12 35 22 52 23 29 1 33 -4 68 -74 39 -76 47 -110
29 -110 -5 0 -10 -10 -10 -21 0 -20 -4 -21 -46 -14 -35 5 -44 4 -39 -6 6 -9
-2 -10 -31 -5 -88 16 -114 28 -114 53 0 12 -5 23 -11 23 -6 0 -9 6 -6 13 6 15
-43 215 -66 270 -9 20 -14 37 -12 37 3 0 -4 23 -15 50 -11 28 -19 54 -18 58 1
4 -3 17 -10 28 -6 12 -16 39 -21 60 -5 22 -24 84 -40 139 -17 55 -34 116 -37
135 -3 19 -8 38 -11 42 -4 8 -7 18 -23 88 -4 19 -26 98 -48 175 -23 77 -50
176 -62 220 -31 118 -72 249 -82 259 -12 14 -10 28 3 20 6 -3 4 7 -4 22 -8 16
-27 72 -42 124 -15 52 -32 100 -37 107 -5 7 -6 18 -2 25 5 8 1 8 -11 -2 -17
-14 -18 -14 -7 7 15 27 15 36 1 27 -6 -3 -10 1 -9 12 4 34 0 45 -12 38 -7 -5
-9 -2 -5 9 3 8 0 21 -8 27 -16 13 -27 50 -14 50 9 0 13 -16 9 -35 -1 -6 3 -6
9 1 8 7 7 22 -4 53 -8 24 -15 52 -15 62 0 11 -5 19 -11 19 -6 0 -9 6 -6 13 7
21 -47 167 -62 167 -4 0 -12 -10 -20 -22z m829 -680 c0 -18 -2 -20 -9 -8 -6 8
-7 18 -5 22 9 14 14 9 14 -14z m-2 -103 c-3 -3 -9 2 -12 12 -6 14 -5 15 5 6 7
-7 10 -15 7 -18z m362 -1235 c8 -5 12 -11 9 -14 -3 -3 -14 1 -25 9 -21 16 -8
20 16 5z m-160 -14 c0 -8 4 -16 10 -18 13 -4 48 -105 53 -153 3 -20 1 -53 -4
-73 -6 -27 -5 -40 5 -47 19 -14 0 -30 -46 -39 l-36 -6 -6 45 c-4 25 -11 45
-17 45 -5 0 -9 9 -9 20 0 11 -4 28 -9 38 -32 57 -61 126 -61 143 0 11 14 28
33 39 38 23 87 27 87 6z m165 -36 c16 -16 24 -30 19 -30 -6 0 -20 14 -32 30
-13 17 -21 30 -19 30 2 0 16 -13 32 -30z m12 -75 c27 -69 17 -186 -20 -232
-13 -18 -27 -16 -27 2 0 8 -3 15 -7 15 -5 0 -8 15 -7 33 0 17 -3 37 -7 42 -4
6 -10 51 -14 101 -5 69 -3 97 6 113 l14 21 21 -23 c11 -12 30 -44 41 -72z m77
8 c11 -28 30 -157 29 -197 -1 -38 -24 -68 -32 -43 -2 7 -9 15 -16 19 -8 5 -10
20 -6 45 5 25 0 60 -12 101 -11 34 -17 68 -14 75 7 18 44 18 51 0z"/>
<path d="M9569 3543 c-13 -16 -12 -17 4 -4 9 7 17 15 17 17 0 8 -8 3 -21 -13z"/>
<path d="M5959 3523 c-1 -5 -1 -12 0 -16 1 -4 -4 -17 -9 -28 -9 -16 -4 -35 25
-97 20 -42 41 -85 46 -96 6 -10 39 -73 73 -140 71 -137 88 -169 97 -176 3 -3
12 -22 20 -44 8 -21 20 -41 26 -43 7 -3 13 -12 13 -20 0 -8 4 -12 9 -9 5 3 8
-2 7 -12 0 -9 4 -16 11 -15 8 2 10 -4 6 -14 -4 -10 -2 -14 4 -10 13 8 43 -18
43 -38 0 -7 7 -15 15 -19 8 -3 15 -11 15 -18 -1 -7 -17 5 -36 27 l-36 40 23
-40 c12 -22 31 -51 41 -64 10 -13 18 -30 18 -37 0 -8 5 -14 10 -14 6 0 10 -4
10 -10 0 -5 16 -34 35 -65 20 -30 39 -63 42 -73 4 -9 11 -21 15 -27 29 -35 68
-104 110 -195 28 -58 58 -122 67 -142 10 -21 22 -34 26 -30 5 4 5 2 1 -5 -4
-7 14 -52 39 -101 25 -49 45 -92 45 -95 0 -4 19 -46 41 -94 23 -49 50 -107 60
-130 10 -24 23 -43 29 -43 6 0 9 -4 5 -9 -7 -12 15 -61 28 -61 5 0 7 -6 4 -14
-3 -8 6 -39 20 -68 15 -29 26 -56 25 -60 -1 -5 3 -8 9 -8 6 0 9 7 5 15 -3 8
-2 15 3 15 5 0 12 -10 16 -22 4 -15 8 -18 12 -10 3 7 0 18 -5 25 -5 7 -13 28
-16 47 -21 104 -194 496 -308 697 -32 56 -58 106 -58 111 0 6 -3 12 -7 14 -5
2 -17 21 -29 43 -20 39 -74 138 -121 220 -12 22 -34 63 -49 90 -14 28 -36 60
-48 73 -11 13 -20 27 -19 30 2 9 -37 94 -51 111 -6 7 -24 38 -41 67 -16 30
-67 114 -112 188 -46 74 -83 138 -83 144 0 5 -7 23 -16 40 -8 17 -17 44 -20
59 -3 15 -13 41 -23 58 -10 16 -24 47 -31 68 -10 33 -28 50 -31 30z m318 -635
c-3 -8 -6 -5 -6 6 -1 11 2 17 5 13 3 -3 4 -12 1 -19z m668 -1308 c3 -5 1 -10
-4 -10 -6 0 -11 5 -11 10 0 6 2 10 4 10 3 0 8 -4 11 -10z m45 -94 c0 -3 -4 -8
-10 -11 -5 -3 -10 -1 -10 4 0 6 5 11 10 11 6 0 10 -2 10 -4z"/>
<path d="M9868 3524 c-6 -6 7 -62 16 -72 3 -2 4 12 3 31 -3 38 -10 51 -19 41z"/>
<path d="M10715 3500 c-3 -5 -1 -10 4 -10 6 0 11 5 11 10 0 6 -2 10 -4 10 -3
0 -8 -4 -11 -10z"/>
<path d="M9516 3453 c-6 -14 -5 -15 5 -6 7 7 10 15 7 18 -3 3 -9 -2 -12 -12z"/>
<path d="M9476 3393 c-6 -14 -5 -15 5 -6 7 7 10 15 7 18 -3 3 -9 -2 -12 -12z"/>
<path d="M10706 3197 c3 -10 9 -15 12 -12 3 3 0 11 -7 18 -10 9 -11 8 -5 -6z"/>
<path d="M4735 2690 c9 -30 34 -80 40 -80 4 0 -35 92 -43 100 -2 3 -1 -6 3
-20z"/>
<path d="M6963 2653 c-7 -2 -13 -9 -13 -15 0 -6 7 -8 15 -4 18 6 19 1 5 -25
-7 -13 -7 -19 0 -19 5 0 10 5 10 10 0 6 5 10 10 10 19 0 10 -28 -11 -33 -16
-4 -18 -9 -11 -24 6 -10 16 -38 23 -63 7 -25 24 -70 37 -100 13 -30 31 -75 39
-100 9 -25 20 -56 26 -70 5 -14 11 -31 13 -39 5 -23 161 -334 189 -375 14 -21
24 -44 21 -52 -3 -7 2 -18 10 -24 20 -17 18 -64 -4 -83 -10 -10 -32 -17 -48
-17 -17 0 -34 -4 -40 -8 -5 -5 -30 -17 -57 -26 -51 -19 -55 -41 -5 -31 20 5
28 4 24 -3 -9 -16 31 -25 51 -12 16 10 15 11 -4 7 -13 -3 -26 -1 -29 4 -3 5
-1 9 5 9 5 0 17 7 25 16 10 10 16 11 16 3 0 -9 3 -9 15 1 8 6 19 9 26 5 8 -6
7 -10 -2 -17 -10 -7 -8 -8 8 -5 31 7 48 -9 88 -86 29 -56 34 -75 29 -110 -2
-23 -11 -48 -19 -56 -19 -19 -68 -24 -62 -7 6 15 -11 36 -27 36 -6 0 -5 -5 1
-11 21 -21 3 -38 -35 -34 -21 3 -55 7 -77 9 -22 2 -48 7 -57 11 -14 5 -18 2
-18 -13 0 -29 40 -33 243 -27 174 6 295 22 178 24 -50 1 -53 2 -35 15 19 14
19 15 -3 36 -13 11 -23 27 -23 36 0 8 -4 22 -9 32 -24 48 -52 112 -49 114 2 2
-7 17 -20 35 -12 17 -18 34 -13 37 5 4 12 0 14 -6 4 -8 6 -9 6 -2 2 19 94 4
114 -19 9 -11 17 -16 17 -11 0 10 20 -17 20 -28 0 -4 -8 -4 -17 -1 -10 4 -3
-7 15 -24 34 -33 37 -45 33 -131 -2 -48 0 -54 20 -59 21 -6 21 -7 4 -20 -17
-12 -16 -13 16 -13 57 0 77 9 72 31 -5 19 -7 19 -24 3 -24 -22 -37 -10 -20 18
7 11 18 41 25 67 22 84 -25 234 -89 284 -5 4 -56 6 -111 4 -87 -4 -104 -2
-116 12 -8 10 -15 24 -15 32 0 22 -55 129 -63 124 -9 -5 -14 5 -95 190 -31 72
-66 149 -76 173 -11 23 -17 47 -14 51 2 5 -2 11 -10 15 -8 3 -15 12 -15 20 0
9 -9 30 -20 48 -12 20 -16 35 -9 39 6 4 -3 49 -25 123 -20 64 -36 119 -36 122
0 5 -21 4 -37 -3z m47 -87 c0 -3 -4 -8 -10 -11 -5 -3 -10 -1 -10 4 0 6 5 11
10 11 6 0 10 -2 10 -4z m604 -917 c-3 -5 3 -9 13 -10 10 0 13 -3 6 -6 -7 -2
-13 -11 -13 -19 0 -9 4 -13 8 -10 11 7 42 -119 41 -166 -1 -37 -18 -56 -18
-20 0 46 -28 133 -61 190 -26 43 -25 47 5 48 14 1 22 -2 19 -7z"/>
<path d="M3327 2633 c-10 -9 -9 -23 2 -23 5 0 11 7 15 15 5 15 -5 20 -17 8z"/>
<path d="M3290 2555 c-8 -9 -8 -15 -2 -15 12 0 26 19 19 26 -2 2 -10 -2 -17
-11z"/>
<path d="M5591 1436 c-12 -18 -31 -37 -44 -41 -12 -4 -25 -8 -29 -10 -20 -6
-24 -7 -31 -6 -5 1 -6 -3 -3 -8 4 -5 24 -8 46 -6 31 3 38 1 33 -10 -3 -9 1
-15 10 -15 9 0 30 -15 48 -32 l32 -33 -7 28 c-4 16 -15 38 -26 49 -18 20 -18
23 -3 52 35 66 12 94 -26 32z"/>
<path d="M5490 1400 c0 -5 7 -7 15 -4 8 4 15 8 15 10 0 2 -7 4 -15 4 -8 0 -15
-4 -15 -10z"/>
<path d="M7070 1310 c0 -13 18 -22 24 -11 3 5 -1 11 -9 15 -8 3 -15 1 -15 -4z"/>
<path d="M5628 1228 c5 -5 6 -28 1 -51 -4 -23 -5 -44 -3 -46 2 -2 4 2 4 9 0
11 3 11 12 2 26 -26 28 -13 14 59 -5 21 -13 36 -22 36 -9 0 -11 -4 -6 -9z"/>
<path d="M5460 1100 c-21 -7 -17 -8 20 -9 32 0 41 2 30 9 -17 11 -16 11 -50 0z"/>
<path d="M11719 883 c-13 -16 -12 -17 4 -4 9 7 17 15 17 17 0 8 -8 3 -21 -13z"/>
<path d="M9458 583 c6 -2 18 -2 25 0 6 3 1 5 -13 5 -14 0 -19 -2 -12 -5z"/>
<path d="M9678 583 c6 -2 18 -2 25 0 6 3 1 5 -13 5 -14 0 -19 -2 -12 -5z"/>
<path d="M10208 583 c6 -2 18 -2 25 0 6 3 1 5 -13 5 -14 0 -19 -2 -12 -5z"/>
<path d="M10778 583 c29 -2 74 -2 100 0 26 2 2 3 -53 3 -55 0 -76 -1 -47 -3z"/>
<path d="M10958 583 c6 -2 18 -2 25 0 6 3 1 5 -13 5 -14 0 -19 -2 -12 -5z"/>
<path d="M11228 583 c6 -2 18 -2 25 0 6 3 1 5 -13 5 -14 0 -19 -2 -12 -5z"/>
<path d="M11358 583 c17 -2 47 -2 65 0 17 2 3 4 -33 4 -36 0 -50 -2 -32 -4z"/>
<path d="M12148 583 c7 -3 16 -2 19 1 4 3 -2 6 -13 5 -11 0 -14 -3 -6 -6z"/>
<path d="M12383 583 c9 -2 23 -2 30 0 6 3 -1 5 -18 5 -16 0 -22 -2 -12 -5z"/>
<path d="M13028 583 c6 -2 18 -2 25 0 6 3 1 5 -13 5 -14 0 -19 -2 -12 -5z"/>
<path d="M13198 583 c6 -2 18 -2 25 0 6 3 1 5 -13 5 -14 0 -19 -2 -12 -5z"/>
<path d="M13578 583 c7 -3 16 -2 19 1 4 3 -2 6 -13 5 -11 0 -14 -3 -6 -6z"/>
<path d="M14298 583 c7 -3 16 -2 19 1 4 3 -2 6 -13 5 -11 0 -14 -3 -6 -6z"/>
<path d="M14428 583 c6 -2 18 -2 25 0 6 3 1 5 -13 5 -14 0 -19 -2 -12 -5z"/>
</g>
</svg>
