<?xml version="1.0" standalone="no"?>
<!DOCTYPE svg PUBLIC "-//W3C//DTD SVG 20010904//EN"
 "http://www.w3.org/TR/2001/REC-SVG-20010904/DTD/svg10.dtd">
<svg version="1.0" xmlns="http://www.w3.org/2000/svg"
 width="1000.000000pt" height="1000.000000pt" viewBox="0 0 1000.000000 1000.000000"
 preserveAspectRatio="xMidYMid meet">

<g transform="translate(0.000000,1000.000000) scale(0.100000,-0.100000)"
fill="#000000" stroke="none">
<path d="M2039 9687 c39 -95 60 -139 61 -124 0 4 -11 33 -24 65 -13 31 -29 74
-35 94 -7 20 -18 42 -26 48 -8 7 3 -31 24 -83z"/>
<path d="M2106 9531 c3 -13 19 -52 35 -85 16 -34 26 -51 23 -38 -3 13 -19 51
-35 85 -16 34 -27 51 -23 38z"/>
<path d="M2172 9375 c29 -72 132 -285 135 -281 3 2 -8 28 -23 58 -15 29 -42
89 -61 133 -19 44 -39 85 -45 90 -7 7 -9 7 -6 0z"/>
<path d="M2330 9031 c0 -6 4 -13 10 -16 6 -3 7 1 4 9 -7 18 -14 21 -14 7z"/>
<path d="M2256 8873 c-3 -4 -6 -19 -6 -35 0 -35 -35 -139 -67 -199 l-24 -46
75 -131 c41 -72 87 -153 101 -179 60 -115 125 -223 133 -223 4 1 18 7 32 15
33 19 141 19 187 0 31 -13 84 -56 169 -135 18 -17 104 -40 104 -28 0 3 -22 38
-48 79 -78 118 -196 319 -304 517 -59 106 -106 182 -115 182 -30 0 -104 53
-166 120 -36 38 -68 66 -71 63z m317 -489 c18 -6 35 -150 19 -166 -6 -6 -36 1
-83 19 l-74 29 3 45 c5 90 6 92 67 85 29 -3 60 -9 68 -12z"/>
<path d="M3285 8088 c68 -103 165 -269 215 -367 27 -55 54 -102 60 -106 6 -4
15 7 21 25 13 37 33 36 62 -2 14 -19 21 -48 25 -102 5 -87 -6 -124 -50 -161
l-29 -24 47 -63 c86 -117 129 -230 122 -321 -3 -29 -20 -104 -38 -168 -21 -74
-30 -123 -25 -135 6 -15 10 -10 20 26 14 52 43 111 78 158 27 36 27 77 2 179
-10 40 -10 55 -1 62 16 14 61 -16 92 -63 14 -20 29 -34 35 -31 12 8 12 97 -1
226 -12 115 -57 291 -100 386 -92 203 -264 380 -477 491 -45 23 -84 42 -87 42
-3 0 10 -24 29 -52z"/>
<path d="M2505 8015 c-17 -14 -18 -17 -3 -31 12 -13 20 -14 36 -5 30 16 89 14
128 -5 35 -17 69 -13 62 8 -2 6 -20 19 -38 30 -44 23 -155 25 -185 3z"/>
<path d="M2563 7930 c-13 -5 -23 -11 -23 -13 0 -3 12 -25 26 -51 l26 -47 31
20 c31 20 50 59 38 79 -9 15 -73 23 -98 12z"/>
<path d="M2736 7889 c-14 -11 -26 -29 -26 -40 0 -12 -16 -29 -45 -47 -25 -15
-45 -30 -45 -34 0 -9 71 -128 77 -128 2 0 22 9 43 20 27 14 40 27 40 40 0 11
15 37 34 58 30 32 40 37 80 37 39 0 51 -5 76 -32 26 -28 35 -31 63 -26 17 3
34 7 35 9 2 1 -10 23 -27 47 -29 43 -33 45 -99 55 -53 7 -75 16 -95 36 -32 32
-74 34 -111 5z m94 -24 c19 -23 -2 -65 -33 -65 -29 0 -47 18 -47 46 0 34 56
47 80 19z"/>
<path d="M2851 7704 c-12 -15 -21 -33 -21 -40 0 -8 -24 -30 -54 -49 l-54 -35
55 -102 c31 -57 67 -122 80 -145 l23 -42 78 53 c42 30 95 63 117 74 51 25 152
52 171 45 26 -10 14 17 -39 90 -30 40 -63 85 -74 101 -19 28 -24 29 -84 27
-58 -2 -67 0 -88 23 -33 36 -82 35 -110 0z m93 -26 c14 -23 -3 -52 -33 -56
-42 -6 -67 38 -39 66 17 17 58 11 72 -10z"/>
<path d="M3160 7333 c-102 -36 -197 -120 -242 -212 -18 -36 -23 -64 -23 -127
0 -71 3 -85 26 -120 15 -21 30 -50 34 -64 18 -62 93 -166 167 -228 25 -22 30
-22 63 -11 28 11 40 11 55 1 11 -7 31 -12 44 -12 17 0 28 -9 41 -36 21 -46 14
-74 -30 -112 -108 -96 -255 -46 -463 156 -23 23 -44 42 -47 42 -12 0 -3 -49
18 -100 76 -185 256 -365 473 -474 86 -44 218 -85 230 -73 3 3 -2 19 -10 36
-9 16 -16 37 -16 45 0 23 76 24 140 2 50 -16 57 -23 77 -67 26 -55 22 -74 -19
-95 -39 -20 -28 -33 81 -89 105 -54 244 -157 329 -243 105 -105 381 -495 710
-1002 253 -390 381 -589 448 -693 27 -42 116 -178 197 -302 140 -214 149 -224
169 -212 12 6 30 20 40 29 25 24 117 68 142 68 18 0 16 -3 -9 -18 -76 -47
-165 -225 -135 -272 7 -11 10 -7 10 18 0 41 12 41 45 0 l26 -33 38 44 c78 88
109 189 78 253 -9 18 -48 78 -87 133 -60 86 -111 159 -320 460 -143 205 -175
247 -203 266 -79 54 -127 124 -127 184 0 22 -35 80 -154 250 -60 86 -55 80
-62 72 -3 -3 -2 -12 2 -19 5 -7 7 -26 5 -43 -2 -28 -2 -29 12 -11 13 18 16 17
41 -26 20 -34 26 -58 26 -101 0 -46 -3 -55 -15 -51 -12 5 -14 0 -9 -27 4 -25
3 -30 -4 -19 -6 8 -8 18 -6 22 3 4 1 8 -4 8 -13 0 -51 137 -59 209 -3 34 -10
61 -14 61 -5 0 -9 5 -9 11 0 8 6 7 17 -2 45 -37 -15 62 -254 422 -56 85 -109
162 -117 172 -9 9 -14 17 -11 17 4 0 -36 65 -55 87 -5 7 -10 15 -10 19 0 4
-30 58 -67 120 -65 109 -69 114 -101 114 -44 0 -144 26 -199 52 -91 43 -175
140 -204 236 -10 34 -20 46 -46 57 -82 35 -207 142 -197 169 7 18 100 66 126
66 20 0 24 15 8 25 -6 4 -20 25 -32 48 -17 33 -22 58 -21 120 0 42 -2 77 -6
77 -3 0 -17 -9 -31 -20 -17 -13 -41 -20 -72 -20 -57 0 -61 13 -19 54 47 45 54
121 7 78 -75 -69 -200 -81 -280 -27 -19 13 -55 29 -78 35 -62 17 -120 53 -165
103 -134 153 -75 396 116 485 98 45 264 28 334 -35 17 -16 17 -16 11 0 -3 9
-35 31 -71 49 -56 27 -78 32 -152 35 -60 2 -99 -2 -131 -14z m520 -895 c0 -9
-4 -20 -10 -23 -6 -4 -10 9 -10 32 0 28 3 34 10 23 5 -8 10 -23 10 -32z m25
-58 c10 -11 16 -20 13 -20 -3 0 -13 9 -23 20 -10 11 -16 20 -13 20 3 0 13 -9
23 -20z m-35 -35 c-7 -8 -18 -15 -24 -15 -6 0 -2 7 8 15 25 19 32 19 16 0z
m83 -232 c42 -18 47 -28 17 -36 -22 -6 -28 8 -7 16 9 4 9 6 0 6 -19 1 -26 -19
-12 -36 7 -8 13 -25 14 -37 0 -16 6 -21 28 -21 21 1 29 -5 33 -22 7 -25 19
-30 27 -10 3 7 6 5 6 -5 1 -10 4 -18 9 -18 4 0 22 -19 41 -41 l33 -41 -40 29
c-23 15 -42 33 -42 38 0 6 -23 21 -50 34 -28 13 -50 28 -50 33 0 4 -11 8 -24
8 -14 0 -28 5 -31 10 -3 6 1 10 9 10 9 0 16 7 16 15 0 8 -7 15 -15 15 -8 0
-15 -4 -15 -10 0 -5 -4 -10 -10 -10 -19 0 -10 23 18 46 20 18 23 24 10 24 -9
0 -18 -6 -21 -12 -2 -7 -8 -9 -13 -5 -5 5 -1 13 9 18 16 10 16 12 -5 31 l-23
20 25 -16 c14 -9 42 -24 63 -33z m-81 -8 c-2 -14 -6 -25 -8 -25 -2 0 -4 11 -4
25 0 14 4 25 9 25 4 0 6 -11 3 -25z m160 -72 c-6 -18 -22 -16 -22 1 0 8 -3 23
-7 33 -5 16 -4 16 14 -2 11 -11 18 -26 15 -32z m258 -263 c0 -5 11 -10 25 -10
15 0 25 -6 25 -14 0 -28 -19 -26 -51 4 -25 22 -29 30 -16 30 9 0 17 -4 17 -10z
m85 -30 c3 -5 1 -10 -4 -10 -6 0 -11 5 -11 10 0 6 2 10 4 10 3 0 8 -4 11 -10z
m55 -39 c0 -17 5 -33 10 -36 16 -10 12 -45 -5 -45 -8 0 -15 5 -15 11 0 6 -8 8
-17 5 -22 -6 -68 48 -59 70 3 8 10 13 15 9 6 -3 8 -12 5 -19 -6 -16 21 -40 37
-31 6 4 9 20 7 36 -3 20 0 29 9 29 8 0 13 -12 13 -29z m70 14 c-7 -8 -16 -15
-21 -15 -5 0 -6 7 -3 15 4 8 13 15 21 15 13 0 13 -3 3 -15z m40 -74 c0 -6 -4
-13 -10 -16 -5 -3 -10 1 -10 9 0 9 5 16 10 16 6 0 10 -4 10 -9z m-116 -37 c11
-27 7 -37 -9 -24 -16 14 -20 40 -6 40 5 0 12 -7 15 -16z m135 -45 c-19 -12
-24 -2 -8 17 9 11 14 13 17 4 3 -7 -2 -16 -9 -21z m-99 -9 c0 -5 -4 -10 -9
-10 -6 0 -13 5 -16 10 -3 6 1 10 9 10 9 0 16 -4 16 -10z m145 -28 c2 -25 2
-24 -18 -16 -9 3 -13 13 -10 25 7 26 26 19 28 -9z m-70 -14 c6 -18 16 -33 24
-33 8 0 16 -6 19 -12 7 -22 -11 -14 -45 19 -34 33 -43 58 -20 58 7 0 17 -15
22 -32z m94 -54 c17 11 13 2 -9 -24 -19 -22 -22 -23 -37 -7 -16 16 -16 17 0
17 9 0 17 8 17 18 0 13 2 14 9 3 5 -7 14 -10 20 -7z m37 -53 c11 9 14 6 14
-19 0 -25 -4 -30 -29 -34 -23 -3 -32 1 -46 24 -18 32 -2 40 22 11 13 -16 14
-16 10 -1 -6 18 5 36 11 18 3 -8 8 -8 18 1z m62 -62 c12 -18 11 -20 -5 -17
-10 2 -19 11 -21 21 -5 23 10 21 26 -4z m86 -305 c-5 -19 -4 -25 5 -20 6 4 11
14 11 22 0 8 5 12 10 9 6 -3 10 -13 10 -21 0 -8 -4 -13 -10 -9 -5 3 -14 -9
-19 -27 -5 -18 -10 -25 -10 -15 -1 21 -14 22 -31 2 -11 -13 -7 -19 11 -17 3 1
4 -9 2 -21 -4 -20 0 -22 42 -23 43 -1 45 0 30 16 -20 22 -19 36 2 19 9 -8 19
-13 22 -12 3 1 5 -7 3 -17 -2 -14 2 -20 17 -20 14 0 19 -5 15 -15 -4 -8 -1
-22 6 -30 15 -18 9 -61 -9 -57 -8 2 -5 -8 8 -24 23 -29 27 -54 9 -54 -6 0 -4
-7 5 -18 10 -10 17 -25 17 -33 -1 -9 -8 -5 -21 10 -11 13 -18 30 -15 38 6 15
-13 63 -25 63 -4 0 -10 8 -12 18 -4 15 -5 15 -6 0 0 -9 6 -23 14 -32 8 -8 15
-20 15 -26 0 -7 -31 32 -70 86 -38 54 -70 102 -70 106 0 5 -9 18 -20 30 -23
25 -18 38 10 31 16 -4 20 0 20 19 0 24 16 48 32 48 5 0 5 -12 2 -26z m66 -72
c0 -13 -3 -12 -20 3 -11 10 -17 22 -14 27 8 12 34 -11 34 -30z m310 -488 c0
-22 -2 -25 -15 -14 -12 10 -13 16 -4 26 16 20 19 18 19 -12z m13 -45 c-4 -15
-8 -17 -14 -8 -6 11 4 28 18 29 0 0 -1 -9 -4 -21z m15 -54 c6 -14 10 -25 8
-25 -2 0 -11 11 -20 25 -9 14 -13 25 -8 25 5 0 14 -11 20 -25z"/>
<path d="M4635 4860 c3 -5 8 -10 11 -10 2 0 4 5 4 10 0 6 -5 10 -11 10 -5 0
-7 -4 -4 -10z"/>
<path d="M4680 4850 c0 -19 3 -21 12 -12 9 9 9 15 0 24 -9 9 -12 7 -12 -12z"/>
<path d="M3247 7249 c-55 -13 -90 -33 -126 -74 -40 -46 -40 -79 0 -116 36 -34
47 -36 56 -11 7 21 33 52 44 52 4 0 9 -10 12 -22 3 -22 4 -22 11 -3 38 104 79
145 144 145 49 0 38 17 -18 29 -58 12 -70 12 -123 0z"/>
<path d="M3384 7136 c-42 -42 -46 -83 -10 -92 14 -3 37 -24 52 -45 32 -47 37
-119 9 -149 -9 -10 -15 -25 -12 -32 6 -18 97 79 97 104 0 11 -11 29 -25 40
-37 29 -49 56 -34 74 7 8 18 13 26 10 7 -3 13 0 14 7 0 7 5 2 11 -10 6 -13 15
-23 20 -23 16 0 8 71 -12 110 -19 37 -24 40 -61 40 -33 0 -47 -6 -75 -34z"/>
<path d="M3060 7002 c0 -41 33 -111 69 -146 48 -47 98 -60 153 -40 57 20 75
19 57 -3 -12 -14 -12 -16 1 -11 8 2 21 21 28 40 17 43 4 79 -41 112 -25 18
-31 19 -60 7 -79 -33 -146 -22 -175 29 -19 34 -32 39 -32 12z"/>
<path d="M2754 6984 c5 -14 1 -16 -33 -10 -22 3 -47 9 -56 13 -13 4 -16 2 -13
-8 6 -18 59 -49 94 -55 15 -3 35 -9 45 -14 21 -12 79 -13 79 -3 0 4 -21 27
-47 50 -49 44 -80 56 -69 27z"/>
<path d="M3852 6868 c-23 -29 -64 -122 -78 -179 -22 -88 -2 -182 68 -319 15
-30 28 -55 28 -56 0 -1 -25 -14 -55 -29 -30 -14 -55 -30 -55 -35 0 -14 132
-97 183 -114 51 -17 177 -22 177 -7 0 5 -3 11 -7 13 -8 3 -31 60 -65 163 -11
33 -26 74 -33 90 -7 17 -37 124 -65 240 -62 249 -69 268 -98 233z m11 -78 c-9
-11 -19 -18 -21 -16 -6 7 22 45 30 40 4 -3 0 -13 -9 -24z m-27 -53 c-2 -13 -8
-32 -15 -43 -10 -16 -11 -14 -5 16 9 51 25 72 20 27z m49 -7 c3 -5 1 -10 -4
-10 -6 0 -11 5 -11 10 0 6 2 10 4 10 3 0 8 -4 11 -10z m24 -62 c1 -5 -3 -8 -9
-8 -5 0 -10 12 -9 28 0 24 1 25 9 7 5 -11 9 -23 9 -27z m-69 2 c0 -5 -5 -10
-11 -10 -5 0 -7 5 -4 10 3 6 8 10 11 10 2 0 4 -4 4 -10z m-29 -62 c-4 -39 -5
-41 -12 -16 -8 29 -1 71 10 64 4 -3 5 -24 2 -48z m26 -55 c-3 -10 -5 -4 -5 12
0 17 2 24 5 18 2 -7 2 -21 0 -30z m-5 -37 c4 3 4 -4 1 -15 -5 -21 -6 -21 -19
5 -17 33 -18 57 -1 26 7 -12 16 -20 19 -16z m80 -115 c-5 -3 -12 -13 -15 -21
-4 -10 -6 -8 -6 7 -1 12 -5 25 -11 28 -5 3 -10 13 -10 22 0 13 5 12 25 -7 14
-13 21 -26 17 -29z m5 -116 c-4 -8 -20 -18 -38 -22 -23 -4 -27 -8 -17 -15 9
-7 5 -8 -14 -5 -21 3 -25 1 -20 -12 5 -14 4 -14 -12 -1 -17 14 -16 16 20 32
22 10 46 18 56 18 13 0 15 7 12 33 -3 29 -3 30 7 10 7 -12 9 -29 6 -38z m43
10 c0 -8 -4 -15 -10 -15 -5 0 -7 7 -4 15 4 8 8 15 10 15 2 0 4 -7 4 -15z m-92
-84 c3 -8 -1 -12 -9 -9 -7 2 -15 10 -17 17 -3 8 1 12 9 9 7 -2 15 -10 17 -17z
m68 -21 c8 -8 19 -7 39 0 22 8 31 7 46 -6 10 -9 22 -13 27 -10 11 6 38 -21 29
-30 -8 -9 -77 7 -77 18 0 6 -13 7 -31 3 -31 -7 -79 9 -79 27 0 12 34 10 46 -2z"/>
<path d="M3970 6040 c0 -13 5 -19 60 -82 45 -51 88 -75 166 -93 l50 -12 -45
91 -45 92 -51 0 c-27 -1 -69 3 -92 7 -28 5 -43 4 -43 -3z m130 -39 c0 -5 -5
-11 -11 -13 -5 -2 -7 -11 -4 -21 4 -9 10 -15 14 -14 3 2 16 -7 28 -20 21 -21
21 -23 3 -23 -26 0 -109 70 -110 93 0 4 18 7 40 7 22 0 40 -4 40 -9z m39 -21
c-10 -27 -12 -28 -27 -14 -15 15 -14 18 3 30 29 21 35 17 24 -16z m51 -64 c0
-3 -4 -8 -10 -11 -5 -3 -10 -1 -10 4 0 6 5 11 10 11 6 0 10 -2 10 -4z"/>
<path d="M4920 4695 c0 -13 32 -66 36 -62 6 6 -23 67 -31 67 -3 0 -5 -2 -5 -5z"/>
<path d="M4940 4581 c0 -25 6 -27 13 -6 4 8 2 17 -3 20 -6 4 -10 -3 -10 -14z"/>
<path d="M5355 3400 c-3 -5 1 -10 9 -10 8 0 18 5 21 10 3 6 -1 10 -9 10 -8 0
-18 -4 -21 -10z"/>
<path d="M5512 3357 c-7 -16 -26 -34 -44 -42 -32 -14 -32 -14 -7 -15 31 0 73
41 66 67 -3 15 -6 13 -15 -10z"/>
<path d="M5925 3270 c-24 -53 -94 -116 -157 -143 -40 -16 -47 -22 -32 -28 11
-3 61 -69 113 -145 355 -522 999 -1381 1290 -1719 194 -226 410 -429 528 -496
28 -16 77 -38 109 -49 59 -21 194 -38 194 -26 0 4 -16 28 -36 54 -33 44 -39
47 -84 49 -86 3 -151 28 -196 75 -44 45 -114 149 -114 168 0 13 114 3 143 -12
36 -19 29 2 -21 59 l-51 58 -83 13 c-137 22 -211 78 -276 208 -32 64 -115 147
-180 182 -33 18 -66 32 -73 32 -33 1 -42 16 -29 51 14 39 -2 119 -23 119 -20
0 -37 -22 -37 -46 0 -43 -18 -34 -76 39 -134 165 -253 367 -347 587 -55 129
-140 397 -133 416 3 8 -31 64 -81 132 -116 158 -156 213 -171 237 -7 11 -21
33 -32 50 -11 16 -17 38 -14 47 3 10 1 18 -5 18 -17 0 -13 -51 6 -72 23 -26
-1 -22 -33 6 -21 17 -28 33 -29 62 -2 38 -32 114 -45 114 -4 0 -15 -18 -25
-40z"/>
<path d="M5499 3193 c-13 -16 -12 -17 4 -4 9 7 17 15 17 17 0 8 -8 3 -21 -13z"/>
<path d="M6725 2113 c8 -45 59 -145 86 -169 49 -45 19 74 -42 162 -37 55 -54
57 -44 7z"/>
</g>
</svg>
